<?xml version="1.0" standalone="no"?><!DOCTYPE svg PUBLIC "-//W3C//DTD SVG 1.1//EN" "http://www.w3.org/Graphics/SVG/1.1/DTD/svg11.dtd" ><svg version="1.1" xmlns="http://www.w3.org/2000/svg"><defs><font horiz-adv-x="0" id="font"><font-face ascent="750" bbox="-180 -287 1897 1150" cap-height="716" descent="-250" font-family="BigCity Grotesque Pro" font-stretch="normal" font-style="normal" font-weight="400" units-per-em="1000" x-height="500" /><missing-glyph d="M50 750H450V-250H50ZM400 -200V700H100V-200Z" horiz-adv-x="500" /><glyph glyph-name=".null" horiz-adv-x="0" /><glyph d="M404 252 291 583 184 252ZM262 720H330L575 0H488L429 177H160L101 0H16Z" glyph-name="A" horiz-adv-x="591" unicode="A" /><glyph d="M330 196 245 439 164 196ZM214 553H286L480 0H397L353 129H142L98 0H19Z" glyph-name="A.sc" horiz-adv-x="499" /><glyph d="M376 252V639H364L199 252ZM316 716H744V639H462V402H696V325H462V77H744V0H376V177H167L91 0H6Z" glyph-name="AE" horiz-adv-x="796" unicode="&#198;" /><glyph d="M315 196V482H307L178 196ZM262 550H624V481H397V313H584V245H397V69H624V0H315V130H148L89 0H9Z" glyph-name="AE.sc" horiz-adv-x="674" /><glyph d="M376 252V639H364L199 252ZM316 716H744V639H462V402H696V325H462V77H744V0H376V177H167L91 0H6ZM429 833 644 938 678 860 452 778Z" glyph-name="AEacute" horiz-adv-x="796" unicode="&#508;" /><glyph d="M382 644 556 725 586 660 403 598ZM315 196V482H307L178 196ZM262 550H624V481H397V313H584V245H397V69H624V0H315V130H148L89 0H9Z" glyph-name="AEacute.sc" horiz-adv-x="674" /><glyph d="M417 252 291 599 178 252ZM904 252 787 597 667 252ZM260 720H328L548 107L764 720H832L1077 0H990L930 177H640L577 -5H510L444 177H154L96 0H14Z" glyph-name="A_A" horiz-adv-x="1091" /><glyph d="M339 196 244 450 159 196ZM732 196 644 449 554 196ZM212 553H284L452 98L617 553H689L883 0H800L755 129H530L483 -3H412L363 129H137L94 0H17Z" glyph-name="A_A.sc" horiz-adv-x="901" /><glyph d="M417 252 291 599 178 252ZM904 252 787 597 667 252ZM260 720H328L548 107L764 720H832L1077 0H990L930 177H640L577 -5H510L444 177H154L96 0H14ZM737 833 952 938 986 860 760 778Z" glyph-name="A_Aacute" horiz-adv-x="1091" /><glyph d="M598 644 772 725 802 660 619 597ZM339 196 244 450 159 196ZM732 196 644 449 554 196ZM212 553H284L452 98L617 553H689L883 0H800L755 129H530L483 -3H412L363 129H137L94 0H17Z" glyph-name="A_Aacute.sc" horiz-adv-x="901" /><glyph d="M417 252 291 599 178 252ZM904 252 787 597 667 252ZM260 720H328L548 107L764 720H832L1077 0H990L930 177H640L577 -5H510L444 177H154L96 0H14ZM703 801Q680 801 662.5 817Q645 833 645 861Q645 889 662.5 905Q680 921 704 921Q729 921 746.5 905Q764 889 764 862Q764 833 746.5 817Q729 801 703 801ZM888 801Q865 801 847.5 817Q830 833 830 861Q830 889 847.5 905Q865 921 889 921Q914 921 931.5 905Q949 889 949 862Q949 833 931.5 817Q914 801 888 801Z" glyph-name="A_Adieresis" horiz-adv-x="1091" /><glyph d="M576 615Q554 615 540 628.5Q526 642 526 664Q526 686 540 699Q554 712 576 712Q599 712 613.5 699Q628 686 628 665Q628 642 613.5 628.5Q599 615 576 615ZM727 615Q705 615 691 628.5Q677 642 677 664Q677 686 691 699Q705 712 728 712Q751 712 765 699Q779 686 779 665Q779 642 764.5 628.5Q750 615 727 615ZM339 196 244 450 159 196ZM732 196 644 449 554 196ZM212 553H284L452 98L617 553H689L883 0H800L755 129H530L483 -3H412L363 129H137L94 0H17Z" glyph-name="A_Adieresis.sc" horiz-adv-x="901" /><glyph d="M417 252 291 599 178 252ZM904 252 787 597 667 252ZM260 720H328L548 107L764 720H832L1077 0H990L930 177H640L577 -5H510L444 177H154L96 0H14ZM608 860 642 938 857 833 834 778Z" glyph-name="A_Agrave" horiz-adv-x="1091" /><glyph d="M503 660 533 725 707 644 686 598ZM339 196 244 450 159 196ZM732 196 644 449 554 196ZM212 553H284L452 98L617 553H689L883 0H800L755 129H530L483 -3H412L363 129H137L94 0H17Z" glyph-name="A_Agrave.sc" horiz-adv-x="901" /><glyph d="M417 252 291 599 178 252ZM904 252 787 597 667 252ZM260 720H328L548 107L764 720H832L1077 0H990L930 177H640L577 -5H510L444 177H154L96 0H14ZM655 896H935V819H655Z" glyph-name="A_Amacron" horiz-adv-x="1091" /><glyph d="M538 693H764V629H538ZM339 196 244 450 159 196ZM732 196 644 449 554 196ZM212 553H284L452 98L617 553H689L883 0H800L755 129H530L483 -3H412L363 129H137L94 0H17Z" glyph-name="A_Amacron.sc" horiz-adv-x="901" /><glyph d="M417 252 291 599 178 252ZM904 252 787 597 667 252ZM1006 -224Q961 -224 933 -197Q905 -170 905 -128Q905 -112 909.5 -93.5Q914 -75 924 -58Q934 -41 950.5 -26Q967 -11 991 0H990L930 177H640L577 -5H510L444 177H154L96 0H14L260 720H328L548 107L764 720H832L1077 0Q1021 -32 1003.5 -61.5Q986 -91 986 -112Q986 -156 1035 -156Q1049 -156 1061 -151Q1073 -146 1082 -141Q1092 -134 1100 -125V-185Q1091 -196 1077 -205Q1065 -212 1048 -218Q1031 -224 1006 -224Z" glyph-name="A_Aogonek" horiz-adv-x="1091" /><glyph d="M800 0 755 129H530L483 -3H412L363 129H137L94 0H17L212 553H284L452 98L617 553H689L883 0Q840 -23 825.5 -45Q811 -67 811 -84Q811 -118 850 -118Q872 -118 886 -107Q900 -96 902 -95V-143Q901 -144 895.5 -148.5Q890 -153 880.5 -158.5Q871 -164 857 -168.5Q843 -173 824 -173Q786 -173 762.5 -151.5Q739 -130 739 -98Q739 -71 755 -43Q771 -15 809 0ZM339 196 244 450 159 196ZM732 196 644 449 554 196Z" glyph-name="A_Aogonek.sc" horiz-adv-x="901" /><glyph d="M417 252 291 599 178 252ZM904 252 787 597 667 252ZM260 720H328L548 107L764 720H832L1077 0H990L930 177H640L577 -5H510L444 177H154L96 0H14ZM795 769Q744 769 712 793.5Q680 818 680 860Q680 900 712 926Q744 952 795 952Q846 952 879 926Q912 900 912 860Q912 818 880.5 793.5Q849 769 795 769ZM795 821Q818 821 833 831.5Q848 842 848 862Q848 879 832.5 889.5Q817 900 795 900Q772 900 758 889.5Q744 879 744 862Q744 842 758 831.5Q772 821 795 821Z" glyph-name="A_Aring" horiz-adv-x="1091" /><glyph d="M651 592Q609 592 583 611Q557 630 557 663Q557 695 583 715Q609 735 651 735Q693 735 720 715Q747 695 747 663Q747 630 721 611Q695 592 651 592ZM651 634Q668 634 680 642Q692 650 692 664Q692 678 680 685.5Q668 693 651 693Q633 693 622 685.5Q611 678 611 664Q611 650 622 642Q633 634 651 634ZM339 196 244 450 159 196ZM732 196 644 449 554 196ZM212 553H284L452 98L617 553H689L883 0H800L755 129H530L483 -3H412L363 129H137L94 0H17Z" glyph-name="A_Aring.sc" horiz-adv-x="901" /><glyph d="M417 252 291 599 178 252ZM904 252 787 597 667 252ZM260 720H328L548 107L764 720H832L1077 0H990L930 177H640L577 -5H510L444 177H154L96 0H14ZM641 804Q645 838 656 864Q666 888 684.5 906Q703 924 736 924Q763 924 780.5 913Q798 902 812 891Q828 880 840 870Q852 860 866 860Q876 860 882.5 867.5Q889 875 892 884Q896 895 898 908H958Q955 876 944 850Q935 826 916.5 809Q898 792 864 792Q840 792 823 803Q806 814 791 825Q777 835 764 845.5Q751 856 737 856Q725 856 718 848Q711 840 707 830Q703 819 701 804Z" glyph-name="A_Atilde" horiz-adv-x="1091" /><glyph d="M523 618Q523 621 525.5 636.5Q528 652 536.5 669Q545 686 561 700Q577 714 603 714Q625 714 639 706Q653 698 665 690Q679 681 688 673.5Q697 666 709 666Q717 666 722 671.5Q727 677 730 684Q734 692 735 702H788Q788 699 785.5 684Q783 669 775 652.5Q767 636 751.5 622.5Q736 609 709 609Q689 609 675.5 617Q662 625 649 633Q637 641 626.5 648.5Q616 656 605 656Q595 656 589 650Q583 644 580 637Q577 629 575 618ZM339 196 244 450 159 196ZM732 196 644 449 554 196ZM212 553H284L452 98L617 553H689L883 0H800L755 129H530L483 -3H412L363 129H137L94 0H17Z" glyph-name="A_Atilde.sc" horiz-adv-x="901" /><glyph d="M260 720H328L547 128L738 716H823L577 -5H512L445 177H158L99 0H14ZM417 252 291 591 182 252Z" glyph-name="A_V" horiz-adv-x="837" /><glyph d="M339 196 244 445 162 196ZM212 553H284L451 113L597 550H677L483 -3H414L364 129H140L96 0H17Z" glyph-name="A_V.sc" horiz-adv-x="694" /><glyph d="M403 252 288 590 178 252ZM260 720H328L528 122L678 720H746L919 144L1093 716H1173L952 -5H883L709 564L560 -5H491L429 177H154L96 0H14Z" glyph-name="A_W" horiz-adv-x="1184" /><glyph d="M328 196 241 444 158 196ZM211 553H283L437 107L553 553H619L750 122L881 550H955L784 -3H713L582 415L468 -3H398L351 129H136L93 0H16Z" glyph-name="A_W.sc" horiz-adv-x="972" /><glyph d="M404 252 291 583 184 252ZM262 720H330L575 0H488L429 177H160L101 0H16ZM236 833 451 938 485 860 259 778Z" glyph-name="Aacute" horiz-adv-x="591" unicode="&#193;" /><glyph d="M195 644 369 725 399 660 216 597ZM330 196 245 439 164 196ZM214 553H286L480 0H397L353 129H142L98 0H19Z" glyph-name="Aacute.sc" horiz-adv-x="499" /><glyph d="M417 252 291 599 178 252ZM904 252 787 597 667 252ZM260 720H328L548 107L764 720H832L1077 0H990L930 177H640L577 -5H510L444 177H154L96 0H14ZM234 833 449 938 483 860 257 778Z" glyph-name="Aacute_A" horiz-adv-x="1091" /><glyph d="M193 644 367 725 397 660 214 597ZM339 196 244 450 159 196ZM732 196 644 449 554 196ZM212 553H284L452 98L617 553H689L883 0H800L755 129H530L483 -3H412L363 129H137L94 0H17Z" glyph-name="Aacute_A.sc" horiz-adv-x="901" /><glyph d="M417 252 291 599 178 252ZM904 252 787 597 667 252ZM260 720H328L548 107L764 720H832L1077 0H990L930 177H640L577 -5H510L444 177H154L96 0H14ZM737 833 952 938 986 860 760 778ZM234 833 449 938 483 860 257 778Z" glyph-name="Aacute_Aacute" horiz-adv-x="1091" /><glyph d="M598 644 772 725 802 660 619 597ZM193 644 367 725 397 660 214 597ZM339 196 244 450 159 196ZM732 196 644 449 554 196ZM212 553H284L452 98L617 553H689L883 0H800L755 129H530L483 -3H412L363 129H137L94 0H17Z" glyph-name="Aacute_Aacute.sc" horiz-adv-x="901" /><glyph d="M260 720H328L547 128L738 716H823L577 -5H512L445 177H158L99 0H14ZM417 252 291 591 182 252ZM234 833 449 938 483 860 257 778Z" glyph-name="Aacute_V" horiz-adv-x="837" /><glyph d="M193 644 367 725 397 660 214 597ZM339 196 244 445 162 196ZM212 553H284L451 113L597 550H677L483 -3H414L364 129H140L96 0H17Z" glyph-name="Aacute_V.sc" horiz-adv-x="694" /><glyph d="M404 252 291 583 184 252ZM262 720H330L575 0H488L429 177H160L101 0H16ZM295 785Q227 785 188.5 826Q150 867 150 930H222Q222 904 239.5 881Q257 858 295 858Q333 858 350.5 881Q368 904 368 930H440Q440 867 401.5 826Q363 785 295 785Z" glyph-name="Abreve" horiz-adv-x="591" unicode="&#258;" /><glyph d="M249 604Q195 604 162.5 635Q130 666 129 717H192Q192 700 205 681.5Q218 663 249 663Q280 663 293 681.5Q306 700 306 717H369Q368 666 335.5 635Q303 604 249 604ZM330 196 245 439 164 196ZM214 553H286L480 0H397L353 129H142L98 0H19Z" glyph-name="Abreve.sc" horiz-adv-x="499" /><glyph d="M260 720H328L547 128L738 716H823L577 -5H512L445 177H158L99 0H14ZM417 252 291 591 182 252ZM293 785Q225 785 186.5 826Q148 867 148 930H220Q220 904 237.5 881Q255 858 293 858Q331 858 348.5 881Q366 904 366 930H438Q438 867 399.5 826Q361 785 293 785Z" glyph-name="Abreve_V" horiz-adv-x="837" /><glyph d="M247 604Q193 604 160.5 635Q128 666 127 717H190Q190 700 203 681.5Q216 663 247 663Q278 663 291 681.5Q304 700 304 717H367Q366 666 333.5 635Q301 604 247 604ZM339 196 244 445 162 196ZM212 553H284L451 113L597 550H677L483 -3H414L364 129H140L96 0H17Z" glyph-name="Abreve_V.sc" horiz-adv-x="694" /><glyph d="M404 252 291 583 184 252ZM262 720H330L575 0H488L429 177H160L101 0H16ZM126 822 267 938H322L464 822L433 778L295 864L156 778Z" glyph-name="Acircumflex" horiz-adv-x="591" unicode="&#194;" /><glyph d="M111 634 224 725H274L388 634L360 598L249 664L138 598ZM330 196 245 439 164 196ZM214 553H286L480 0H397L353 129H142L98 0H19Z" glyph-name="Acircumflex.sc" horiz-adv-x="499" /><glyph d="M404 252 291 583 184 252ZM262 720H330L575 0H488L429 177H160L101 0H16ZM201 801Q178 801 160.5 817Q143 833 143 861Q143 889 160.5 905Q178 921 202 921Q227 921 244.5 905Q262 889 262 862Q262 833 244.5 817Q227 801 201 801ZM386 801Q363 801 345.5 817Q328 833 328 861Q328 889 345.5 905Q363 921 387 921Q412 921 429.5 905Q447 889 447 862Q447 833 429.5 817Q412 801 386 801Z" glyph-name="Adieresis" horiz-adv-x="591" unicode="&#196;" /><glyph d="M173 615Q151 615 136.5 628.5Q122 642 122 664Q122 686 136.5 699Q151 712 173 712Q196 712 210.5 699Q225 686 225 665Q225 642 210.5 628.5Q196 615 173 615ZM324 615Q302 615 288 628.5Q274 642 274 664Q274 686 288 699Q302 712 324 712Q347 712 361.5 699Q376 686 376 665Q376 642 361.5 628.5Q347 615 324 615ZM330 196 245 439 164 196ZM214 553H286L480 0H397L353 129H142L98 0H19Z" glyph-name="Adieresis.sc" horiz-adv-x="499" /><glyph d="M417 252 291 599 178 252ZM904 252 787 597 667 252ZM260 720H328L548 107L764 720H832L1077 0H990L930 177H640L577 -5H510L444 177H154L96 0H14ZM199 801Q176 801 158.5 817Q141 833 141 861Q141 889 158.5 905Q176 921 200 921Q225 921 242.5 905Q260 889 260 862Q260 833 242.5 817Q225 801 199 801ZM384 801Q361 801 343.5 817Q326 833 326 861Q326 889 343.5 905Q361 921 385 921Q410 921 427.5 905Q445 889 445 862Q445 833 427.5 817Q410 801 384 801Z" glyph-name="Adieresis_A" horiz-adv-x="1091" /><glyph d="M171 615Q149 615 134.5 628.5Q120 642 120 664Q120 686 134.5 699Q149 712 171 712Q194 712 208.5 699Q223 686 223 665Q223 642 208.5 628.5Q194 615 171 615ZM322 615Q300 615 286 628.5Q272 642 272 664Q272 686 286 699Q300 712 322 712Q345 712 359.5 699Q374 686 374 665Q374 642 359.5 628.5Q345 615 322 615ZM339 196 244 450 159 196ZM732 196 644 449 554 196ZM212 553H284L452 98L617 553H689L883 0H800L755 129H530L483 -3H412L363 129H137L94 0H17Z" glyph-name="Adieresis_A.sc" horiz-adv-x="901" /><glyph d="M417 252 291 599 178 252ZM904 252 787 597 667 252ZM260 720H328L548 107L764 720H832L1077 0H990L930 177H640L577 -5H510L444 177H154L96 0H14ZM703 801Q680 801 662.5 817Q645 833 645 861Q645 889 662.5 905Q680 921 704 921Q729 921 746.5 905Q764 889 764 862Q764 833 746.5 817Q729 801 703 801ZM888 801Q865 801 847.5 817Q830 833 830 861Q830 889 847.5 905Q865 921 889 921Q914 921 931.5 905Q949 889 949 862Q949 833 931.5 817Q914 801 888 801ZM199 801Q176 801 158.5 817Q141 833 141 861Q141 889 158.5 905Q176 921 200 921Q225 921 242.5 905Q260 889 260 862Q260 833 242.5 817Q225 801 199 801ZM384 801Q361 801 343.5 817Q326 833 326 861Q326 889 343.5 905Q361 921 385 921Q410 921 427.5 905Q445 889 445 862Q445 833 427.5 817Q410 801 384 801Z" glyph-name="Adieresis_Adieresis" horiz-adv-x="1091" /><glyph d="M576 615Q554 615 540 628.5Q526 642 526 664Q526 686 540 699Q554 712 576 712Q599 712 613.5 699Q628 686 628 665Q628 642 613.5 628.5Q599 615 576 615ZM727 615Q705 615 691 628.5Q677 642 677 664Q677 686 691 699Q705 712 728 712Q751 712 765 699Q779 686 779 665Q779 642 764.5 628.5Q750 615 727 615ZM171 615Q149 615 134.5 628.5Q120 642 120 664Q120 686 134.5 699Q149 712 171 712Q194 712 208.5 699Q223 686 223 665Q223 642 208.5 628.5Q194 615 171 615ZM322 615Q300 615 286 628.5Q272 642 272 664Q272 686 286 699Q300 712 322 712Q345 712 359.5 699Q374 686 374 665Q374 642 359.5 628.5Q345 615 322 615ZM339 196 244 450 159 196ZM732 196 644 449 554 196ZM212 553H284L452 98L617 553H689L883 0H800L755 129H530L483 -3H412L363 129H137L94 0H17Z" glyph-name="Adieresis_Adieresis.sc" horiz-adv-x="901" /><glyph d="M260 720H328L547 128L738 716H823L577 -5H512L445 177H158L99 0H14ZM417 252 291 591 182 252ZM199 801Q176 801 158.5 817Q141 833 141 861Q141 889 158.5 905Q176 921 200 921Q225 921 242.5 905Q260 889 260 862Q260 833 242.5 817Q225 801 199 801ZM384 801Q361 801 343.5 817Q326 833 326 861Q326 889 343.5 905Q361 921 385 921Q410 921 427.5 905Q445 889 445 862Q445 833 427.5 817Q410 801 384 801Z" glyph-name="Adieresis_V" horiz-adv-x="837" /><glyph d="M171 615Q149 615 134.5 628.5Q120 642 120 664Q120 686 134.5 699Q149 712 171 712Q194 712 208.5 699Q223 686 223 665Q223 642 208.5 628.5Q194 615 171 615ZM322 615Q300 615 286 628.5Q272 642 272 664Q272 686 286 699Q300 712 322 712Q345 712 359.5 699Q374 686 374 665Q374 642 359.5 628.5Q345 615 322 615ZM339 196 244 445 162 196ZM212 553H284L451 113L597 550H677L483 -3H414L364 129H140L96 0H17Z" glyph-name="Adieresis_V.sc" horiz-adv-x="694" /><glyph d="M404 252 291 583 184 252ZM262 720H330L575 0H488L429 177H160L101 0H16ZM106 860 140 938 355 833 332 778Z" glyph-name="Agrave" horiz-adv-x="591" unicode="&#192;" /><glyph d="M100 660 130 725 304 644 283 598ZM330 196 245 439 164 196ZM214 553H286L480 0H397L353 129H142L98 0H19Z" glyph-name="Agrave.sc" horiz-adv-x="499" /><glyph d="M417 252 291 599 178 252ZM904 252 787 597 667 252ZM260 720H328L548 107L764 720H832L1077 0H990L930 177H640L577 -5H510L444 177H154L96 0H14ZM608 860 642 938 857 833 834 778ZM104 860 138 938 353 833 330 778Z" glyph-name="Agrave_Agrave" horiz-adv-x="1091" /><glyph d="M503 660 533 725 707 644 686 598ZM98 660 128 725 302 644 281 598ZM339 196 244 450 159 196ZM732 196 644 449 554 196ZM212 553H284L452 98L617 553H689L883 0H800L755 129H530L483 -3H412L363 129H137L94 0H17Z" glyph-name="Agrave_Agrave.sc" horiz-adv-x="901" /><glyph d="M260 720H328L547 128L738 716H823L577 -5H512L445 177H158L99 0H14ZM417 252 291 591 182 252ZM104 860 138 938 353 833 330 778Z" glyph-name="Agrave_V" horiz-adv-x="837" /><glyph d="M98 660 128 725 302 644 281 598ZM339 196 244 445 162 196ZM212 553H284L451 113L597 550H677L483 -3H414L364 129H140L96 0H17Z" glyph-name="Agrave_V.sc" horiz-adv-x="694" /><glyph d="M404 252 291 583 184 252ZM262 720H330L575 0H488L429 177H160L101 0H16ZM153 896H433V819H153Z" glyph-name="Amacron" horiz-adv-x="591" unicode="&#256;" /><glyph d="M135 693H361V629H135ZM330 196 245 439 164 196ZM214 553H286L480 0H397L353 129H142L98 0H19Z" glyph-name="Amacron.sc" horiz-adv-x="499" /><glyph d="M417 252 291 599 178 252ZM904 252 787 597 667 252ZM260 720H328L548 107L764 720H832L1077 0H990L930 177H640L577 -5H510L444 177H154L96 0H14ZM151 896H431V819H151Z" glyph-name="Amacron_A" horiz-adv-x="1091" /><glyph d="M133 693H359V629H133ZM339 196 244 450 159 196ZM732 196 644 449 554 196ZM212 553H284L452 98L617 553H689L883 0H800L755 129H530L483 -3H412L363 129H137L94 0H17Z" glyph-name="Amacron_A.sc" horiz-adv-x="901" /><glyph d="M260 720H328L547 128L738 716H823L577 -5H512L445 177H158L99 0H14ZM417 252 291 591 182 252ZM151 896H431V819H151Z" glyph-name="Amacron_V" horiz-adv-x="837" /><glyph d="M133 693H359V629H133ZM339 196 244 445 162 196ZM212 553H284L451 113L597 550H677L483 -3H414L364 129H140L96 0H17Z" glyph-name="Amacron_V.sc" horiz-adv-x="694" /><glyph d="M404 252 291 583 184 252ZM575 0Q519 -32 501.5 -61.5Q484 -91 484 -112Q484 -156 533 -156Q547 -156 559 -151Q571 -146 580 -141Q590 -134 598 -125V-185Q589 -196 575 -205Q563 -212 546 -218Q529 -224 504 -224Q459 -224 431 -197Q403 -170 403 -128Q403 -112 407.5 -93.5Q412 -75 422 -58Q432 -41 448.5 -26Q465 -11 489 0H488L429 177H160L101 0H16L262 720H330Z" glyph-name="Aogonek" horiz-adv-x="591" unicode="&#260;" /><glyph d="M397 0 353 129H142L98 0H19L214 553H286L480 0Q437 -23 422.5 -45Q408 -67 408 -84Q408 -118 447 -118Q469 -118 483 -107Q497 -96 499 -95V-143Q498 -144 492.5 -148.5Q487 -153 477.5 -158.5Q468 -164 454 -168.5Q440 -173 421 -173Q383 -173 359.5 -151.5Q336 -130 336 -98Q336 -71 352 -43Q368 -15 406 0ZM330 196 245 439 164 196Z" glyph-name="Aogonek.sc" horiz-adv-x="499" /><glyph d="M404 252 291 583 184 252ZM262 720H330L575 0H488L429 177H160L101 0H16ZM293 769Q242 769 210 793.5Q178 818 178 860Q178 900 210 926Q242 952 293 952Q344 952 377 926Q410 900 410 860Q410 818 378.5 793.5Q347 769 293 769ZM293 821Q316 821 331 831.5Q346 842 346 862Q346 879 330.5 889.5Q315 900 293 900Q270 900 256 889.5Q242 879 242 862Q242 842 256 831.5Q270 821 293 821Z" glyph-name="Aring" horiz-adv-x="591" unicode="&#197;" /><glyph d="M248 592Q206 592 179.5 611Q153 630 153 663Q153 695 179.5 715Q206 735 248 735Q290 735 316.5 715Q343 695 343 663Q343 630 317.5 611Q292 592 248 592ZM248 634Q265 634 277 642Q289 650 289 664Q289 678 277 685.5Q265 693 248 693Q230 693 219 685.5Q208 678 208 664Q208 650 219 642Q230 634 248 634ZM330 196 245 439 164 196ZM214 553H286L480 0H397L353 129H142L98 0H19Z" glyph-name="Aring.sc" horiz-adv-x="499" /><glyph d="M417 252 291 599 178 252ZM904 252 787 597 667 252ZM260 720H328L548 107L764 720H832L1077 0H990L930 177H640L577 -5H510L444 177H154L96 0H14ZM291 769Q240 769 208 793.5Q176 818 176 860Q176 900 208 926Q240 952 291 952Q342 952 375 926Q408 900 408 860Q408 818 376.5 793.5Q345 769 291 769ZM291 821Q314 821 329 831.5Q344 842 344 862Q344 879 328.5 889.5Q313 900 291 900Q268 900 254 889.5Q240 879 240 862Q240 842 254 831.5Q268 821 291 821Z" glyph-name="Aring_A" horiz-adv-x="1091" /><glyph d="M246 592Q204 592 177.5 611Q151 630 151 663Q151 695 177.5 715Q204 735 246 735Q288 735 314.5 715Q341 695 341 663Q341 630 315.5 611Q290 592 246 592ZM246 634Q263 634 275 642Q287 650 287 664Q287 678 275 685.5Q263 693 246 693Q228 693 217 685.5Q206 678 206 664Q206 650 217 642Q228 634 246 634ZM339 196 244 450 159 196ZM732 196 644 449 554 196ZM212 553H284L452 98L617 553H689L883 0H800L755 129H530L483 -3H412L363 129H137L94 0H17Z" glyph-name="Aring_A.sc" horiz-adv-x="901" /><glyph d="M417 252 291 599 178 252ZM904 252 787 597 667 252ZM260 720H328L548 107L764 720H832L1077 0H990L930 177H640L577 -5H510L444 177H154L96 0H14ZM795 769Q744 769 712 793.5Q680 818 680 860Q680 900 712 926Q744 952 795 952Q846 952 879 926Q912 900 912 860Q912 818 880.5 793.5Q849 769 795 769ZM795 821Q818 821 833 831.5Q848 842 848 862Q848 879 832.5 889.5Q817 900 795 900Q772 900 758 889.5Q744 879 744 862Q744 842 758 831.5Q772 821 795 821ZM291 769Q240 769 208 793.5Q176 818 176 860Q176 900 208 926Q240 952 291 952Q342 952 375 926Q408 900 408 860Q408 818 376.5 793.5Q345 769 291 769ZM291 821Q314 821 329 831.5Q344 842 344 862Q344 879 328.5 889.5Q313 900 291 900Q268 900 254 889.5Q240 879 240 862Q240 842 254 831.5Q268 821 291 821Z" glyph-name="Aring_Aring" horiz-adv-x="1091" /><glyph d="M651 592Q609 592 583 611Q557 630 557 663Q557 695 583 715Q609 735 651 735Q693 735 720 715Q747 695 747 663Q747 630 721 611Q695 592 651 592ZM246 592Q204 592 177.5 611Q151 630 151 663Q151 695 177.5 715Q204 735 246 735Q288 735 314.5 715Q341 695 341 663Q341 630 315.5 611Q290 592 246 592ZM651 634Q668 634 680 642Q692 650 692 664Q692 678 680 685.5Q668 693 651 693Q633 693 622 685.5Q611 678 611 664Q611 650 622 642Q633 634 651 634ZM246 634Q263 634 275 642Q287 650 287 664Q287 678 275 685.5Q263 693 246 693Q228 693 217 685.5Q206 678 206 664Q206 650 217 642Q228 634 246 634ZM339 196 244 450 159 196ZM732 196 644 449 554 196ZM212 553H284L452 98L617 553H689L883 0H800L755 129H530L483 -3H412L363 129H137L94 0H17Z" glyph-name="Aring_Aring.sc" horiz-adv-x="901" /><glyph d="M260 720H328L547 128L738 716H823L577 -5H512L445 177H158L99 0H14ZM417 252 291 591 182 252ZM291 769Q240 769 208 793.5Q176 818 176 860Q176 900 208 926Q240 952 291 952Q342 952 375 926Q408 900 408 860Q408 818 376.5 793.5Q345 769 291 769ZM291 821Q314 821 329 831.5Q344 842 344 862Q344 879 328.5 889.5Q313 900 291 900Q268 900 254 889.5Q240 879 240 862Q240 842 254 831.5Q268 821 291 821Z" glyph-name="Aring_V" horiz-adv-x="837" /><glyph d="M246 592Q204 592 177.5 611Q151 630 151 663Q151 695 177.5 715Q204 735 246 735Q288 735 314.5 715Q341 695 341 663Q341 630 315.5 611Q290 592 246 592ZM246 634Q263 634 275 642Q287 650 287 664Q287 678 275 685.5Q263 693 246 693Q228 693 217 685.5Q206 678 206 664Q206 650 217 642Q228 634 246 634ZM339 196 244 445 162 196ZM212 553H284L451 113L597 550H677L483 -3H414L364 129H140L96 0H17Z" glyph-name="Aring_V.sc" horiz-adv-x="694" /><glyph d="M247 1045 462 1150 496 1072 270 990ZM404 252 291 583 184 252ZM262 720H330L575 0H488L429 177H160L101 0H16ZM293 769Q242 769 210 793.5Q178 818 178 860Q178 900 210 926Q242 952 293 952Q344 952 377 926Q410 900 410 860Q410 818 378.5 793.5Q347 769 293 769ZM293 821Q316 821 331 831.5Q346 842 346 862Q346 879 330.5 889.5Q315 900 293 900Q270 900 256 889.5Q242 879 242 862Q242 842 256 831.5Q270 821 293 821Z" glyph-name="Aringacute" horiz-adv-x="591" unicode="&#506;" /><glyph d="M204 809 379 890 409 825 225 763ZM248 592Q206 592 179.5 611Q153 630 153 663Q153 695 179.5 715Q206 735 248 735Q290 735 316.5 715Q343 695 343 663Q343 630 317.5 611Q292 592 248 592ZM248 634Q265 634 277 642Q289 650 289 664Q289 678 277 685.5Q265 693 248 693Q230 693 219 685.5Q208 678 208 664Q208 650 219 642Q230 634 248 634ZM330 196 245 439 164 196ZM214 553H286L480 0H397L353 129H142L98 0H19Z" glyph-name="Aringacute.sc" horiz-adv-x="499" /><glyph d="M404 252 291 583 184 252ZM262 720H330L575 0H488L429 177H160L101 0H16ZM139 804Q143 838 154 864Q164 888 182.5 906Q201 924 234 924Q261 924 278.5 913Q296 902 310 891Q326 880 338 870Q350 860 364 860Q374 860 380.5 867.5Q387 875 390 884Q394 895 396 908H456Q453 876 442 850Q433 826 414.5 809Q396 792 362 792Q338 792 321 803Q304 814 289 825Q275 835 262 845.5Q249 856 235 856Q223 856 216 848Q209 840 205 830Q201 819 199 804Z" glyph-name="Atilde" horiz-adv-x="591" unicode="&#195;" /><glyph d="M119 618Q119 621 122 636.5Q125 652 133.5 669Q142 686 158 700Q174 714 200 714Q222 714 235.5 706Q249 698 262 690Q275 681 284.5 673.5Q294 666 306 666Q314 666 319 671.5Q324 677 327 684Q331 692 332 702H384Q384 699 381.5 684Q379 669 371 652.5Q363 636 347.5 622.5Q332 609 306 609Q286 609 272.5 617Q259 625 246 633Q233 641 223 648.5Q213 656 201 656Q192 656 186 650Q180 644 177 637Q173 629 172 618ZM330 196 245 439 164 196ZM214 553H286L480 0H397L353 129H142L98 0H19Z" glyph-name="Atilde.sc" horiz-adv-x="499" /><glyph d="M92 716H272Q395 716 450.5 666Q506 616 506 532Q506 429 414 379Q449 369 473 351Q497 333 511.5 310Q526 287 532.5 260.5Q539 234 539 207Q539 153 521.5 114Q504 75 472 49.5Q440 24 395 12Q350 0 296 0H92ZM280 408Q353 408 385.5 441Q418 474 418 531Q418 588 380 614.5Q342 641 272 641H178V408ZM297 75Q373 75 411.5 109Q450 143 450 205Q450 268 415 300.5Q380 333 298 333H178V75Z" glyph-name="B" horiz-adv-x="588" unicode="B" /><glyph d="M81 550H233Q335 550 380.5 511.5Q426 473 426 407Q426 367 407 338Q388 309 353 290Q407 276 430 239Q453 202 453 160Q453 78 397.5 39Q342 0 251 0H81ZM240 316Q294 316 319 339.5Q344 363 344 405Q344 446 315.5 465.5Q287 485 234 485H162V316ZM252 65Q309 65 338.5 89.5Q368 114 368 159Q368 204 341.5 227.5Q315 251 253 251H162V65Z" glyph-name="B.sc" horiz-adv-x="499" /><glyph d="M356 -10Q206 -10 130.5 79.5Q55 169 55 335Q55 422 72.5 493.5Q90 565 126.5 617Q163 669 220.5 697.5Q278 726 358 726Q400 726 429 722Q458 718 477 713Q499 707 513 699V624Q496 632 473 638Q452 644 423.5 648Q395 652 357 652Q299 652 258.5 629Q218 606 192.5 564.5Q167 523 156 465Q145 407 145 337Q145 198 198 131Q251 64 357 64Q398 64 427.5 69.5Q457 75 476 81Q499 88 514 98V23Q499 14 476 7Q456 0 427 -5Q398 -10 356 -10Z" glyph-name="C" horiz-adv-x="558" unicode="C" /><glyph d="M298 -8Q179 -8 114.5 60Q50 128 50 259Q50 325 64.5 380Q79 435 110 474.5Q141 514 188 536Q235 558 299 558Q332 558 355.5 554.5Q379 551 394 548Q412 543 423 537V470Q410 476 392 481Q375 485 353 488Q331 491 302 491Q257 491 225 474Q193 457 173.5 427Q154 397 145 354.5Q136 312 136 261Q136 59 301 59Q332 59 355 63Q378 67 394 72Q412 77 424 84V17Q412 10 394 5Q377 -1 354 -4.5Q331 -8 298 -8Z" glyph-name="C.sc" horiz-adv-x="467" /><glyph d="M355 -10Q205 -10 129.5 77.5Q54 165 54 328Q54 411 75.5 481.5Q97 552 141 603.5Q185 655 252.5 684Q320 713 412 713H968V636H764V-3H678V636H426Q351 636 298 614Q245 592 210.5 552Q176 512 160 455.5Q144 399 144 330Q144 64 356 64Q397 64 426.5 69.5Q456 75 475 81Q498 88 513 98V23Q498 14 475 7Q455 0 426 -5Q397 -10 355 -10Z" glyph-name="C_T" horiz-adv-x="983" /><glyph d="M298 -8Q179 -8 114.5 59Q50 126 50 255Q50 318 67.5 372Q85 426 121.5 465Q158 504 213 526Q268 548 343 548H796V478H635V-2H553V478H354Q297 478 255.5 462Q214 446 187.5 417Q161 388 148.5 346.5Q136 305 136 255Q136 59 301 59Q332 59 355 63Q378 67 394 72Q412 77 424 84V17Q412 10 394 5Q377 -1 354 -4.5Q331 -8 298 -8Z" glyph-name="C_T.sc" horiz-adv-x="815" /><glyph d="M355 -7Q205 -7 129.5 80.5Q54 168 54 331Q54 414 75.5 484.5Q97 555 141 606.5Q185 658 252.5 687Q320 716 412 716H968V639H764V0H678V639H426Q351 639 298 617Q245 595 210.5 555Q176 515 160 458.5Q144 402 144 333Q144 67 356 67Q397 67 426.5 72.5Q456 78 475 84Q498 91 513 101V26Q498 17 475 10Q455 3 426 -2Q397 -7 355 -7ZM552 894 582 938 721 852 859 938 890 894 748 778H693Z" glyph-name="C_Tcaron" horiz-adv-x="982" /><glyph d="M456 688 483 725 594 659 705 725 733 688 618 598H569ZM298 -6Q179 -6 114.5 61Q50 128 50 257Q50 320 67.5 374Q85 428 121.5 467Q158 506 213 528Q268 550 343 550H796V481H635V0H553V481H354Q297 481 255.5 465Q214 449 187.5 419.5Q161 390 148.5 348.5Q136 307 136 257Q136 61 301 61Q332 61 355 65Q378 69 394 74Q412 79 424 86V19Q412 12 394 7Q377 1 354 -2.5Q331 -6 298 -6Z" glyph-name="C_Tcaron.sc" horiz-adv-x="814" /><glyph d="M355 -7Q205 -7 129.5 80.5Q54 168 54 331Q54 414 75.5 484.5Q97 555 141 606.5Q185 658 252.5 687Q320 716 412 716H968V639H764V0H678V639H426Q351 639 298 617Q245 595 210.5 555Q176 515 160 458.5Q144 402 144 333Q144 67 356 67Q397 67 426.5 72.5Q456 78 475 84Q498 91 513 101V26Q498 17 475 10Q455 3 426 -2Q397 -7 355 -7ZM675 -268 711 -185Q688 -180 674 -165Q660 -150 660 -126Q660 -103 675.5 -84Q691 -65 720 -65Q749 -65 763.5 -83.5Q778 -102 778 -129Q778 -161 762.5 -200Q747 -239 721 -287Z" glyph-name="C_Tcommaaccent" horiz-adv-x="982" /><glyph d="M298 -6Q179 -6 114.5 61Q50 128 50 257Q50 320 67.5 374Q85 428 121.5 467Q158 506 213 528Q268 550 343 550H796V481H635V0H553V481H354Q297 481 255.5 465Q214 449 187.5 419.5Q161 390 148.5 348.5Q136 307 136 257Q136 61 301 61Q332 61 355 65Q378 69 394 74Q412 79 424 86V19Q412 12 394 7Q377 1 354 -2.5Q331 -6 298 -6ZM556 -229 585 -164Q565 -160 553 -147.5Q541 -135 541 -115Q541 -96 554.5 -80.5Q568 -65 593 -65Q619 -65 632 -80Q645 -95 645 -118Q645 -144 631 -175Q617 -206 596 -244Z" glyph-name="C_Tcommaaccent.sc" horiz-adv-x="814" /><glyph d="M355 -10Q205 -10 129.5 79Q54 168 54 333Q54 416 75.5 486Q97 556 141 607Q185 658 252.5 687Q320 716 412 716H591L788 132L978 716H1063L817 -5H749L530 639H426Q351 639 298 617Q245 595 210.5 555.5Q176 516 160 460Q144 404 144 335Q144 197 197 130.5Q250 64 356 64Q397 64 426.5 69.5Q456 75 475 81Q498 88 513 98V23Q498 14 475 7Q455 0 426 -5Q397 -10 355 -10Z" glyph-name="C_V" horiz-adv-x="1076" /><glyph d="M298 -8Q179 -8 114.5 59.5Q50 127 50 258Q50 321 67.5 374.5Q85 428 121.5 467Q158 506 213 528Q268 550 343 550H498L650 112L796 550H876L682 -3H609L439 481H354Q297 481 255.5 465Q214 449 187.5 420Q161 391 148.5 349.5Q136 308 136 258Q136 59 301 59Q332 59 355 63Q378 67 394 72Q412 77 424 84V17Q412 10 394 5Q377 -1 354 -4.5Q331 -8 298 -8Z" glyph-name="C_V.sc" horiz-adv-x="892" /><glyph d="M355 -10Q205 -10 129.5 79Q54 168 54 333Q54 416 75.5 486Q97 556 141 607Q185 658 252.5 687Q320 716 412 716H627L770 148L913 720H982L1124 152L1268 716H1348L1160 -5H1085L943 563L799 -5H724L560 639H426Q351 639 298 617Q245 595 210.5 555.5Q176 516 160 460Q144 404 144 335Q144 197 197 130.5Q250 64 356 64Q397 64 426.5 69.5Q456 75 475 81Q498 88 513 98V23Q498 14 475 7Q455 0 426 -5Q397 -10 355 -10Z" glyph-name="C_W" horiz-adv-x="1363" /><glyph d="M298 -8Q178 -8 114 60Q50 128 50 257Q50 320 67.5 373.5Q85 427 121 466.5Q157 506 211.5 528Q266 550 341 550H528L637 126L746 553H813L923 127L1032 550H1106L959 -3H883L774 415L664 -3H589L463 481H354Q296 481 255 465Q214 449 187.5 420Q161 391 148.5 349.5Q136 308 136 258Q136 59 301 59Q332 59 355 63Q378 67 394 72Q412 77 424 84V17Q412 10 394 5Q377 -1 354 -4.5Q331 -8 298 -8Z" glyph-name="C_W.sc" horiz-adv-x="1125" /><glyph d="M355 -10Q205 -10 129.5 79Q54 168 54 333Q54 416 75.5 486Q97 556 141 607Q185 658 252.5 687Q320 716 412 716H673L845 426L1012 716H1101L894 360L1109 0H1018L842 296L666 0H577L792 364L628 639H426Q351 639 298 617Q245 595 210.5 555.5Q176 516 160 460Q144 404 144 335Q144 197 197 130.5Q250 64 356 64Q397 64 426.5 69.5Q456 75 475 81Q498 88 513 98V23Q498 14 475 7Q455 0 426 -5Q397 -10 355 -10Z" glyph-name="C_X" horiz-adv-x="1126" /><glyph d="M298 -8Q178 -8 114 60Q50 128 50 257Q50 320 67.5 373.5Q85 427 121 466.5Q157 506 211.5 528Q266 550 341 550H565L696 337L823 550H906L741 278L912 0H825L691 218L557 0H474L645 278L520 481H354Q296 481 255 465Q214 449 187.5 420Q161 391 148.5 349.5Q136 308 136 258Q136 59 301 59Q332 59 355 63Q378 67 394 72Q412 77 424 84V17Q412 10 394 5Q377 -1 354 -4.5Q331 -8 298 -8Z" glyph-name="C_X.sc" horiz-adv-x="933" /><glyph d="M355 -10Q205 -10 129.5 79Q54 168 54 333Q54 416 75.5 486Q97 556 141 607Q185 658 252.5 687Q320 716 412 716H558L746 373L934 716H1021L787 292V0H701V292L510 639H426Q351 639 298 617Q245 595 210.5 555.5Q176 516 160 460Q144 404 144 335Q144 197 197 130.5Q250 64 356 64Q397 64 426.5 69.5Q456 75 475 81Q498 88 513 98V23Q498 14 475 7Q455 0 426 -5Q397 -10 355 -10Z" glyph-name="C_Y" horiz-adv-x="1032" /><glyph d="M298 -8Q179 -8 114.5 59.5Q50 127 50 258Q50 321 67.5 374.5Q85 428 121.5 467Q158 506 213 528Q268 550 343 550H469L613 295L757 550H838L652 224V0H570V224L423 481H354Q297 481 255.5 465Q214 449 187.5 420Q161 391 148.5 350Q136 309 136 259Q136 59 301 59Q332 59 355 63Q378 67 394 72Q412 77 424 84V17Q412 10 394 5Q377 -1 354 -4.5Q331 -8 298 -8Z" glyph-name="C_Y.sc" horiz-adv-x="852" /><glyph d="M355 -10Q205 -10 129.5 79Q54 168 54 333Q54 414 75.5 484Q97 554 142 605.5Q187 657 256.5 686.5Q326 716 422 716H1051V639L715 77H1051V0H620V77L961 639H426Q354 639 300.5 617Q247 595 212.5 554.5Q178 514 161 458.5Q144 403 144 335Q144 197 197 130.5Q250 64 356 64Q397 64 426.5 69.5Q456 75 475 81Q498 88 513 98V23Q498 14 475 7Q455 0 426 -5Q397 -10 355 -10Z" glyph-name="C_Z" horiz-adv-x="1096" /><glyph d="M298 -8Q179 -8 114.5 59.5Q50 127 50 258Q50 320 67.5 373.5Q85 427 122 466Q159 505 215.5 527.5Q272 550 350 550H863V481L598 69H863V0H508V69L776 481H354Q298 481 257 465Q216 449 189 419.5Q162 390 149 349.5Q136 309 136 259Q136 59 301 59Q332 59 355 63Q378 67 394 72Q412 77 424 84V17Q412 10 394 5Q377 -1 354 -4.5Q331 -8 298 -8Z" glyph-name="C_Z.sc" horiz-adv-x="908" /><glyph d="M664 894 694 938 833 852 971 938 1002 894 860 778H805ZM355 -10Q205 -10 129.5 79Q54 168 54 333Q54 414 75.5 484Q97 554 142 605.5Q187 657 256.5 686.5Q326 716 422 716H1051V639L715 77H1051V0H620V77L961 639H426Q354 639 300.5 617Q247 595 212.5 554.5Q178 514 161 458.5Q144 403 144 335Q144 197 197 130.5Q250 64 356 64Q397 64 426.5 69.5Q456 75 475 81Q498 88 513 98V23Q498 14 475 7Q455 0 426 -5Q397 -10 355 -10Z" glyph-name="C_Zcaron" horiz-adv-x="1096" /><glyph d="M546 688 573 725 685 659 796 725 823 688 709 598H660ZM298 -8Q179 -8 114.5 59.5Q50 127 50 258Q50 320 67.5 373.5Q85 427 122 466Q159 505 215.5 527.5Q272 550 350 550H863V481L598 69H863V0H508V69L776 481H354Q298 481 257 465Q216 449 189 419.5Q162 390 149 349.5Q136 309 136 259Q136 59 301 59Q332 59 355 63Q378 67 394 72Q412 77 424 84V17Q412 10 394 5Q377 -1 354 -4.5Q331 -8 298 -8Z" glyph-name="C_Zcaron.sc" horiz-adv-x="908" /><glyph d="M834 -7Q798 -7 768.5 5Q739 17 703 45L687 0H623V700H556Q513 700 513 660V624Q496 632 473 638Q452 644 423.5 648Q395 652 357 652Q299 652 258.5 629Q218 606 192.5 564.5Q167 523 156 465Q145 407 145 337Q145 198 198 131Q251 64 357 64Q398 64 427.5 69.5Q457 75 476 81Q499 88 514 98V23Q499 14 476 7Q456 0 427 -5Q398 -10 356 -10Q206 -10 130.5 79.5Q55 169 55 335Q55 422 72.5 493.5Q90 565 126.5 617Q163 669 220.5 697.5Q278 726 358 726Q414 726 451 718Q468 766 530 766H708V444Q721 462 741 476Q759 489 784.5 498.5Q810 508 847 508Q900 508 938.5 489Q977 470 1001.5 436.5Q1026 403 1038 358Q1050 313 1050 261Q1050 133 993 63Q936 -7 834 -7ZM817 64Q856 64 883.5 78Q911 92 928.5 118Q946 144 953.5 180Q961 216 961 260Q961 343 928.5 389.5Q896 436 824 436Q795 436 773.5 426Q752 416 737 405Q720 391 708 373V98Q722 88 739 81Q754 74 773.5 69Q793 64 817 64Z" glyph-name="C_b" horiz-adv-x="1100" /><glyph d="M514 23Q499 14 476 7Q456 0 427 -5Q398 -10 356 -10Q206 -10 130.5 79.5Q55 169 55 335Q55 422 72.5 493.5Q90 565 126.5 617Q163 669 220.5 697.5Q278 726 358 726Q414 726 451 718Q468 766 530 766H707V441Q723 460 746 475Q767 488 796 498Q825 508 865 508Q912 508 943.5 492.5Q975 477 995 450Q1015 423 1023.5 386Q1032 349 1032 306V0H947V302Q947 369 919.5 402.5Q892 436 832 436Q801 436 778 427.5Q755 419 739 409Q721 397 707 382V0H622V700H556Q513 700 513 660V624Q496 632 473 638Q452 644 423.5 648Q395 652 357 652Q299 652 258.5 629Q218 606 192.5 564.5Q167 523 156 465Q145 407 145 337Q145 198 198 131Q251 64 357 64Q398 64 427.5 69.5Q457 75 476 81Q499 88 514 98Z" glyph-name="C_h" horiz-adv-x="1105" /><glyph d="M514 23Q499 14 476 7Q456 0 427 -5Q398 -10 356 -10Q206 -10 130.5 79.5Q55 169 55 335Q55 422 72.5 493.5Q90 565 126.5 617Q163 669 220.5 697.5Q278 726 358 726Q414 726 451 718Q468 766 527 766H707V288H751L920 500H1013L823 266L1028 0H922L752 222H707V0H622V700H556Q513 700 513 660V624Q496 632 473 638Q452 644 423.5 648Q395 652 357 652Q299 652 258.5 629Q218 606 192.5 564.5Q167 523 156 465Q145 407 145 337Q145 198 198 131Q251 64 357 64Q398 64 427.5 69.5Q457 75 476 81Q499 88 514 98Z" glyph-name="C_k" horiz-adv-x="1033" /><glyph d="M716 -7Q621 -7 621 107V700H556Q513 700 513 660V624Q496 632 473 638Q452 644 423.5 648Q395 652 357 652Q299 652 258.5 629Q218 606 192.5 564.5Q167 523 156 465Q145 407 145 337Q145 198 198 131Q251 64 357 64Q398 64 427.5 69.5Q457 75 476 81Q499 88 514 98V23Q499 14 476 7Q456 0 427 -5Q398 -10 356 -10Q206 -10 130.5 79.5Q55 169 55 335Q55 422 72.5 493.5Q90 565 126.5 617Q163 669 220.5 697.5Q278 726 358 726Q414 726 451 718Q468 766 527 766H706V130Q706 91 720 75.5Q734 60 767 60H768V0Q762 -2 754 -4Q746 -5 737 -6Q728 -7 716 -7Z" glyph-name="C_l" horiz-adv-x="804" /><glyph d="M716 -7Q621 -7 621 107V348L537 305V377L621 420V700H556Q513 700 513 660V624Q496 632 473 638Q452 644 423.5 648Q395 652 357 652Q299 652 258.5 629Q218 606 192.5 564.5Q167 523 156 465Q145 407 145 337Q145 198 198 131Q251 64 357 64Q398 64 427.5 69.5Q457 75 476 81Q499 88 514 98V23Q499 14 476 7Q456 0 427 -5Q398 -10 356 -10Q206 -10 130.5 79.5Q55 169 55 335Q55 422 72.5 493.5Q90 565 126.5 617Q163 669 220.5 697.5Q278 726 358 726Q414 726 451 718Q468 766 527 766H706V463L792 507V435L706 391V130Q706 91 720 75.5Q734 60 767 60H768V0Q762 -2 754 -4Q746 -5 737 -6Q728 -7 716 -7Z" glyph-name="C_lslash" horiz-adv-x="827" /><glyph d="M443 -10Q352 -10 280 14.5Q208 39 157.5 87Q107 135 80.5 205.5Q54 276 54 368Q54 442 71.5 507.5Q89 573 125.5 621.5Q162 670 219.5 698Q277 726 357 726Q399 726 428 722Q457 718 476 713Q498 707 512 699V624Q495 632 472 638Q451 644 422.5 648Q394 652 356 652Q298 652 257.5 629.5Q217 607 191.5 569Q166 531 155 481Q144 431 144 375Q144 291 167 231Q190 171 233 133Q276 95 338.5 77.5Q401 60 480 60H652Q722 60 761 80Q800 100 800 137Q800 166 778 184.5Q756 203 694 221Q666 229 639.5 240.5Q613 252 592.5 269Q572 286 559.5 311Q547 336 547 371Q547 435 596 471.5Q645 508 732 508Q760 508 781.5 505Q803 502 818 499Q836 494 850 489V421Q835 427 817 431Q800 435 779 438Q758 441 732 441Q676 441 651 421Q626 401 626 372Q626 341 651.5 322Q677 303 731 289Q811 268 845.5 233.5Q880 199 880 145Q880 108 862.5 79Q845 50 814 30Q783 10 739.5 0Q696 -10 643 -10Z" glyph-name="C_s" horiz-adv-x="921" /><glyph d="M443 -10Q352 -10 280 14.5Q208 39 157.5 87Q107 135 80.5 205.5Q54 276 54 368Q54 442 71.5 507.5Q89 573 125.5 621.5Q162 670 219.5 698Q277 726 357 726Q399 726 428 722Q457 718 476 713Q498 707 512 699V624Q495 632 472 638Q451 644 422.5 648Q394 652 356 652Q298 652 257.5 629.5Q217 607 191.5 569Q166 531 155 481Q144 431 144 375Q144 291 167 231Q190 171 233 133Q276 95 338.5 77.5Q401 60 480 60H652Q722 60 761 80Q800 100 800 137Q800 166 778 184.5Q756 203 694 221Q666 229 639.5 240.5Q613 252 592.5 269Q572 286 559.5 311Q547 336 547 371Q547 435 596 471.5Q645 508 732 508Q760 508 781.5 505Q803 502 818 499Q836 494 850 489V421Q835 427 817 431Q800 435 779 438Q758 441 732 441Q676 441 651 421Q626 401 626 372Q626 341 651.5 322Q677 303 731 289Q811 268 845.5 233.5Q880 199 880 145Q880 108 862.5 79Q845 50 814 30Q783 10 739.5 0Q696 -10 643 -10ZM546 719 584 761 707 652 829 761 868 719 723 575H690Z" glyph-name="C_scaron" horiz-adv-x="921" /><glyph d="M443 -10Q352 -10 280 14.5Q208 39 157.5 87Q107 135 80.5 205.5Q54 276 54 368Q54 442 71.5 507.5Q89 573 125.5 621.5Q162 670 219.5 698Q277 726 357 726Q399 726 428 722Q457 718 476 713Q498 707 512 699V624Q495 632 472 638Q451 644 422.5 648Q394 652 356 652Q298 652 257.5 629.5Q217 607 191.5 569Q166 531 155 481Q144 431 144 375Q144 291 167 231Q190 171 233 133Q276 95 338.5 77.5Q401 60 480 60H652Q722 60 761 80Q800 100 800 137Q800 166 778 184.5Q756 203 694 221Q666 229 639.5 240.5Q613 252 592.5 269Q572 286 559.5 311Q547 336 547 371Q547 435 596 471.5Q645 508 732 508Q760 508 781.5 505Q803 502 818 499Q836 494 850 489V421Q835 427 817 431Q800 435 779 438Q758 441 732 441Q676 441 651 421Q626 401 626 372Q626 341 651.5 322Q677 303 731 289Q811 268 845.5 233.5Q880 199 880 145Q880 108 862.5 79Q845 50 814 30Q783 10 739.5 0Q696 -10 643 -10ZM672 -268 708 -185Q685 -180 671 -165Q657 -150 657 -126Q657 -103 672.5 -84Q688 -65 717 -65Q746 -65 760.5 -83.5Q775 -102 775 -129Q775 -161 759.5 -200Q744 -239 718 -287Z" glyph-name="C_scommaaccent" horiz-adv-x="921" /><glyph d="M356 -10Q206 -10 130.5 79.5Q55 169 55 335Q55 422 72.5 493.5Q90 565 126.5 617Q163 669 220.5 697.5Q278 726 358 726Q400 726 429 722Q458 718 477 713Q499 707 513 699V624Q496 632 473 638Q452 644 423.5 648Q395 652 357 652Q299 652 258.5 629Q218 606 192.5 564.5Q167 523 156 465Q145 407 145 337Q145 198 198 131Q251 64 357 64Q398 64 427.5 69.5Q457 75 476 81Q499 88 514 98V23Q499 14 476 7Q456 0 427 -5Q398 -10 356 -10ZM268 833 483 938 517 860 291 778Z" glyph-name="Cacute" horiz-adv-x="558" unicode="&#262;" /><glyph d="M248 797 338 983 404 945 299 769ZM356 -10Q206 -10 130.5 79.5Q55 169 55 335Q55 422 72.5 493.5Q90 565 126.5 617Q163 669 220.5 697.5Q278 726 358 726Q400 726 429 722Q458 718 477 713Q499 707 513 699V624Q496 632 473 638Q452 644 423.5 648Q395 652 357 652Q299 652 258.5 629Q218 606 192.5 564.5Q167 523 156 465Q145 407 145 337Q145 198 198 131Q251 64 357 64Q398 64 427.5 69.5Q457 75 476 81Q499 88 514 98V23Q499 14 476 7Q456 0 427 -5Q398 -10 356 -10Z" glyph-name="Cacute.pl" horiz-adv-x="558" /><glyph d="M209 615 281 757 338 726 253 591ZM298 -8Q179 -8 114.5 60Q50 128 50 259Q50 325 64.5 380Q79 435 110 474.5Q141 514 188 536Q235 558 299 558Q332 558 355.5 554.5Q379 551 394 548Q412 543 423 537V470Q410 476 392 481Q375 485 353 488Q331 491 302 491Q257 491 225 474Q193 457 173.5 427Q154 397 145 354.5Q136 312 136 261Q136 59 301 59Q332 59 355 63Q378 67 394 72Q412 77 424 84V17Q412 10 394 5Q377 -1 354 -4.5Q331 -8 298 -8Z" glyph-name="Cacute.pl.sc" horiz-adv-x="467" /><glyph d="M220 644 394 725 424 660 241 598ZM298 -8Q179 -8 114.5 60Q50 128 50 259Q50 325 64.5 380Q79 435 110 474.5Q141 514 188 536Q235 558 299 558Q332 558 355.5 554.5Q379 551 394 548Q412 543 423 537V470Q410 476 392 481Q375 485 353 488Q331 491 302 491Q257 491 225 474Q193 457 173.5 427Q154 397 145 354.5Q136 312 136 261Q136 59 301 59Q332 59 355 63Q378 67 394 72Q412 77 424 84V17Q412 10 394 5Q377 -1 354 -4.5Q331 -8 298 -8Z" glyph-name="Cacute.sc" horiz-adv-x="467" /><glyph d="M267 833 482 938 516 860 290 778ZM355 -10Q205 -10 129.5 79Q54 168 54 333Q54 416 75.5 486Q97 556 141 607Q185 658 252.5 687Q320 716 412 716H627L770 148L913 720H982L1124 152L1268 716H1348L1160 -5H1085L943 563L799 -5H724L560 639H426Q351 639 298 617Q245 595 210.5 555.5Q176 516 160 460Q144 404 144 335Q144 197 197 130.5Q250 64 356 64Q397 64 426.5 69.5Q456 75 475 81Q498 88 513 98V23Q498 14 475 7Q455 0 426 -5Q397 -10 355 -10Z" glyph-name="Cacute_W" horiz-adv-x="1363" /><glyph d="M220 644 394 725 424 660 241 598ZM298 -8Q178 -8 114 60Q50 128 50 257Q50 320 67.5 373.5Q85 427 121 466.5Q157 506 211.5 528Q266 550 341 550H528L637 126L746 553H813L923 127L1032 550H1106L959 -3H883L774 415L664 -3H589L463 481H354Q296 481 255 465Q214 449 187.5 420Q161 391 148.5 349.5Q136 308 136 258Q136 59 301 59Q332 59 355 63Q378 67 394 72Q412 77 424 84V17Q412 10 394 5Q377 -1 354 -4.5Q331 -8 298 -8Z" glyph-name="Cacute_W.sc" horiz-adv-x="1125" /><glyph d="M268 833 483 938 517 860 291 778ZM834 -7Q798 -7 768.5 5Q739 17 703 45L687 0H623V700H556Q513 700 513 660V624Q496 632 473 638Q452 644 423.5 648Q395 652 357 652Q299 652 258.5 629Q218 606 192.5 564.5Q167 523 156 465Q145 407 145 337Q145 198 198 131Q251 64 357 64Q398 64 427.5 69.5Q457 75 476 81Q499 88 514 98V23Q499 14 476 7Q456 0 427 -5Q398 -10 356 -10Q206 -10 130.5 79.5Q55 169 55 335Q55 422 72.5 493.5Q90 565 126.5 617Q163 669 220.5 697.5Q278 726 358 726Q414 726 451 718Q468 766 530 766H708V444Q721 462 741 476Q759 489 784.5 498.5Q810 508 847 508Q900 508 938.5 489Q977 470 1001.5 436.5Q1026 403 1038 358Q1050 313 1050 261Q1050 133 993 63Q936 -7 834 -7ZM817 64Q856 64 883.5 78Q911 92 928.5 118Q946 144 953.5 180Q961 216 961 260Q961 343 928.5 389.5Q896 436 824 436Q795 436 773.5 426Q752 416 737 405Q720 391 708 373V98Q722 88 739 81Q754 74 773.5 69Q793 64 817 64Z" glyph-name="Cacute_b" horiz-adv-x="1100" /><glyph d="M268 833 483 938 517 860 291 778ZM514 23Q499 14 476 7Q456 0 427 -5Q398 -10 356 -10Q206 -10 130.5 79.5Q55 169 55 335Q55 422 72.5 493.5Q90 565 126.5 617Q163 669 220.5 697.5Q278 726 358 726Q414 726 451 718Q468 766 527 766H707V288H751L920 500H1013L823 266L1028 0H922L752 222H707V0H622V700H556Q513 700 513 660V624Q496 632 473 638Q452 644 423.5 648Q395 652 357 652Q299 652 258.5 629Q218 606 192.5 564.5Q167 523 156 465Q145 407 145 337Q145 198 198 131Q251 64 357 64Q398 64 427.5 69.5Q457 75 476 81Q499 88 514 98Z" glyph-name="Cacute_k" horiz-adv-x="1033" /><glyph d="M268 833 483 938 517 860 291 778ZM716 -7Q621 -7 621 107V700H556Q513 700 513 660V624Q496 632 473 638Q452 644 423.5 648Q395 652 357 652Q299 652 258.5 629Q218 606 192.5 564.5Q167 523 156 465Q145 407 145 337Q145 198 198 131Q251 64 357 64Q398 64 427.5 69.5Q457 75 476 81Q499 88 514 98V23Q499 14 476 7Q456 0 427 -5Q398 -10 356 -10Q206 -10 130.5 79.5Q55 169 55 335Q55 422 72.5 493.5Q90 565 126.5 617Q163 669 220.5 697.5Q278 726 358 726Q414 726 451 718Q468 766 527 766H706V130Q706 92 719.5 76.5Q733 61 766 60H768V0Q762 -2 754 -4Q746 -5 737 -6Q728 -7 716 -7Z" glyph-name="Cacute_l" horiz-adv-x="804" /><glyph d="M443 -10Q352 -10 280 14.5Q208 39 157.5 87Q107 135 80.5 205.5Q54 276 54 368Q54 442 71.5 507.5Q89 573 125.5 621.5Q162 670 219.5 698Q277 726 357 726Q399 726 428 722Q457 718 476 713Q498 707 512 699V624Q495 632 472 638Q451 644 422.5 648Q394 652 356 652Q298 652 257.5 629.5Q217 607 191.5 569Q166 531 155 481Q144 431 144 375Q144 291 167 231Q190 171 233 133Q276 95 338.5 77.5Q401 60 480 60H652Q722 60 761 80Q800 100 800 137Q800 166 778 184.5Q756 203 694 221Q666 229 639.5 240.5Q613 252 592.5 269Q572 286 559.5 311Q547 336 547 371Q547 435 596 471.5Q645 508 732 508Q760 508 781.5 505Q803 502 818 499Q836 494 850 489V421Q835 427 817 431Q800 435 779 438Q758 441 732 441Q676 441 651 421Q626 401 626 372Q626 341 651.5 322Q677 303 731 289Q811 268 845.5 233.5Q880 199 880 145Q880 108 862.5 79Q845 50 814 30Q783 10 739.5 0Q696 -10 643 -10ZM267 833 482 938 516 860 290 778Z" glyph-name="Cacute_s" horiz-adv-x="921" /><glyph d="M356 -10Q206 -10 130.5 79.5Q55 169 55 335Q55 422 72.5 493.5Q90 565 126.5 617Q163 669 220.5 697.5Q278 726 358 726Q400 726 429 722Q458 718 477 713Q499 707 513 699V624Q496 632 473 638Q452 644 423.5 648Q395 652 357 652Q299 652 258.5 629Q218 606 192.5 564.5Q167 523 156 465Q145 407 145 337Q145 198 198 131Q251 64 357 64Q398 64 427.5 69.5Q457 75 476 81Q499 88 514 98V23Q499 14 476 7Q456 0 427 -5Q398 -10 356 -10ZM173 894 203 938 342 852 480 938 511 894 369 778H314Z" glyph-name="Ccaron" horiz-adv-x="558" unicode="&#268;" /><glyph d="M144 688 171 725 283 659 394 725 421 688 307 598H258ZM298 -8Q179 -8 114.5 60Q50 128 50 259Q50 325 64.5 380Q79 435 110 474.5Q141 514 188 536Q235 558 299 558Q332 558 355.5 554.5Q379 551 394 548Q412 543 423 537V470Q410 476 392 481Q375 485 353 488Q331 491 302 491Q257 491 225 474Q193 457 173.5 427Q154 397 145 354.5Q136 312 136 261Q136 59 301 59Q332 59 355 63Q378 67 394 72Q412 77 424 84V17Q412 10 394 5Q377 -1 354 -4.5Q331 -8 298 -8Z" glyph-name="Ccaron.sc" horiz-adv-x="467" /><glyph d="M355 -10Q205 -10 129.5 77.5Q54 165 54 328Q54 411 75.5 481.5Q97 552 141 603.5Q185 655 252.5 684Q320 713 412 713H968V636H764V-3H678V636H426Q351 636 298 614Q245 592 210.5 552Q176 512 160 455.5Q144 399 144 330Q144 64 356 64Q397 64 426.5 69.5Q456 75 475 81Q498 88 513 98V23Q498 14 475 7Q455 0 426 -5Q397 -10 355 -10ZM172 894 202 938 341 852 479 938 510 894 368 778H313Z" glyph-name="Ccaron_T" horiz-adv-x="983" /><glyph d="M145 688 172 725 284 659 395 725 422 688 308 598H259ZM298 -8Q179 -8 114.5 59Q50 126 50 255Q50 318 67.5 372Q85 426 121.5 465Q158 504 213 526Q268 548 343 548H796V478H635V-2H553V478H354Q297 478 255.5 462Q214 446 187.5 417Q161 388 148.5 346.5Q136 305 136 255Q136 59 301 59Q332 59 355 63Q378 67 394 72Q412 77 424 84V17Q412 10 394 5Q377 -1 354 -4.5Q331 -8 298 -8Z" glyph-name="Ccaron_T.sc" horiz-adv-x="815" /><glyph d="M172 894 202 938 341 852 479 938 510 894 368 778H313ZM355 -10Q205 -10 129.5 79Q54 168 54 333Q54 416 75.5 486Q97 556 141 607Q185 658 252.5 687Q320 716 412 716H591L788 132L978 716H1063L817 -5H749L530 639H426Q351 639 298 617Q245 595 210.5 555.5Q176 516 160 460Q144 404 144 335Q144 197 197 130.5Q250 64 356 64Q397 64 426.5 69.5Q456 75 475 81Q498 88 513 98V23Q498 14 475 7Q455 0 426 -5Q397 -10 355 -10Z" glyph-name="Ccaron_V" horiz-adv-x="1076" /><glyph d="M145 688 172 725 284 659 395 725 422 688 308 598H259ZM298 -8Q179 -8 114.5 59.5Q50 127 50 258Q50 321 67.5 374.5Q85 428 121.5 467Q158 506 213 528Q268 550 343 550H498L650 112L796 550H876L682 -3H609L439 481H354Q297 481 255.5 465Q214 449 187.5 420Q161 391 148.5 349.5Q136 308 136 258Q136 59 301 59Q332 59 355 63Q378 67 394 72Q412 77 424 84V17Q412 10 394 5Q377 -1 354 -4.5Q331 -8 298 -8Z" glyph-name="Ccaron_V.sc" horiz-adv-x="892" /><glyph d="M172 894 202 938 341 852 479 938 510 894 368 778H313ZM355 -10Q205 -10 129.5 79Q54 168 54 333Q54 416 75.5 486Q97 556 141 607Q185 658 252.5 687Q320 716 412 716H558L746 373L934 716H1021L787 292V0H701V292L510 639H426Q351 639 298 617Q245 595 210.5 555.5Q176 516 160 460Q144 404 144 335Q144 197 197 130.5Q250 64 356 64Q397 64 426.5 69.5Q456 75 475 81Q498 88 513 98V23Q498 14 475 7Q455 0 426 -5Q397 -10 355 -10Z" glyph-name="Ccaron_Y" horiz-adv-x="1032" /><glyph d="M145 688 172 725 284 659 395 725 422 688 308 598H259ZM298 -8Q179 -8 114.5 59.5Q50 127 50 258Q50 321 67.5 374.5Q85 428 121.5 467Q158 506 213 528Q268 550 343 550H469L613 295L757 550H838L652 224V0H570V224L423 481H354Q297 481 255.5 465Q214 449 187.5 420Q161 391 148.5 350Q136 309 136 259Q136 59 301 59Q332 59 355 63Q378 67 394 72Q412 77 424 84V17Q412 10 394 5Q377 -1 354 -4.5Q331 -8 298 -8Z" glyph-name="Ccaron_Y.sc" horiz-adv-x="852" /><glyph d="M173 894 203 938 342 852 480 938 511 894 369 778H314ZM834 -7Q798 -7 768.5 5Q739 17 703 45L687 0H623V700H556Q513 700 513 660V624Q496 632 473 638Q452 644 423.5 648Q395 652 357 652Q299 652 258.5 629Q218 606 192.5 564.5Q167 523 156 465Q145 407 145 337Q145 198 198 131Q251 64 357 64Q398 64 427.5 69.5Q457 75 476 81Q499 88 514 98V23Q499 14 476 7Q456 0 427 -5Q398 -10 356 -10Q206 -10 130.5 79.5Q55 169 55 335Q55 422 72.5 493.5Q90 565 126.5 617Q163 669 220.5 697.5Q278 726 358 726Q414 726 451 718Q468 766 530 766H708V444Q721 462 741 476Q759 489 784.5 498.5Q810 508 847 508Q900 508 938.5 489Q977 470 1001.5 436.5Q1026 403 1038 358Q1050 313 1050 261Q1050 133 993 63Q936 -7 834 -7ZM817 64Q856 64 883.5 78Q911 92 928.5 118Q946 144 953.5 180Q961 216 961 260Q961 343 928.5 389.5Q896 436 824 436Q795 436 773.5 426Q752 416 737 405Q720 391 708 373V98Q722 88 739 81Q754 74 773.5 69Q793 64 817 64Z" glyph-name="Ccaron_b" horiz-adv-x="1100" /><glyph d="M173 894 203 938 342 852 480 938 511 894 369 778H314ZM514 23Q499 14 476 7Q456 0 427 -5Q398 -10 356 -10Q206 -10 130.5 79.5Q55 169 55 335Q55 422 72.5 493.5Q90 565 126.5 617Q163 669 220.5 697.5Q278 726 358 726Q414 726 451 718Q468 766 527 766H707V288H751L920 500H1013L823 266L1028 0H922L752 222H707V0H622V700H556Q513 700 513 660V624Q496 632 473 638Q452 644 423.5 648Q395 652 357 652Q299 652 258.5 629Q218 606 192.5 564.5Q167 523 156 465Q145 407 145 337Q145 198 198 131Q251 64 357 64Q398 64 427.5 69.5Q457 75 476 81Q499 88 514 98Z" glyph-name="Ccaron_k" horiz-adv-x="1033" /><glyph d="M173 894 203 938 342 852 480 938 511 894 369 778H314ZM716 -7Q621 -7 621 107V700H556Q513 700 513 660V624Q496 632 473 638Q452 644 423.5 648Q395 652 357 652Q299 652 258.5 629Q218 606 192.5 564.5Q167 523 156 465Q145 407 145 337Q145 198 198 131Q251 64 357 64Q398 64 427.5 69.5Q457 75 476 81Q499 88 514 98V23Q499 14 476 7Q456 0 427 -5Q398 -10 356 -10Q206 -10 130.5 79.5Q55 169 55 335Q55 422 72.5 493.5Q90 565 126.5 617Q163 669 220.5 697.5Q278 726 358 726Q414 726 451 718Q468 766 527 766H706V130Q706 92 719.5 76.5Q733 61 765 60H768V0Q762 -2 754 -4Q746 -5 737 -6Q728 -7 716 -7Z" glyph-name="Ccaron_l" horiz-adv-x="804" /><glyph d="M173 894 203 938 342 852 480 938 511 894 369 778H314ZM777 572 813 655Q790 660 776 675Q762 690 762 714Q762 737 777.5 756Q793 775 822 775Q851 775 865.5 756.5Q880 738 880 711Q880 679 864.5 640Q849 601 823 553ZM716 -7Q621 -7 621 107V700H556Q513 700 513 660V624Q496 632 473 638Q452 644 423.5 648Q395 652 357 652Q299 652 258.5 629Q218 606 192.5 564.5Q167 523 156 465Q145 407 145 337Q145 198 198 131Q251 64 357 64Q398 64 427.5 69.5Q457 75 476 81Q499 88 514 98V23Q499 14 476 7Q456 0 427 -5Q398 -10 356 -10Q206 -10 130.5 79.5Q55 169 55 335Q55 422 72.5 493.5Q90 565 126.5 617Q163 669 220.5 697.5Q278 726 358 726Q414 726 451 718Q468 766 527 766H706V130Q706 91 720 75.5Q734 60 767 60H768V0Q762 -2 754 -4Q746 -5 737 -6Q728 -7 716 -7Z" glyph-name="Ccaron_lcaron" horiz-adv-x="831" /><glyph d="M443 -10Q352 -10 280 14.5Q208 39 157.5 87Q107 135 80.5 205.5Q54 276 54 368Q54 442 71.5 507.5Q89 573 125.5 621.5Q162 670 219.5 698Q277 726 357 726Q399 726 428 722Q457 718 476 713Q498 707 512 699V624Q495 632 472 638Q451 644 422.5 648Q394 652 356 652Q298 652 257.5 629.5Q217 607 191.5 569Q166 531 155 481Q144 431 144 375Q144 291 167 231Q190 171 233 133Q276 95 338.5 77.5Q401 60 480 60H652Q722 60 761 80Q800 100 800 137Q800 166 778 184.5Q756 203 694 221Q666 229 639.5 240.5Q613 252 592.5 269Q572 286 559.5 311Q547 336 547 371Q547 435 596 471.5Q645 508 732 508Q760 508 781.5 505Q803 502 818 499Q836 494 850 489V421Q835 427 817 431Q800 435 779 438Q758 441 732 441Q676 441 651 421Q626 401 626 372Q626 341 651.5 322Q677 303 731 289Q811 268 845.5 233.5Q880 199 880 145Q880 108 862.5 79Q845 50 814 30Q783 10 739.5 0Q696 -10 643 -10ZM172 894 202 938 341 852 479 938 510 894 368 778H313Z" glyph-name="Ccaron_s" horiz-adv-x="921" /><glyph d="M443 -10Q352 -10 280 14.5Q208 39 157.5 87Q107 135 80.5 205.5Q54 276 54 368Q54 442 71.5 507.5Q89 573 125.5 621.5Q162 670 219.5 698Q277 726 357 726Q399 726 428 722Q457 718 476 713Q498 707 512 699V624Q495 632 472 638Q451 644 422.5 648Q394 652 356 652Q298 652 257.5 629.5Q217 607 191.5 569Q166 531 155 481Q144 431 144 375Q144 291 167 231Q190 171 233 133Q276 95 338.5 77.5Q401 60 480 60H652Q722 60 761 80Q800 100 800 137Q800 166 778 184.5Q756 203 694 221Q666 229 639.5 240.5Q613 252 592.5 269Q572 286 559.5 311Q547 336 547 371Q547 435 596 471.5Q645 508 732 508Q760 508 781.5 505Q803 502 818 499Q836 494 850 489V421Q835 427 817 431Q800 435 779 438Q758 441 732 441Q676 441 651 421Q626 401 626 372Q626 341 651.5 322Q677 303 731 289Q811 268 845.5 233.5Q880 199 880 145Q880 108 862.5 79Q845 50 814 30Q783 10 739.5 0Q696 -10 643 -10ZM546 719 584 761 707 652 829 761 868 719 723 575H690ZM172 894 202 938 341 852 479 938 510 894 368 778H313Z" glyph-name="Ccaron_scaron" horiz-adv-x="921" /><glyph d="M463 -133Q463 -162 448 -184Q433 -206 407.5 -220.5Q382 -235 348.5 -240Q315 -245 277 -240V-186Q324 -188 350.5 -176Q377 -164 377 -140Q377 -122 355.5 -111.5Q334 -101 282 -103L292 -5Q174 14 114.5 101Q55 188 55 335Q55 422 72.5 493.5Q90 565 126.5 617Q163 669 220.5 697.5Q278 726 358 726Q400 726 429 722Q458 718 477 713Q499 707 513 699V624Q496 632 473 638Q452 644 423.5 648Q395 652 357 652Q299 652 258.5 629Q218 606 192.5 564.5Q167 523 156 465Q145 407 145 337Q145 198 198 131Q251 64 357 64Q398 64 427.5 69.5Q457 75 476 81Q499 88 514 98V23Q499 14 477 7Q456 0 427.5 -5Q399 -10 358 -10L355 -43Q412 -48 437.5 -70.5Q463 -93 463 -133Z" glyph-name="Ccedilla" horiz-adv-x="558" unicode="&#199;" /><glyph d="M383 -101Q383 -123 371 -140Q359 -157 338 -168Q317 -179 289 -183Q261 -187 229 -183V-140Q265 -142 286 -133Q307 -124 307 -106Q307 -78 245 -78H233L241 -4Q149 12 99.5 78.5Q50 145 50 259Q50 325 64.5 380Q79 435 110 474.5Q141 514 188 536Q235 558 299 558Q332 558 355.5 554.5Q379 551 394 548Q412 543 423 537V470Q410 476 392 481Q375 485 353 488Q331 491 302 491Q257 491 225 474Q193 457 173.5 427Q154 397 145 354.5Q136 312 136 261Q136 59 301 59Q332 59 355 63Q378 67 394 72Q412 77 424 84V17Q412 10 394 5Q378 -1 355.5 -4.5Q333 -8 301 -8L298 -33Q343 -36 363 -53.5Q383 -71 383 -101Z" glyph-name="Ccedilla.sc" horiz-adv-x="467" /><glyph d="M462 -133Q462 -162 447 -184Q432 -206 406.5 -220.5Q381 -235 347.5 -240Q314 -245 276 -240V-186Q323 -188 349.5 -176Q376 -164 376 -140Q376 -122 355 -111.5Q334 -101 281 -103L290 -5Q172 13 113 98.5Q54 184 54 328Q54 411 75.5 481.5Q97 552 141 603.5Q185 655 252.5 684Q320 713 412 713H968V636H764V-3H678V636H426Q351 636 298 614Q245 592 210.5 552Q176 512 160 455.5Q144 399 144 330Q144 64 356 64Q397 64 426.5 69.5Q456 75 475 81Q498 88 513 98V23Q498 14 476 7Q455 0 426.5 -5Q398 -10 357 -10L354 -43Q411 -48 436.5 -70.5Q462 -93 462 -133Z" glyph-name="Ccedilla_T" horiz-adv-x="983" /><glyph d="M383 -101Q383 -123 371 -140Q359 -157 338 -168Q317 -179 289 -183Q261 -187 229 -183V-140Q265 -142 286 -133Q307 -124 307 -106Q307 -78 245 -78H233L241 -4Q149 11 99.5 77Q50 143 50 255Q50 318 67.5 372Q85 426 121.5 465Q158 504 213 526Q268 548 343 548H796V478H635V-2H553V478H354Q297 478 255.5 462Q214 446 187.5 417Q161 388 148.5 346.5Q136 305 136 255Q136 59 301 59Q332 59 355 63Q378 67 394 72Q412 77 424 84V17Q412 10 394 5Q378 -1 355.5 -4.5Q333 -8 301 -8L298 -33Q343 -36 363 -53.5Q383 -71 383 -101Z" glyph-name="Ccedilla_T.sc" horiz-adv-x="815" /><glyph d="M462 -133Q462 -162 447 -184Q432 -206 406.5 -220.5Q381 -235 347.5 -240Q314 -245 276 -240V-186Q323 -188 349.5 -176Q376 -164 376 -140Q376 -122 355 -111.5Q334 -101 281 -103L290 -5Q172 14 113 100.5Q54 187 54 333Q54 416 75.5 486Q97 556 141 607Q185 658 252.5 687Q320 716 412 716H558L746 373L934 716H1021L787 292V0H701V292L510 639H426Q351 639 298 617Q245 595 210.5 555.5Q176 516 160 460Q144 404 144 335Q144 197 197 130.5Q250 64 356 64Q397 64 426.5 69.5Q456 75 475 81Q498 88 513 98V23Q498 14 476 7Q455 0 426.5 -5Q398 -10 357 -10L354 -43Q411 -48 436.5 -70.5Q462 -93 462 -133Z" glyph-name="Ccedilla_Y" horiz-adv-x="1032" /><glyph d="M383 -101Q383 -123 371 -140Q359 -157 338 -168Q317 -179 289 -183Q261 -187 229 -183V-140Q265 -142 286 -133Q307 -124 307 -106Q307 -78 245 -78H233L241 -4Q149 12 99.5 78Q50 144 50 258Q50 321 67.5 374.5Q85 428 121.5 467Q158 506 213 528Q268 550 343 550H469L613 295L757 550H838L652 224V0H570V224L423 481H354Q297 481 255.5 465Q214 449 187.5 420Q161 391 148.5 350Q136 309 136 259Q136 59 301 59Q332 59 355 63Q378 67 394 72Q412 77 424 84V17Q412 10 394 5Q378 -1 355.5 -4.5Q333 -8 301 -8L298 -33Q343 -36 363 -53.5Q383 -71 383 -101Z" glyph-name="Ccedilla_Y.sc" horiz-adv-x="852" /><glyph d="M817 64Q856 64 883.5 78Q911 92 928.5 118Q946 144 953.5 180Q961 216 961 260Q961 343 928.5 389.5Q896 436 824 436Q795 436 773.5 426Q752 416 737 405Q720 391 708 373V98Q722 88 739 81Q754 74 773.5 69Q793 64 817 64ZM463 -133Q463 -162 448 -184Q433 -206 407.5 -220.5Q382 -235 348.5 -240Q315 -245 277 -240V-186Q324 -188 350.5 -176Q377 -164 377 -140Q377 -122 356 -111.5Q335 -101 282 -103L292 -5Q174 14 114.5 101Q55 188 55 335Q55 422 72.5 493.5Q90 565 126.5 617Q163 669 220.5 697.5Q278 726 358 726Q414 726 451 718Q468 766 530 766H708V444Q721 462 741 476Q759 489 784.5 498.5Q810 508 847 508Q900 508 938.5 489Q977 470 1001.5 436.5Q1026 403 1038 358Q1050 313 1050 261Q1050 133 993 63Q936 -7 834 -7Q798 -7 768.5 5Q739 17 703 45L687 0H623V700H556Q513 700 513 660V624Q496 632 473 638Q452 644 423.5 648Q395 652 357 652Q299 652 258.5 629Q218 606 192.5 564.5Q167 523 156 465Q145 407 145 337Q145 198 198 131Q251 64 357 64Q398 64 427.5 69.5Q457 75 476 81Q499 88 514 98V23Q499 14 477 7Q456 0 427.5 -5Q399 -10 358 -10L355 -43Q412 -48 437.5 -70.5Q463 -93 463 -133Z" glyph-name="Ccedilla_b" horiz-adv-x="1100" /><glyph d="M463 -133Q463 -162 448 -184Q433 -206 407.5 -220.5Q382 -235 348.5 -240Q315 -245 277 -240V-186Q324 -188 350.5 -176Q377 -164 377 -140Q377 -122 356 -111.5Q335 -101 282 -103L292 -5Q174 14 114.5 101Q55 188 55 335Q55 422 72.5 493.5Q90 565 126.5 617Q163 669 220.5 697.5Q278 726 358 726Q414 726 451 718Q468 766 530 766H707V441Q723 460 746 475Q767 488 796 498Q825 508 865 508Q912 508 943.5 492.5Q975 477 995 450Q1015 423 1023.5 386Q1032 349 1032 306V0H947V302Q947 369 919.5 402.5Q892 436 832 436Q801 436 778 427.5Q755 419 739 409Q721 397 707 382V0H622V700H556Q513 700 513 660V624Q496 632 473 638Q452 644 423.5 648Q395 652 357 652Q299 652 258.5 629Q218 606 192.5 564.5Q167 523 156 465Q145 407 145 337Q145 198 198 131Q251 64 357 64Q398 64 427.5 69.5Q457 75 476 81Q499 88 514 98V23Q499 14 477 7Q456 0 427.5 -5Q399 -10 358 -10L355 -43Q412 -48 437.5 -70.5Q463 -93 463 -133Z" glyph-name="Ccedilla_h" horiz-adv-x="1105" /><glyph d="M463 -133Q463 -162 448 -184Q433 -206 407.5 -220.5Q382 -235 348.5 -240Q315 -245 277 -240V-186Q324 -188 350.5 -176Q377 -164 377 -140Q377 -122 356 -111.5Q335 -101 282 -103L292 -5Q174 14 114.5 101Q55 188 55 335Q55 422 72.5 493.5Q90 565 126.5 617Q163 669 220.5 697.5Q278 726 358 726Q414 726 451 718Q468 766 527 766H707V288H751L920 500H1013L823 266L1028 0H922L752 222H707V0H622V700H556Q513 700 513 660V624Q496 632 473 638Q452 644 423.5 648Q395 652 357 652Q299 652 258.5 629Q218 606 192.5 564.5Q167 523 156 465Q145 407 145 337Q145 198 198 131Q251 64 357 64Q398 64 427.5 69.5Q457 75 476 81Q499 88 514 98V23Q499 14 477 7Q456 0 427.5 -5Q399 -10 358 -10L355 -43Q412 -48 437.5 -70.5Q463 -93 463 -133Z" glyph-name="Ccedilla_k" horiz-adv-x="1033" /><glyph d="M463 -133Q463 -162 448 -184Q433 -206 407.5 -220.5Q382 -235 348.5 -240Q315 -245 277 -240V-186Q324 -188 350.5 -176Q377 -164 377 -140Q377 -122 356 -111.5Q335 -101 282 -103L292 -5Q174 14 114.5 101Q55 188 55 335Q55 422 72.5 493.5Q90 565 126.5 617Q163 669 220.5 697.5Q278 726 358 726Q414 726 451 718Q468 766 527 766H706V130Q706 92 719.5 76.5Q733 61 766 60H768V0Q762 -2 754 -4Q746 -5 737 -6Q728 -7 716 -7Q621 -7 621 107V700H556Q513 700 513 660V624Q496 632 473 638Q452 644 423.5 648Q395 652 357 652Q299 652 258.5 629Q218 606 192.5 564.5Q167 523 156 465Q145 407 145 337Q145 198 198 131Q251 64 357 64Q398 64 427.5 69.5Q457 75 476 81Q499 88 514 98V23Q499 14 477 7Q456 0 427.5 -5Q399 -10 358 -10L355 -43Q412 -48 437.5 -70.5Q463 -93 463 -133Z" glyph-name="Ccedilla_l" horiz-adv-x="804" /><glyph d="M462 -132Q462 -161 447 -183Q432 -205 406.5 -219.5Q381 -234 347.5 -239Q314 -244 276 -239V-185Q323 -187 349.5 -175Q376 -163 376 -139Q376 -121 355 -110.5Q334 -100 281 -102L292 10Q178 45 116 135Q54 225 54 368Q54 442 71.5 507.5Q89 573 125.5 621.5Q162 670 219.5 698Q277 726 357 726Q399 726 428 722Q457 718 476 713Q498 707 512 699V624Q495 632 472 638Q451 644 422.5 648Q394 652 356 652Q298 652 257.5 629.5Q217 607 191.5 569Q166 531 155 481Q144 431 144 375Q144 291 167 231Q190 171 233 133Q276 95 338.5 77.5Q401 60 480 60H652Q722 60 761 80Q800 100 800 137Q800 166 778 184.5Q756 203 694 221Q666 229 639.5 240.5Q613 252 592.5 269Q572 286 559.5 311Q547 336 547 371Q547 435 596 471.5Q645 508 732 508Q760 508 781.5 505Q803 502 818 499Q836 494 850 489V421Q835 427 817 431Q800 435 779 438Q758 441 732 441Q676 441 651 421Q626 401 626 372Q626 341 651.5 322Q677 303 731 289Q811 268 845.5 233.5Q880 199 880 145Q880 108 862.5 79Q845 50 814 30Q783 10 739.5 0Q696 -10 643 -10H443Q399 -10 358 -4L354 -42Q411 -47 436.5 -69.5Q462 -92 462 -132Z" glyph-name="Ccedilla_s" horiz-adv-x="921" /><glyph d="M356 -10Q206 -10 130.5 79.5Q55 169 55 335Q55 422 72.5 493.5Q90 565 126.5 617Q163 669 220.5 697.5Q278 726 358 726Q400 726 429 722Q458 718 477 713Q499 707 513 699V624Q496 632 473 638Q452 644 423.5 648Q395 652 357 652Q299 652 258.5 629Q218 606 192.5 564.5Q167 523 156 465Q145 407 145 337Q145 198 198 131Q251 64 357 64Q398 64 427.5 69.5Q457 75 476 81Q499 88 514 98V23Q499 14 476 7Q456 0 427 -5Q398 -10 356 -10ZM171 822 312 938H367L509 822L478 778L340 864L201 778Z" glyph-name="Ccircumflex" horiz-adv-x="558" unicode="&#264;" /><glyph d="M143 634 257 725H306L420 634L393 598L282 664L170 598ZM298 -8Q179 -8 114.5 60Q50 128 50 259Q50 325 64.5 380Q79 435 110 474.5Q141 514 188 536Q235 558 299 558Q332 558 355.5 554.5Q379 551 394 548Q412 543 423 537V470Q410 476 392 481Q375 485 353 488Q331 491 302 491Q257 491 225 474Q193 457 173.5 427Q154 397 145 354.5Q136 312 136 261Q136 59 301 59Q332 59 355 63Q378 67 394 72Q412 77 424 84V17Q412 10 394 5Q377 -1 354 -4.5Q331 -8 298 -8Z" glyph-name="Ccircumflex.sc" horiz-adv-x="467" /><glyph d="M356 -10Q206 -10 130.5 79.5Q55 169 55 335Q55 422 72.5 493.5Q90 565 126.5 617Q163 669 220.5 697.5Q278 726 358 726Q400 726 429 722Q458 718 477 713Q499 707 513 699V624Q496 632 473 638Q452 644 423.5 648Q395 652 357 652Q299 652 258.5 629Q218 606 192.5 564.5Q167 523 156 465Q145 407 145 337Q145 198 198 131Q251 64 357 64Q398 64 427.5 69.5Q457 75 476 81Q499 88 514 98V23Q499 14 476 7Q456 0 427 -5Q398 -10 356 -10ZM328 801Q303 801 285.5 817.5Q268 834 268 863Q268 892 285.5 908.5Q303 925 329 925Q355 925 373 909Q391 893 391 864Q391 834 373 817.5Q355 801 328 801Z" glyph-name="Cdotaccent" horiz-adv-x="558" unicode="&#266;" /><glyph d="M273 615Q250 615 235.5 628.5Q221 642 221 665Q221 688 235.5 701.5Q250 715 273 715Q298 715 312.5 701.5Q327 688 327 666Q327 643 312 629Q297 615 273 615ZM298 -8Q179 -8 114.5 60Q50 128 50 259Q50 325 64.5 380Q79 435 110 474.5Q141 514 188 536Q235 558 299 558Q332 558 355.5 554.5Q379 551 394 548Q412 543 423 537V470Q410 476 392 481Q375 485 353 488Q331 491 302 491Q257 491 225 474Q193 457 173.5 427Q154 397 145 354.5Q136 312 136 261Q136 59 301 59Q332 59 355 63Q378 67 394 72Q412 77 424 84V17Q412 10 394 5Q377 -1 354 -4.5Q331 -8 298 -8Z" glyph-name="Cdotaccent.sc" horiz-adv-x="467" /><glyph d="M355 -10Q205 -10 129.5 77.5Q54 165 54 328Q54 411 75.5 481.5Q97 552 141 603.5Q185 655 252.5 684Q320 713 412 713H968V636H764V-3H678V636H426Q351 636 298 614Q245 592 210.5 552Q176 512 160 455.5Q144 399 144 330Q144 64 356 64Q397 64 426.5 69.5Q456 75 475 81Q498 88 513 98V23Q498 14 475 7Q455 0 426 -5Q397 -10 355 -10ZM327 801Q302 801 284.5 817.5Q267 834 267 863Q267 892 284.5 908.5Q302 925 328 925Q354 925 372 909Q390 893 390 864Q390 834 372 817.5Q354 801 327 801Z" glyph-name="Cdotaccent_T" horiz-adv-x="983" /><glyph d="M273 615Q250 615 235.5 628.5Q221 642 221 665Q221 688 235.5 701.5Q250 715 273 715Q298 715 312.5 701.5Q327 688 327 666Q327 643 312 629Q297 615 273 615ZM298 -8Q179 -8 114.5 59Q50 126 50 255Q50 318 67.5 372Q85 426 121.5 465Q158 504 213 526Q268 548 343 548H796V478H635V-2H553V478H354Q297 478 255.5 462Q214 446 187.5 417Q161 388 148.5 346.5Q136 305 136 255Q136 59 301 59Q332 59 355 63Q378 67 394 72Q412 77 424 84V17Q412 10 394 5Q377 -1 354 -4.5Q331 -8 298 -8Z" glyph-name="Cdotaccent_T.sc" horiz-adv-x="815" /><glyph d="M328 801Q303 801 285.5 817.5Q268 834 268 863Q268 892 285.5 908.5Q303 925 329 925Q355 925 373 909Q391 893 391 864Q391 834 373 817.5Q355 801 328 801ZM514 23Q499 14 476 7Q456 0 427 -5Q398 -10 356 -10Q206 -10 130.5 79.5Q55 169 55 335Q55 422 72.5 493.5Q90 565 126.5 617Q163 669 220.5 697.5Q278 726 358 726Q414 726 451 718Q468 766 527 766H707V288H751L920 500H1013L823 266L1028 0H922L752 222H707V0H622V700H556Q513 700 513 660V624Q496 632 473 638Q452 644 423.5 648Q395 652 357 652Q299 652 258.5 629Q218 606 192.5 564.5Q167 523 156 465Q145 407 145 337Q145 198 198 131Q251 64 357 64Q398 64 427.5 69.5Q457 75 476 81Q499 88 514 98Z" glyph-name="Cdotaccent_k" horiz-adv-x="1033" /><glyph d="M328 801Q303 801 285.5 817.5Q268 834 268 863Q268 892 285.5 908.5Q303 925 329 925Q355 925 373 909Q391 893 391 864Q391 834 373 817.5Q355 801 328 801ZM716 -7Q621 -7 621 107V700H556Q513 700 513 660V624Q496 632 473 638Q452 644 423.5 648Q395 652 357 652Q299 652 258.5 629Q218 606 192.5 564.5Q167 523 156 465Q145 407 145 337Q145 198 198 131Q251 64 357 64Q398 64 427.5 69.5Q457 75 476 81Q499 88 514 98V23Q499 14 476 7Q456 0 427 -5Q398 -10 356 -10Q206 -10 130.5 79.5Q55 169 55 335Q55 422 72.5 493.5Q90 565 126.5 617Q163 669 220.5 697.5Q278 726 358 726Q414 726 451 718Q468 766 527 766H706V130Q706 92 719 76.5Q732 61 764 60H768V0Q762 -2 754 -4Q746 -5 737 -6Q728 -7 716 -7Z" glyph-name="Cdotaccent_l" horiz-adv-x="804" /><glyph d="M92 716H291Q446 716 529.5 627Q613 538 613 358Q613 179 529.5 89.5Q446 0 291 0H92ZM291 77Q344 77 387 93Q430 109 460.5 143Q491 177 507.5 230Q524 283 524 358Q524 433 507.5 486.5Q491 540 460 573.5Q429 607 386.5 623Q344 639 291 639H178V77Z" glyph-name="D" horiz-adv-x="668" unicode="D" /><glyph d="M81 550H243Q372 550 440 479.5Q508 409 508 275Q508 141 440 70.5Q372 0 243 0H81ZM244 69Q326 69 374.5 118.5Q423 168 423 275Q423 383 374 432Q325 481 244 481H163V69Z" glyph-name="D.sc" horiz-adv-x="558" /><glyph d="M91 716H290Q384 716 459 679Q534 642 574 560Q606 643 674 684.5Q742 726 836 726Q878 726 907 722Q936 718 955 713Q977 707 991 699V624Q974 632 951 638Q930 644 901.5 648Q873 652 835 652Q777 652 736.5 629Q696 606 670.5 564.5Q645 523 634 465Q623 407 623 337Q623 258 639.5 205.5Q656 153 684.5 121.5Q713 90 752 77Q791 64 835 64Q877 64 906.5 69.5Q936 75 955 81Q977 88 992 98V23Q977 14 954 7Q934 0 905 -5Q876 -10 834 -10Q737 -10 670 29Q603 68 569 144Q547 105 516 77.5Q485 50 448.5 33Q412 16 372 8Q332 0 290 0H91ZM290 77Q343 77 387.5 93Q432 109 464.5 143Q497 177 515 230Q533 283 533 358Q533 433 514.5 486.5Q496 540 464 573.5Q432 607 387.5 623Q343 639 290 639H177V77Z" glyph-name="D_C" horiz-adv-x="1035" /><glyph d="M81 550H244Q319 550 378.5 523Q438 496 471 436Q498 496 552 527Q606 558 680 558Q713 558 736 554.5Q759 551 775 548Q792 543 804 537V470Q791 476 773 481Q756 485 734 488Q712 491 682 491Q637 491 605.5 474Q574 457 554.5 427Q535 397 526 354.5Q517 312 517 261Q517 204 529.5 165Q542 126 564 102.5Q586 79 616.5 69Q647 59 682 59Q714 59 737 63Q760 67 775 72Q793 77 805 84V17Q793 10 775 5Q758 -1 734.5 -4.5Q711 -8 678 -8Q603 -8 549.5 20.5Q496 49 467 106Q431 49 371.5 24.5Q312 0 244 0H81ZM245 69Q286 69 320 81Q354 93 379 118.5Q404 144 417.5 182.5Q431 221 431 275Q431 329 417 368Q403 407 378.5 432Q354 457 320 469Q286 481 245 481H163V69Z" glyph-name="D_C.sc" horiz-adv-x="848" /><glyph d="M91 716H290Q384 716 459 679Q534 642 574 560Q606 643 674 684.5Q742 726 836 726Q878 726 907 722Q936 718 955 713Q977 707 991 699V624Q974 632 951 638Q930 644 901.5 648Q873 652 835 652Q777 652 736.5 629Q696 606 670.5 564.5Q645 523 634 465Q623 407 623 337Q623 258 639.5 205.5Q656 153 684.5 121.5Q713 90 752 77Q791 64 835 64Q877 64 906.5 69.5Q936 75 955 81Q977 88 992 98V23Q977 14 954 7Q934 0 905 -5Q876 -10 834 -10Q737 -10 670 29Q603 68 569 144Q547 105 516 77.5Q485 50 448.5 33Q412 16 372 8Q332 0 290 0H91ZM290 77Q343 77 387.5 93Q432 109 464.5 143Q497 177 515 230Q533 283 533 358Q533 433 514.5 486.5Q496 540 464 573.5Q432 607 387.5 623Q343 639 290 639H177V77ZM651 894 681 938 820 852 958 938 989 894 847 778H792Z" glyph-name="D_Ccaron" horiz-adv-x="1035" /><glyph d="M525 688 552 725 664 659 775 725 802 688 688 598H639ZM81 550H244Q319 550 378.5 523Q438 496 471 436Q498 496 552 527Q606 558 680 558Q713 558 736 554.5Q759 551 775 548Q792 543 804 537V470Q791 476 773 481Q756 485 734 488Q712 491 682 491Q637 491 605.5 474Q574 457 554.5 427Q535 397 526 354.5Q517 312 517 261Q517 204 529.5 165Q542 126 564 102.5Q586 79 616.5 69Q647 59 682 59Q714 59 737 63Q760 67 775 72Q793 77 805 84V17Q793 10 775 5Q758 -1 734.5 -4.5Q711 -8 678 -8Q603 -8 549.5 20.5Q496 49 467 106Q431 49 371.5 24.5Q312 0 244 0H81ZM245 69Q286 69 320 81Q354 93 379 118.5Q404 144 417.5 182.5Q431 221 431 275Q431 329 417 368Q403 407 378.5 432Q354 457 320 469Q286 481 245 481H163V69Z" glyph-name="D_Ccaron.sc" horiz-adv-x="848" /><glyph d="M290 77Q343 77 387.5 93Q432 109 464.5 143Q497 177 515 230Q533 283 533 358Q533 433 514.5 486.5Q496 540 464 573.5Q432 607 387.5 623Q343 639 290 639H177V77ZM941 -133Q941 -162 926 -184Q911 -206 885.5 -220.5Q860 -235 826.5 -240Q793 -245 755 -240V-186Q802 -188 828.5 -176Q855 -164 855 -140Q855 -122 834 -111.5Q813 -101 760 -103L770 -5Q625 18 569 144Q547 105 516 77.5Q485 50 448.5 33Q412 16 372 8Q332 0 290 0H91V716H290Q384 716 459 679Q534 642 574 560Q606 643 674 684.5Q742 726 836 726Q878 726 907 722Q936 718 955 713Q977 707 991 699V624Q974 632 951 638Q930 644 901.5 648Q873 652 835 652Q777 652 736.5 629Q696 606 670.5 564.5Q645 523 634 465Q623 407 623 337Q623 258 639.5 205.5Q656 153 684.5 121.5Q713 90 752 77Q791 64 835 64Q877 64 906.5 69.5Q936 75 955 81Q977 88 992 98V23Q977 14 955 7Q934 0 905.5 -5Q877 -10 836 -10L833 -43Q890 -48 915.5 -70.5Q941 -93 941 -133Z" glyph-name="D_Ccedilla" horiz-adv-x="1035" /><glyph d="M245 69Q286 69 320 81Q354 93 379 118.5Q404 144 417.5 182.5Q431 221 431 275Q431 329 417 368Q403 407 378.5 432Q354 457 320 469Q286 481 245 481H163V69ZM764 -101Q764 -123 752 -140Q740 -157 719 -168Q698 -179 670 -183Q642 -187 610 -183V-140Q646 -142 667 -133Q688 -124 688 -106Q688 -78 626 -78H614L622 -3Q512 15 467 106Q431 49 371.5 24.5Q312 0 244 0H81V550H244Q319 550 378.5 523Q438 496 471 436Q498 496 552 527Q606 558 680 558Q713 558 736 554.5Q759 551 775 548Q792 543 804 537V470Q791 476 773 481Q756 485 734 488Q712 491 682 491Q637 491 605.5 474Q574 457 554.5 427Q535 397 526 354.5Q517 312 517 261Q517 204 529.5 165Q542 126 564 102.5Q586 79 616.5 69Q647 59 682 59Q714 59 737 63Q760 67 775 72Q793 77 805 84V17Q793 10 775 5Q759 -1 736.5 -4.5Q714 -8 682 -8L679 -33Q724 -36 744 -53.5Q764 -71 764 -101Z" glyph-name="D_Ccedilla.sc" horiz-adv-x="848" /><glyph d="M91 716H290Q384 716 459.5 678.5Q535 641 576 558Q596 602 626.5 633.5Q657 665 695 685.5Q733 706 776.5 716Q820 726 865 726Q908 726 939.5 721.5Q971 717 992 711Q1016 704 1033 696V624Q1012 632 986 638Q963 644 933.5 648Q904 652 867 652Q799 652 752 631Q705 610 675.5 571.5Q646 533 632.5 479Q619 425 619 359Q619 291 634 236.5Q649 182 680 143.5Q711 105 759.5 84.5Q808 64 874 64Q922 64 964 73V321H797V397H1045V18Q1023 10 996 4Q971 -2 941 -6Q911 -10 875 -10Q764 -10 686.5 33Q609 76 574 159Q552 116 520.5 86Q489 56 452.5 37Q416 18 374.5 9Q333 0 290 0H91ZM290 77Q343 77 387.5 93Q432 109 464.5 143Q497 177 515 230Q533 283 533 358Q533 433 514.5 486.5Q496 540 464 573.5Q432 607 387.5 623Q343 639 290 639H177V77Z" glyph-name="D_G" horiz-adv-x="1111" /><glyph d="M81 550H244Q319 550 379.5 522Q440 494 473 434Q505 499 568 528.5Q631 558 705 558Q740 558 765.5 554.5Q791 551 809 547Q829 541 843 535V470Q826 476 805 481Q786 485 762.5 488Q739 491 710 491Q657 491 620 475.5Q583 460 559.5 431.5Q536 403 525 363Q514 323 514 274Q514 174 561.5 116.5Q609 59 711 59Q749 59 777 65V240H651V308H853V13Q834 7 812 2Q792 -2 767 -5.5Q742 -9 713 -9Q625 -9 562 23Q499 55 470 116Q434 54 374 27Q314 0 244 0H81ZM245 69Q286 69 320 81Q354 93 379 118.5Q404 144 417.5 182.5Q431 221 431 275Q431 329 417 368Q403 407 378.5 432Q354 457 320 469Q286 481 245 481H163V69Z" glyph-name="D_G.sc" horiz-adv-x="913" /><glyph d="M825 801Q800 801 782.5 817.5Q765 834 765 863Q765 892 782.5 908.5Q800 925 826 925Q852 925 870 909Q888 893 888 864Q888 834 870 817.5Q852 801 825 801ZM91 716H290Q384 716 459.5 678.5Q535 641 576 558Q596 602 626.5 633.5Q657 665 695 685.5Q733 706 776.5 716Q820 726 865 726Q908 726 939.5 721.5Q971 717 992 711Q1016 704 1033 696V624Q1012 632 986 638Q963 644 933.5 648Q904 652 867 652Q799 652 752 631Q705 610 675.5 571.5Q646 533 632.5 479Q619 425 619 359Q619 291 634 236.5Q649 182 680 143.5Q711 105 759.5 84.5Q808 64 874 64Q922 64 964 73V321H797V397H1045V18Q1023 10 996 4Q971 -2 941 -6Q911 -10 875 -10Q764 -10 686.5 33Q609 76 574 159Q552 116 520.5 86Q489 56 452.5 37Q416 18 374.5 9Q333 0 290 0H91ZM290 77Q343 77 387.5 93Q432 109 464.5 143Q497 177 515 230Q533 283 533 358Q533 433 514.5 486.5Q496 540 464 573.5Q432 607 387.5 623Q343 639 290 639H177V77Z" glyph-name="D_Gdotaccent" horiz-adv-x="1111" /><glyph d="M673 615Q650 615 635.5 628.5Q621 642 621 665Q621 688 636 701.5Q651 715 674 715Q698 715 712.5 701.5Q727 688 727 666Q727 643 712.5 629Q698 615 673 615ZM81 550H244Q319 550 379.5 522Q440 494 473 434Q505 499 568 528.5Q631 558 705 558Q740 558 765.5 554.5Q791 551 809 547Q829 541 843 535V470Q826 476 805 481Q786 485 762.5 488Q739 491 710 491Q657 491 620 475.5Q583 460 559.5 431.5Q536 403 525 363Q514 323 514 274Q514 174 561.5 116.5Q609 59 711 59Q749 59 777 65V240H651V308H853V13Q834 7 812 2Q792 -2 767 -5.5Q742 -9 713 -9Q625 -9 562 23Q499 55 470 116Q434 54 374 27Q314 0 244 0H81ZM245 69Q286 69 320 81Q354 93 379 118.5Q404 144 417.5 182.5Q431 221 431 275Q431 329 417 368Q403 407 378.5 432Q354 457 320 469Q286 481 245 481H163V69Z" glyph-name="D_Gdotaccent.sc" horiz-adv-x="913" /><glyph d="M91 716H290Q387 716 466 678.5Q545 641 586 558Q621 641 682 683.5Q743 726 833 726Q976 726 1049.5 633Q1123 540 1123 358Q1123 176 1049.5 83Q976 -10 833 -10Q745 -10 677.5 32Q610 74 581 149Q558 109 526 80.5Q494 52 456.5 34Q419 16 376.5 8Q334 0 290 0H91ZM833 64Q936 64 985 136Q1034 208 1034 358Q1034 508 985 580Q936 652 833 652Q730 652 681 580Q632 508 632 358Q632 208 681 136Q730 64 833 64ZM290 77Q345 77 391.5 93Q438 109 471.5 143Q505 177 524 230Q543 283 543 358Q543 433 524 486.5Q505 540 471.5 573.5Q438 607 391.5 623Q345 639 290 639H177V77Z" glyph-name="D_O" horiz-adv-x="1178" /><glyph d="M81 550H244Q321 550 383 522.5Q445 495 478 435Q507 495 556 526.5Q605 558 676 558Q794 558 854 485.5Q914 413 914 275Q914 136 853.5 64Q793 -8 676 -8Q606 -8 553 22.5Q500 53 475 109Q438 50 376.5 25Q315 0 244 0H81ZM676 59Q755 59 792 112.5Q829 166 829 275Q829 384 792.5 437.5Q756 491 676 491Q597 491 560 437.5Q523 384 523 275Q523 166 560 112.5Q597 59 676 59ZM245 69Q287 69 322.5 81Q358 93 383.5 118.5Q409 144 423.5 182.5Q438 221 438 275Q438 329 423.5 368Q409 407 383.5 432Q358 457 322.5 469Q287 481 245 481H163V69Z" glyph-name="D_O.sc" horiz-adv-x="965" /><glyph d="M91 716H290Q387 716 466 678.5Q545 641 586 558Q621 641 682 683.5Q743 726 833 726Q976 726 1049.5 633Q1123 540 1123 358Q1123 176 1049.5 83Q976 -10 833 -10Q745 -10 677.5 32Q610 74 581 149Q558 109 526 80.5Q494 52 456.5 34Q419 16 376.5 8Q334 0 290 0H91ZM833 64Q936 64 985 136Q1034 208 1034 358Q1034 508 985 580Q936 652 833 652Q730 652 681 580Q632 508 632 358Q632 208 681 136Q730 64 833 64ZM290 77Q345 77 391.5 93Q438 109 471.5 143Q505 177 524 230Q543 283 543 358Q543 433 524 486.5Q505 540 471.5 573.5Q438 607 391.5 623Q345 639 290 639H177V77ZM791 833 1006 938 1040 860 814 778Z" glyph-name="D_Oacute" horiz-adv-x="1178" /><glyph d="M637 644 811 725 841 660 658 598ZM81 550H244Q321 550 383 522.5Q445 495 478 435Q507 495 556 526.5Q605 558 676 558Q794 558 854 485.5Q914 413 914 275Q914 136 853.5 64Q793 -8 676 -8Q606 -8 553 22.5Q500 53 475 109Q438 50 376.5 25Q315 0 244 0H81ZM676 59Q755 59 792 112.5Q829 166 829 275Q829 384 792.5 437.5Q756 491 676 491Q597 491 560 437.5Q523 384 523 275Q523 166 560 112.5Q597 59 676 59ZM245 69Q287 69 322.5 81Q358 93 383.5 118.5Q409 144 423.5 182.5Q438 221 438 275Q438 329 423.5 368Q409 407 383.5 432Q358 457 322.5 469Q287 481 245 481H163V69Z" glyph-name="D_Oacute.sc" horiz-adv-x="965" /><glyph d="M91 716H290Q387 716 466 678.5Q545 641 586 558Q621 641 682 683.5Q743 726 833 726Q976 726 1049.5 633Q1123 540 1123 358Q1123 176 1049.5 83Q976 -10 833 -10Q745 -10 677.5 32Q610 74 581 149Q558 109 526 80.5Q494 52 456.5 34Q419 16 376.5 8Q334 0 290 0H91ZM833 64Q936 64 985 136Q1034 208 1034 358Q1034 508 985 580Q936 652 833 652Q730 652 681 580Q632 508 632 358Q632 208 681 136Q730 64 833 64ZM290 77Q345 77 391.5 93Q438 109 471.5 143Q505 177 524 230Q543 283 543 358Q543 433 524 486.5Q505 540 471.5 573.5Q438 607 391.5 623Q345 639 290 639H177V77ZM674 822 815 938H870L1012 822L981 778L843 864L704 778Z" glyph-name="D_Ocircumflex" horiz-adv-x="1178" /><glyph d="M545 634 658 725H708L822 634L794 598L683 664L572 598ZM81 550H244Q321 550 383 522.5Q445 495 478 435Q507 495 556 526.5Q605 558 676 558Q794 558 854 485.5Q914 413 914 275Q914 136 853.5 64Q793 -8 676 -8Q606 -8 553 22.5Q500 53 475 109Q438 50 376.5 25Q315 0 244 0H81ZM676 59Q755 59 792 112.5Q829 166 829 275Q829 384 792.5 437.5Q756 491 676 491Q597 491 560 437.5Q523 384 523 275Q523 166 560 112.5Q597 59 676 59ZM245 69Q287 69 322.5 81Q358 93 383.5 118.5Q409 144 423.5 182.5Q438 221 438 275Q438 329 423.5 368Q409 407 383.5 432Q358 457 322.5 469Q287 481 245 481H163V69Z" glyph-name="D_Ocircumflex.sc" horiz-adv-x="965" /><glyph d="M91 716H290Q387 716 466 678.5Q545 641 586 558Q621 641 682 683.5Q743 726 833 726Q976 726 1049.5 633Q1123 540 1123 358Q1123 176 1049.5 83Q976 -10 833 -10Q745 -10 677.5 32Q610 74 581 149Q558 109 526 80.5Q494 52 456.5 34Q419 16 376.5 8Q334 0 290 0H91ZM833 64Q936 64 985 136Q1034 208 1034 358Q1034 508 985 580Q936 652 833 652Q730 652 681 580Q632 508 632 358Q632 208 681 136Q730 64 833 64ZM290 77Q345 77 391.5 93Q438 109 471.5 143Q505 177 524 230Q543 283 543 358Q543 433 524 486.5Q505 540 471.5 573.5Q438 607 391.5 623Q345 639 290 639H177V77ZM749 801Q726 801 708.5 817Q691 833 691 861Q691 889 708.5 905Q726 921 750 921Q775 921 792.5 905Q810 889 810 862Q810 833 792.5 817Q775 801 749 801ZM934 801Q911 801 893.5 817Q876 833 876 861Q876 889 893.5 905Q911 921 935 921Q960 921 977.5 905Q995 889 995 862Q995 833 977.5 817Q960 801 934 801Z" glyph-name="D_Odieresis" horiz-adv-x="1178" /><glyph d="M607 615Q585 615 571 628.5Q557 642 557 664Q557 686 571 699Q585 712 607 712Q630 712 644.5 699Q659 686 659 665Q659 642 644.5 628.5Q630 615 607 615ZM758 615Q736 615 722 628.5Q708 642 708 664Q708 686 722 699Q736 712 758 712Q781 712 795.5 699Q810 686 810 665Q810 642 795.5 628.5Q781 615 758 615ZM81 550H244Q321 550 383 522.5Q445 495 478 435Q507 495 556 526.5Q605 558 676 558Q794 558 854 485.5Q914 413 914 275Q914 136 853.5 64Q793 -8 676 -8Q606 -8 553 22.5Q500 53 475 109Q438 50 376.5 25Q315 0 244 0H81ZM676 59Q755 59 792 112.5Q829 166 829 275Q829 384 792.5 437.5Q756 491 676 491Q597 491 560 437.5Q523 384 523 275Q523 166 560 112.5Q597 59 676 59ZM245 69Q287 69 322.5 81Q358 93 383.5 118.5Q409 144 423.5 182.5Q438 221 438 275Q438 329 423.5 368Q409 407 383.5 432Q358 457 322.5 469Q287 481 245 481H163V69Z" glyph-name="D_Odieresis.sc" horiz-adv-x="965" /><glyph d="M91 716H290Q387 716 466 678.5Q545 641 586 558Q621 641 682 683.5Q743 726 833 726Q976 726 1049.5 633Q1123 540 1123 358Q1123 176 1049.5 83Q976 -10 833 -10Q745 -10 677.5 32Q610 74 581 149Q558 109 526 80.5Q494 52 456.5 34Q419 16 376.5 8Q334 0 290 0H91ZM833 64Q936 64 985 136Q1034 208 1034 358Q1034 508 985 580Q936 652 833 652Q730 652 681 580Q632 508 632 358Q632 208 681 136Q730 64 833 64ZM290 77Q345 77 391.5 93Q438 109 471.5 143Q505 177 524 230Q543 283 543 358Q543 433 524 486.5Q505 540 471.5 573.5Q438 607 391.5 623Q345 639 290 639H177V77ZM655 860 689 938 904 833 881 778Z" glyph-name="D_Ograve" horiz-adv-x="1178" /><glyph d="M537 660 566 725 741 644 720 598ZM81 550H244Q321 550 383 522.5Q445 495 478 435Q507 495 556 526.5Q605 558 676 558Q794 558 854 485.5Q914 413 914 275Q914 136 853.5 64Q793 -8 676 -8Q606 -8 553 22.5Q500 53 475 109Q438 50 376.5 25Q315 0 244 0H81ZM676 59Q755 59 792 112.5Q829 166 829 275Q829 384 792.5 437.5Q756 491 676 491Q597 491 560 437.5Q523 384 523 275Q523 166 560 112.5Q597 59 676 59ZM245 69Q287 69 322.5 81Q358 93 383.5 118.5Q409 144 423.5 182.5Q438 221 438 275Q438 329 423.5 368Q409 407 383.5 432Q358 457 322.5 469Q287 481 245 481H163V69Z" glyph-name="D_Ograve.sc" horiz-adv-x="965" /><glyph d="M91 716H290Q387 716 466 678.5Q545 641 586 558Q621 641 682 683.5Q743 726 833 726Q976 726 1049.5 633Q1123 540 1123 358Q1123 176 1049.5 83Q976 -10 833 -10Q745 -10 677.5 32Q610 74 581 149Q558 109 526 80.5Q494 52 456.5 34Q419 16 376.5 8Q334 0 290 0H91ZM833 64Q936 64 985 136Q1034 208 1034 358Q1034 508 985 580Q936 652 833 652Q730 652 681 580Q632 508 632 358Q632 208 681 136Q730 64 833 64ZM290 77Q345 77 391.5 93Q438 109 471.5 143Q505 177 524 230Q543 283 543 358Q543 433 524 486.5Q505 540 471.5 573.5Q438 607 391.5 623Q345 639 290 639H177V77ZM712 815 840 973 905 919 763 778ZM843 833 1058 938 1092 860 866 778Z" glyph-name="D_Ohungarumlaut" horiz-adv-x="1178" /><glyph d="M575 628 677 751 734 707 619 598ZM686 642 855 724 886 661 707 598ZM81 550H244Q321 550 383 522.5Q445 495 478 435Q507 495 556 526.5Q605 558 676 558Q794 558 854 485.5Q914 413 914 275Q914 136 853.5 64Q793 -8 676 -8Q606 -8 553 22.5Q500 53 475 109Q438 50 376.5 25Q315 0 244 0H81ZM676 59Q755 59 792 112.5Q829 166 829 275Q829 384 792.5 437.5Q756 491 676 491Q597 491 560 437.5Q523 384 523 275Q523 166 560 112.5Q597 59 676 59ZM245 69Q287 69 322.5 81Q358 93 383.5 118.5Q409 144 423.5 182.5Q438 221 438 275Q438 329 423.5 368Q409 407 383.5 432Q358 457 322.5 469Q287 481 245 481H163V69Z" glyph-name="D_Ohungarumlaut.sc" horiz-adv-x="965" /><glyph d="M632 358Q632 230 668 158L950 617Q904 652 833 652Q730 652 681 580Q632 508 632 358ZM290 77Q345 77 391.5 93Q438 109 471.5 143Q505 177 524 230Q543 283 543 358Q543 433 524 486.5Q505 540 471.5 573.5Q438 607 391.5 623Q345 639 290 639H177V77ZM833 64Q936 64 985 136Q1034 208 1034 358Q1034 488 997 559L715 100Q760 64 833 64ZM833 -10Q742 -10 674 34L644 -15H561L621 81Q597 109 581 149Q558 109 526 80.5Q494 52 456.5 34Q419 16 376.5 8Q334 0 290 0H91V716H290Q387 716 466 678.5Q545 641 586 558Q621 641 682 683.5Q743 726 833 726Q928 726 992 684L1021 731H1104L1046 637Q1123 543 1123 358Q1123 176 1049.5 83Q976 -10 833 -10Z" glyph-name="D_Oslash" horiz-adv-x="1178" /><glyph d="M523 275Q523 184 549 130L766 464Q732 491 676 491Q597 491 560 437.5Q523 384 523 275ZM245 69Q287 69 322.5 81Q358 93 383.5 118.5Q409 144 423.5 182.5Q438 221 438 275Q438 329 423.5 368Q409 407 383.5 432Q358 457 322.5 469Q287 481 245 481H163V69ZM676 59Q755 59 792 112.5Q829 166 829 275Q829 364 805 415L589 83Q624 59 676 59ZM676 -8Q604 -8 551 24L526 -14H453L504 63Q495 73 488 84.5Q481 96 475 109Q438 50 376.5 25Q315 0 244 0H81V550H244Q321 550 383 522.5Q445 495 478 435Q507 495 556 526.5Q605 558 676 558Q752 558 805 526L830 564H903L852 487Q914 414 914 275Q914 136 853.5 64Q793 -8 676 -8Z" glyph-name="D_Oslash.sc" horiz-adv-x="972" /><glyph d="M91 716H290Q387 716 466 678.5Q545 641 586 558Q621 641 682 683.5Q743 726 833 726Q976 726 1049.5 633Q1123 540 1123 358Q1123 176 1049.5 83Q976 -10 833 -10Q745 -10 677.5 32Q610 74 581 149Q558 109 526 80.5Q494 52 456.5 34Q419 16 376.5 8Q334 0 290 0H91ZM833 64Q936 64 985 136Q1034 208 1034 358Q1034 508 985 580Q936 652 833 652Q730 652 681 580Q632 508 632 358Q632 208 681 136Q730 64 833 64ZM290 77Q345 77 391.5 93Q438 109 471.5 143Q505 177 524 230Q543 283 543 358Q543 433 524 486.5Q505 540 471.5 573.5Q438 607 391.5 623Q345 639 290 639H177V77ZM685 804Q689 838 700 864Q710 888 728.5 906Q747 924 780 924Q807 924 824.5 913Q842 902 856 891Q872 880 884 870Q896 860 910 860Q920 860 926.5 867.5Q933 875 936 884Q940 895 942 908H1002Q999 876 988 850Q979 826 960.5 809Q942 792 908 792Q884 792 867 803Q850 814 835 825Q821 835 808 845.5Q795 856 781 856Q769 856 762 848Q755 840 751 830Q747 819 745 804Z" glyph-name="D_Otilde" horiz-adv-x="1178" /><glyph d="M551 618Q551 621 554 636.5Q557 652 565.5 669Q574 686 590 700Q606 714 632 714Q654 714 667.5 706Q681 698 694 690Q707 681 716.5 673.5Q726 666 738 666Q746 666 751 671.5Q756 677 759 684Q763 692 764 702H816Q816 699 813.5 684Q811 669 803 652.5Q795 636 779.5 622.5Q764 609 738 609Q718 609 704.5 617Q691 625 678 633Q665 641 655 648.5Q645 656 633 656Q624 656 618 650Q612 644 609 637Q605 629 604 618ZM81 550H244Q321 550 383 522.5Q445 495 478 435Q507 495 556 526.5Q605 558 676 558Q794 558 854 485.5Q914 413 914 275Q914 136 853.5 64Q793 -8 676 -8Q606 -8 553 22.5Q500 53 475 109Q438 50 376.5 25Q315 0 244 0H81ZM676 59Q755 59 792 112.5Q829 166 829 275Q829 384 792.5 437.5Q756 491 676 491Q597 491 560 437.5Q523 384 523 275Q523 166 560 112.5Q597 59 676 59ZM245 69Q287 69 322.5 81Q358 93 383.5 118.5Q409 144 423.5 182.5Q438 221 438 275Q438 329 423.5 368Q409 407 383.5 432Q358 457 322.5 469Q287 481 245 481H163V69Z" glyph-name="D_Otilde.sc" horiz-adv-x="965" /><glyph d="M92 716H291Q446 716 529.5 627Q613 538 613 358Q613 179 529.5 89.5Q446 0 291 0H92ZM291 77Q344 77 387 93Q430 109 460.5 143Q491 177 507.5 230Q524 283 524 358Q524 433 507.5 486.5Q491 540 460 573.5Q429 607 386.5 623Q344 639 291 639H178V77ZM144 894 174 938 313 852 451 938 482 894 340 778H285Z" glyph-name="Dcaron" horiz-adv-x="668" unicode="&#270;" /><glyph d="M124 688 150 725 262 659 373 725 401 688 286 598H237ZM81 0V550H243Q372 550 440 479.5Q508 409 508 275Q508 141 440 70.5Q372 0 243 0ZM163 69H244Q326 69 374.5 118.5Q423 168 423 275Q423 383 374 432Q325 481 244 481H163Z" glyph-name="Dcaron.sc" horiz-adv-x="558" /><glyph d="M91 716H290Q387 716 466 678.5Q545 641 586 558Q621 641 682 683.5Q743 726 833 726Q976 726 1049.5 633Q1123 540 1123 358Q1123 176 1049.5 83Q976 -10 833 -10Q745 -10 677.5 32Q610 74 581 149Q558 109 526 80.5Q494 52 456.5 34Q419 16 376.5 8Q334 0 290 0H91ZM833 64Q936 64 985 136Q1034 208 1034 358Q1034 508 985 580Q936 652 833 652Q730 652 681 580Q632 508 632 358Q632 208 681 136Q730 64 833 64ZM290 77Q345 77 391.5 93Q438 109 471.5 143Q505 177 524 230Q543 283 543 358Q543 433 524 486.5Q505 540 471.5 573.5Q438 607 391.5 623Q345 639 290 639H177V77ZM143 894 173 938 312 852 450 938 481 894 339 778H284Z" glyph-name="Dcaron_O" horiz-adv-x="1178" /><glyph d="M124 688 150 725 262 659 373 725 401 688 286 598H237ZM81 550H244Q321 550 383 522.5Q445 495 478 435Q507 495 556 526.5Q605 558 676 558Q794 558 854 485.5Q914 413 914 275Q914 136 853.5 64Q793 -8 676 -8Q606 -8 553 22.5Q500 53 475 109Q438 50 376.5 25Q315 0 244 0H81ZM676 59Q755 59 792 112.5Q829 166 829 275Q829 384 792.5 437.5Q756 491 676 491Q597 491 560 437.5Q523 384 523 275Q523 166 560 112.5Q597 59 676 59ZM245 69Q287 69 322.5 81Q358 93 383.5 118.5Q409 144 423.5 182.5Q438 221 438 275Q438 329 423.5 368Q409 407 383.5 432Q358 457 322.5 469Q287 481 245 481H163V69Z" glyph-name="Dcaron_O.sc" horiz-adv-x="965" /><glyph d="M104 0V330H14V407H104V716H303Q458 716 541.5 627Q625 538 625 358Q625 179 541.5 89.5Q458 0 303 0ZM303 77Q356 77 399 93Q442 109 472.5 143Q503 177 519.5 230Q536 283 536 358Q536 433 519.5 486.5Q503 540 472 573.5Q441 607 398.5 623Q356 639 303 639H190V407H304V330H190V77Z" glyph-name="Dcroat" horiz-adv-x="680" unicode="&#272;" /><glyph d="M90 0V250H21V314H90V550H252Q381 550 449 479.5Q517 409 517 275Q517 141 449 70.5Q381 0 252 0ZM254 69Q335 69 383.5 118.5Q432 168 432 275Q432 383 383.5 432Q335 481 254 481H172V314H263V250H172V69Z" glyph-name="Dcroat.sc" horiz-adv-x="567" /><glyph d="M24 0 53 76 299 719H359L603 78L633 0ZM517 77 326 581 133 77Z" glyph-name="Delta" horiz-adv-x="657" unicode="&#916;" /><glyph d="M29 60 226 552H288L483 61V0H29ZM401 66 254 439 106 66Z" glyph-name="Delta.sc" horiz-adv-x="513" /><glyph d="M92 716H470V639H178V402H422V325H178V77H470V0H92Z" glyph-name="E" horiz-adv-x="522" unicode="E" /><glyph d="M81 550H396V481H163V313H356V245H163V69H396V0H81Z" glyph-name="E.sc" horiz-adv-x="446" /><glyph d="M864 252 746 584 632 252ZM91 716H469V639H177V402H421V325H177V77H488L717 720H785L1040 0H953L890 177H606L546 0H91Z" glyph-name="E_A" horiz-adv-x="1053" /><glyph d="M707 196 618 440 532 196ZM81 550H396V481H163V313H356V245H163V69H410L587 553H659L860 0H777L730 129H509L464 0H81Z" glyph-name="E_A.sc" horiz-adv-x="877" /><glyph d="M864 252 746 584 632 252ZM91 716H469V639H177V402H421V325H177V77H488L717 720H785L1040 0H953L890 177H606L546 0H91ZM691 833 906 938 940 860 714 778Z" glyph-name="E_Aacute" horiz-adv-x="1053" /><glyph d="M568 644 743 725 772 660 589 597ZM707 196 618 440 532 196ZM81 550H396V481H163V313H356V245H163V69H410L587 553H659L860 0H777L730 129H509L464 0H81Z" glyph-name="E_Aacute.sc" horiz-adv-x="877" /><glyph d="M864 252 746 584 632 252ZM91 716H469V639H177V402H421V325H177V77H488L717 720H785L1040 0H953L890 177H606L546 0H91ZM750 785Q682 785 643.5 826Q605 867 605 930H677Q677 904 694.5 881Q712 858 750 858Q788 858 805.5 881Q823 904 823 930H895Q895 867 856.5 826Q818 785 750 785Z" glyph-name="E_Abreve" horiz-adv-x="1053" /><glyph d="M622 604Q568 604 535.5 635Q503 666 502 717H566Q566 700 578.5 681.5Q591 663 622 663Q653 663 666 681.5Q679 700 679 717H743Q742 666 709 635Q676 604 622 604ZM707 196 618 440 532 196ZM81 550H396V481H163V313H356V245H163V69H410L587 553H659L860 0H777L730 129H509L464 0H81Z" glyph-name="E_Abreve.sc" horiz-adv-x="877" /><glyph d="M864 252 746 584 632 252ZM91 716H469V639H177V402H421V325H177V77H488L717 720H785L1040 0H953L890 177H606L546 0H91ZM581 822 722 938H777L919 822L888 778L750 864L611 778Z" glyph-name="E_Acircumflex" horiz-adv-x="1053" /><glyph d="M484 634 598 725H647L761 634L734 598L622 664L511 598ZM707 196 618 440 532 196ZM81 550H396V481H163V313H356V245H163V69H410L587 553H659L860 0H777L730 129H509L464 0H81Z" glyph-name="E_Acircumflex.sc" horiz-adv-x="877" /><glyph d="M864 252 746 584 632 252ZM91 716H469V639H177V402H421V325H177V77H488L717 720H785L1040 0H953L890 177H606L546 0H91ZM656 801Q633 801 615.5 817Q598 833 598 861Q598 889 615.5 905Q633 921 657 921Q682 921 699.5 905Q717 889 717 862Q717 833 699.5 817Q682 801 656 801ZM841 801Q818 801 800.5 817Q783 833 783 861Q783 889 800.5 905Q818 921 842 921Q867 921 884.5 905Q902 889 902 862Q902 833 884.5 817Q867 801 841 801Z" glyph-name="E_Adieresis" horiz-adv-x="1053" /><glyph d="M546 615Q524 615 510 628.5Q496 642 496 664Q496 686 510 699Q524 712 546 712Q569 712 583.5 699Q598 686 598 665Q598 642 583.5 628.5Q569 615 546 615ZM697 615Q675 615 661 628.5Q647 642 647 664Q647 686 661 699Q675 712 698 712Q721 712 735 699Q749 686 749 665Q749 642 734.5 628.5Q720 615 697 615ZM707 196 618 440 532 196ZM81 550H396V481H163V313H356V245H163V69H410L587 553H659L860 0H777L730 129H509L464 0H81Z" glyph-name="E_Adieresis.sc" horiz-adv-x="877" /><glyph d="M864 252 746 584 632 252ZM91 716H469V639H177V402H421V325H177V77H488L717 720H785L1040 0H953L890 177H606L546 0H91ZM561 860 595 938 810 833 787 778Z" glyph-name="E_Agrave" horiz-adv-x="1053" /><glyph d="M473 660 503 725 677 644 656 598ZM707 196 618 440 532 196ZM81 550H396V481H163V313H356V245H163V69H410L587 553H659L860 0H777L730 129H509L464 0H81Z" glyph-name="E_Agrave.sc" horiz-adv-x="877" /><glyph d="M864 252 746 584 632 252ZM91 716H469V639H177V402H421V325H177V77H488L717 720H785L1040 0H953L890 177H606L546 0H91ZM608 896H888V819H608Z" glyph-name="E_Amacron" horiz-adv-x="1053" /><glyph d="M508 693H734V629H508ZM707 196 618 440 532 196ZM81 550H396V481H163V313H356V245H163V69H410L587 553H659L860 0H777L730 129H509L464 0H81Z" glyph-name="E_Amacron.sc" horiz-adv-x="877" /><glyph d="M864 252 746 584 632 252ZM953 0 890 177H606L546 0H91V716H469V639H177V402H421V325H177V77H488L717 720H785L1040 0Q984 -32 966.5 -61.5Q949 -91 949 -112Q949 -156 998 -156Q1012 -156 1024 -151Q1036 -146 1045 -141Q1055 -134 1063 -125V-185Q1054 -196 1040 -205Q1028 -212 1011 -218Q994 -224 969 -224Q924 -224 896 -197Q868 -170 868 -128Q868 -112 872.5 -93.5Q877 -75 887 -58Q897 -41 913.5 -26Q930 -11 954 0Z" glyph-name="E_Aogonek" horiz-adv-x="1053" /><glyph d="M777 0 730 129H509L464 0H81V550H396V481H163V313H356V245H163V69H410L587 553H659L860 0Q817 -23 802.5 -45Q788 -67 788 -84Q788 -118 827 -118Q849 -118 863 -107Q877 -96 879 -95V-143Q878 -144 872.5 -148.5Q867 -153 857.5 -158.5Q848 -164 834 -168.5Q820 -173 801 -173Q763 -173 739.5 -151.5Q716 -130 716 -98Q716 -71 732 -43Q748 -15 786 0ZM707 196 618 440 532 196Z" glyph-name="E_Aogonek.sc" horiz-adv-x="877" /><glyph d="M864 252 746 584 632 252ZM91 716H469V639H177V402H421V325H177V77H488L717 720H785L1040 0H953L890 177H606L546 0H91ZM748 769Q697 769 665 793.5Q633 818 633 860Q633 900 665 926Q697 952 748 952Q799 952 832 926Q865 900 865 860Q865 818 833.5 793.5Q802 769 748 769ZM748 821Q771 821 786 831.5Q801 842 801 862Q801 879 785.5 889.5Q770 900 748 900Q725 900 711 889.5Q697 879 697 862Q697 842 711 831.5Q725 821 748 821Z" glyph-name="E_Aring" horiz-adv-x="1053" /><glyph d="M621 592Q579 592 553 611Q527 630 527 663Q527 695 553 715Q579 735 621 735Q663 735 690 715Q717 695 717 663Q717 630 691 611Q665 592 621 592ZM621 634Q638 634 650 642Q662 650 662 664Q662 678 650 685.5Q638 693 621 693Q603 693 592 685.5Q581 678 581 664Q581 650 592 642Q603 634 621 634ZM707 196 618 440 532 196ZM81 550H396V481H163V313H356V245H163V69H410L587 553H659L860 0H777L730 129H509L464 0H81Z" glyph-name="E_Aring.sc" horiz-adv-x="877" /><glyph d="M864 252 746 584 632 252ZM91 716H469V639H177V402H421V325H177V77H488L717 720H785L1040 0H953L890 177H606L546 0H91ZM594 804Q598 838 609 864Q619 888 637.5 906Q656 924 689 924Q716 924 733.5 913Q751 902 765 891Q781 880 793 870Q805 860 819 860Q829 860 835.5 867.5Q842 875 845 884Q849 895 851 908H911Q908 876 897 850Q888 826 869.5 809Q851 792 817 792Q793 792 776 803Q759 814 744 825Q730 835 717 845.5Q704 856 690 856Q678 856 671 848Q664 840 660 830Q656 819 654 804Z" glyph-name="E_Atilde" horiz-adv-x="1053" /><glyph d="M493 618Q493 621 495.5 636.5Q498 652 506.5 669Q515 686 531 700Q547 714 573 714Q595 714 609 706Q623 698 635 690Q649 681 658.5 673.5Q668 666 679 666Q687 666 692 671.5Q697 677 700 684Q704 692 705 702H758Q758 699 755.5 684Q753 669 745 652.5Q737 636 721.5 622.5Q706 609 679 609Q659 609 645.5 617Q632 625 619 633Q607 641 596.5 648.5Q586 656 575 656Q565 656 559 650Q553 644 550 637Q547 629 545 618ZM707 196 618 440 532 196ZM81 550H396V481H163V313H356V245H163V69H410L587 553H659L860 0H777L730 129H509L464 0H81Z" glyph-name="E_Atilde.sc" horiz-adv-x="877" /><glyph d="M525 77V639H177V402H421V325H177V77ZM91 716H903V639H611V402H855V325H611V77H903V0H91Z" glyph-name="E_E" horiz-adv-x="955" /><glyph d="M81 550H753V481H519V313H713V245H519V69H753V0H81ZM437 69V481H163V313H356V245H163V69Z" glyph-name="E_E.sc" horiz-adv-x="804" /><glyph d="M618 833 833 938 867 860 641 778ZM525 77V639H177V402H421V325H177V77ZM91 716H903V639H611V402H855V325H611V77H903V0H91Z" glyph-name="E_Eacute" horiz-adv-x="955" /><glyph d="M518 644 692 725 722 660 539 598ZM81 550H753V481H519V313H713V245H519V69H753V0H81ZM437 69V481H163V313H356V245H163V69Z" glyph-name="E_Eacute.sc" horiz-adv-x="804" /><glyph d="M541 822 682 938H737L879 822L848 778L710 864L571 778ZM525 77V639H177V402H421V325H177V77ZM91 716H903V639H611V402H855V325H611V77H903V0H91Z" glyph-name="E_Ecircumflex" horiz-adv-x="955" /><glyph d="M455 634 568 725H617L732 634L704 598L593 664L481 598ZM81 550H753V481H519V313H713V245H519V69H753V0H81ZM437 69V481H163V313H356V245H163V69Z" glyph-name="E_Ecircumflex.sc" horiz-adv-x="804" /><glyph d="M625 801Q602 801 584.5 817Q567 833 567 861Q567 889 584.5 905Q602 921 626 921Q651 921 668.5 905Q686 889 686 862Q686 833 668.5 817Q651 801 625 801ZM810 801Q787 801 769.5 817Q752 833 752 861Q752 889 769.5 905Q787 921 811 921Q836 921 853.5 905Q871 889 871 862Q871 833 853.5 817Q836 801 810 801ZM525 77V639H177V402H421V325H177V77ZM91 716H903V639H611V402H855V325H611V77H903V0H91Z" glyph-name="E_Edieresis" horiz-adv-x="955" /><glyph d="M523 615Q501 615 487 628.5Q473 642 473 664Q473 686 487 699Q501 712 523 712Q546 712 560.5 699Q575 686 575 665Q575 642 560.5 628.5Q546 615 523 615ZM674 615Q652 615 638 628.5Q624 642 624 664Q624 686 638 699Q652 712 674 712Q697 712 711.5 699Q726 686 726 665Q726 642 711.5 628.5Q697 615 674 615ZM81 550H753V481H519V313H713V245H519V69H753V0H81ZM437 69V481H163V313H356V245H163V69Z" glyph-name="E_Edieresis.sc" horiz-adv-x="804" /><glyph d="M577 896H857V819H577ZM525 77V639H177V402H421V325H177V77ZM91 716H903V639H611V402H855V325H611V77H903V0H91Z" glyph-name="E_Emacron" horiz-adv-x="955" /><glyph d="M485 693H711V629H485ZM81 550H753V481H519V313H713V245H519V69H753V0H81ZM437 69V481H163V313H356V245H163V69Z" glyph-name="E_Emacron.sc" horiz-adv-x="804" /><glyph d="M525 77V639H177V402H421V325H177V77ZM91 716H903V639H611V402H855V325H611V77H903V0H91ZM832 -224Q787 -224 759 -197Q731 -170 731 -128Q731 -112 735.5 -93.5Q740 -75 750 -58Q760 -41 776.5 -26Q793 -11 817 0H903Q847 -32 829.5 -61.5Q812 -91 812 -112Q812 -156 861 -156Q875 -156 887 -151Q899 -146 908 -141Q918 -134 926 -125V-185Q917 -196 903 -205Q891 -212 874 -218Q857 -224 832 -224Z" glyph-name="E_Eogonek" horiz-adv-x="955" /><glyph d="M81 0V550H753V481H519V313H713V245H519V69H753V0Q709 -23 695 -45Q681 -67 681 -84Q681 -118 720 -118Q731 -118 740 -114.5Q749 -111 755.5 -107Q762 -103 766.5 -99Q771 -95 771 -95V-143Q770 -144 765 -148.5Q760 -153 750.5 -158.5Q741 -164 727 -168.5Q713 -173 694 -173Q656 -173 632.5 -151.5Q609 -130 609 -98Q609 -71 624.5 -43Q640 -15 678 0ZM437 69V481H163V313H356V245H163V69Z" glyph-name="E_Eogonek.sc" horiz-adv-x="804" /><glyph d="M92 716H470V639H178V402H422V325H178V77H470V0H92ZM185 833 400 938 434 860 208 778Z" glyph-name="Eacute" horiz-adv-x="522" unicode="&#201;" /><glyph d="M161 644 335 725 365 660 182 598ZM81 550H396V481H163V313H356V245H163V69H396V0H81Z" glyph-name="Eacute.sc" horiz-adv-x="446" /><glyph d="M864 252 746 584 632 252ZM91 716H469V639H177V402H421V325H177V77H488L717 720H785L1040 0H953L890 177H606L546 0H91ZM184 833 399 938 433 860 207 778Z" glyph-name="Eacute_A" horiz-adv-x="1053" /><glyph d="M161 644 335 725 365 660 182 598ZM707 196 618 440 532 196ZM81 550H396V481H163V313H356V245H163V69H410L587 553H659L860 0H777L730 129H509L464 0H81Z" glyph-name="Eacute_A.sc" horiz-adv-x="877" /><glyph d="M864 252 746 584 632 252ZM91 716H469V639H177V402H421V325H177V77H488L717 720H785L1040 0H953L890 177H606L546 0H91ZM691 833 906 938 940 860 714 778ZM184 833 399 938 433 860 207 778Z" glyph-name="Eacute_Aacute" horiz-adv-x="1053" /><glyph d="M568 644 743 725 772 660 589 597ZM161 644 335 725 365 660 182 598ZM707 196 618 440 532 196ZM81 550H396V481H163V313H356V245H163V69H410L587 553H659L860 0H777L730 129H509L464 0H81Z" glyph-name="Eacute_Aacute.sc" horiz-adv-x="877" /><glyph d="M864 252 746 584 632 252ZM91 716H469V639H177V402H421V325H177V77H488L717 720H785L1040 0H953L890 177H606L546 0H91ZM581 822 722 938H777L919 822L888 778L750 864L611 778ZM184 833 399 938 433 860 207 778Z" glyph-name="Eacute_Acircumflex" horiz-adv-x="1053" /><glyph d="M484 634 598 725H647L761 634L734 598L622 664L511 598ZM161 644 335 725 365 660 182 598ZM707 196 618 440 532 196ZM81 550H396V481H163V313H356V245H163V69H410L587 553H659L860 0H777L730 129H509L464 0H81Z" glyph-name="Eacute_Acircumflex.sc" horiz-adv-x="877" /><glyph d="M864 252 746 584 632 252ZM91 716H469V639H177V402H421V325H177V77H488L717 720H785L1040 0H953L890 177H606L546 0H91ZM748 769Q697 769 665 793.5Q633 818 633 860Q633 900 665 926Q697 952 748 952Q799 952 832 926Q865 900 865 860Q865 818 833.5 793.5Q802 769 748 769ZM748 821Q771 821 786 831.5Q801 842 801 862Q801 879 785.5 889.5Q770 900 748 900Q725 900 711 889.5Q697 879 697 862Q697 842 711 831.5Q725 821 748 821ZM184 833 399 938 433 860 207 778Z" glyph-name="Eacute_Aring" horiz-adv-x="1053" /><glyph d="M621 592Q579 592 553 611Q527 630 527 663Q527 695 553 715Q579 735 621 735Q663 735 690 715Q717 695 717 663Q717 630 691 611Q665 592 621 592ZM621 634Q638 634 650 642Q662 650 662 664Q662 678 650 685.5Q638 693 621 693Q603 693 592 685.5Q581 678 581 664Q581 650 592 642Q603 634 621 634ZM161 644 335 725 365 660 182 598ZM707 196 618 440 532 196ZM81 550H396V481H163V313H356V245H163V69H410L587 553H659L860 0H777L730 129H509L464 0H81Z" glyph-name="Eacute_Aring.sc" horiz-adv-x="877" /><glyph d="M184 833 399 938 433 860 207 778ZM525 77V639H177V402H421V325H177V77ZM91 716H903V639H611V402H855V325H611V77H903V0H91Z" glyph-name="Eacute_E" horiz-adv-x="955" /><glyph d="M161 644 335 725 365 660 182 598ZM81 550H753V481H519V313H713V245H519V69H753V0H81ZM437 69V481H163V313H356V245H163V69Z" glyph-name="Eacute_E.sc" horiz-adv-x="804" /><glyph d="M184 833 399 938 433 860 207 778ZM618 833 833 938 867 860 641 778ZM525 77V639H177V402H421V325H177V77ZM91 716H903V639H611V402H855V325H611V77H903V0H91Z" glyph-name="Eacute_Eacute" horiz-adv-x="955" /><glyph d="M518 644 692 725 722 660 539 598ZM161 644 335 725 365 660 182 598ZM81 550H753V481H519V313H713V245H519V69H753V0H81ZM437 69V481H163V313H356V245H163V69Z" glyph-name="Eacute_Eacute.sc" horiz-adv-x="804" /><glyph d="M184 833 399 938 433 860 207 778ZM555 860 589 938 804 833 781 778ZM525 77V639H177V402H421V325H177V77ZM91 716H903V639H611V402H855V325H611V77H903V0H91Z" glyph-name="Eacute_Egrave" horiz-adv-x="955" /><glyph d="M468 660 498 725 672 644 651 598ZM161 644 335 725 365 660 182 598ZM81 550H753V481H519V313H713V245H519V69H753V0H81ZM437 69V481H163V313H356V245H163V69Z" glyph-name="Eacute_Egrave.sc" horiz-adv-x="804" /><glyph d="M92 716H470V639H178V402H422V325H178V77H470V0H92ZM286 785Q218 785 179.5 826Q141 867 141 930H213Q213 904 230.5 881Q248 858 286 858Q324 858 341.5 881Q359 904 359 930H431Q431 867 392.5 826Q354 785 286 785Z" glyph-name="Ebreve" horiz-adv-x="522" unicode="&#276;" /><glyph d="M242 604Q188 604 155.5 635Q123 666 122 717H185Q185 700 198 681.5Q211 663 242 663Q273 663 286 681.5Q299 700 299 717H362Q361 666 328.5 635Q296 604 242 604ZM81 550H396V481H163V313H356V245H163V69H396V0H81Z" glyph-name="Ebreve.sc" horiz-adv-x="446" /><glyph d="M92 716H470V639H178V402H422V325H178V77H470V0H92ZM120 894 150 938 289 852 427 938 458 894 316 778H261Z" glyph-name="Ecaron" horiz-adv-x="522" unicode="&#282;" /><glyph d="M107 688 133 725 245 659 356 725 384 688 269 598H220ZM81 550H396V481H163V313H356V245H163V69H396V0H81Z" glyph-name="Ecaron.sc" horiz-adv-x="446" /><glyph d="M92 716H470V639H178V402H422V325H178V77H470V0H92ZM108 822 249 938H304L446 822L415 778L277 864L138 778Z" glyph-name="Ecircumflex" horiz-adv-x="522" unicode="&#202;" /><glyph d="M98 634 211 725H261L375 634L347 598L236 664L125 598ZM81 550H396V481H163V313H356V245H163V69H396V0H81Z" glyph-name="Ecircumflex.sc" horiz-adv-x="446" /><glyph d="M107 822 248 938H303L445 822L414 778L276 864L137 778ZM525 77V639H177V402H421V325H177V77ZM91 716H903V639H611V402H855V325H611V77H903V0H91Z" glyph-name="Ecircumflex_E" horiz-adv-x="955" /><glyph d="M98 634 211 725H261L375 634L347 598L236 664L125 598ZM81 550H753V481H519V313H713V245H519V69H753V0H81ZM437 69V481H163V313H356V245H163V69Z" glyph-name="Ecircumflex_E.sc" horiz-adv-x="804" /><glyph d="M192 801Q169 801 151.5 817Q134 833 134 861Q134 889 151.5 905Q169 921 193 921Q218 921 235.5 905Q253 889 253 862Q253 833 235.5 817Q218 801 192 801ZM377 801Q354 801 336.5 817Q319 833 319 861Q319 889 336.5 905Q354 921 378 921Q403 921 420.5 905Q438 889 438 862Q438 833 420.5 817Q403 801 377 801ZM92 716H470V639H178V402H422V325H178V77H470V0H92Z" glyph-name="Edieresis" horiz-adv-x="522" unicode="&#203;" /><glyph d="M166 615Q144 615 130 628.5Q116 642 116 664Q116 686 130 699Q144 712 166 712Q189 712 203.5 699Q218 686 218 665Q218 642 203.5 628.5Q189 615 166 615ZM317 615Q295 615 281 628.5Q267 642 267 664Q267 686 281 699Q295 712 318 712Q341 712 355 699Q369 686 369 665Q369 642 354.5 628.5Q340 615 317 615ZM81 550H396V481H163V313H356V245H163V69H396V0H81Z" glyph-name="Edieresis.sc" horiz-adv-x="446" /><glyph d="M864 252 746 584 632 252ZM91 716H469V639H177V402H421V325H177V77H488L717 720H785L1040 0H953L890 177H606L546 0H91ZM191 801Q168 801 150.5 817Q133 833 133 861Q133 889 150.5 905Q168 921 192 921Q217 921 234.5 905Q252 889 252 862Q252 833 234.5 817Q217 801 191 801ZM376 801Q353 801 335.5 817Q318 833 318 861Q318 889 335.5 905Q353 921 377 921Q402 921 419.5 905Q437 889 437 862Q437 833 419.5 817Q402 801 376 801Z" glyph-name="Edieresis_A" horiz-adv-x="1053" /><glyph d="M166 615Q144 615 130 628.5Q116 642 116 664Q116 686 130 699Q144 712 166 712Q189 712 203.5 699Q218 686 218 665Q218 642 203.5 628.5Q189 615 166 615ZM317 615Q295 615 281 628.5Q267 642 267 664Q267 686 281 699Q295 712 318 712Q341 712 355 699Q369 686 369 665Q369 642 354.5 628.5Q340 615 317 615ZM707 196 618 440 532 196ZM81 550H396V481H163V313H356V245H163V69H410L587 553H659L860 0H777L730 129H509L464 0H81Z" glyph-name="Edieresis_A.sc" horiz-adv-x="877" /><glyph d="M191 801Q168 801 150.5 817Q133 833 133 861Q133 889 150.5 905Q168 921 192 921Q217 921 234.5 905Q252 889 252 862Q252 833 234.5 817Q217 801 191 801ZM376 801Q353 801 335.5 817Q318 833 318 861Q318 889 335.5 905Q353 921 377 921Q402 921 419.5 905Q437 889 437 862Q437 833 419.5 817Q402 801 376 801ZM525 77V639H177V402H421V325H177V77ZM91 716H903V639H611V402H855V325H611V77H903V0H91Z" glyph-name="Edieresis_E" horiz-adv-x="955" /><glyph d="M166 615Q144 615 130 628.5Q116 642 116 664Q116 686 130 699Q144 712 166 712Q189 712 203.5 699Q218 686 218 665Q218 642 203.5 628.5Q189 615 166 615ZM317 615Q295 615 281 628.5Q267 642 267 664Q267 686 281 699Q295 712 318 712Q341 712 355 699Q369 686 369 665Q369 642 354.5 628.5Q340 615 317 615ZM81 550H753V481H519V313H713V245H519V69H753V0H81ZM437 69V481H163V313H356V245H163V69Z" glyph-name="Edieresis_E.sc" horiz-adv-x="804" /><glyph d="M92 716H470V639H178V402H422V325H178V77H470V0H92ZM285 801Q260 801 242.5 817.5Q225 834 225 863Q225 892 242.5 908.5Q260 925 286 925Q312 925 330 909Q348 893 348 864Q348 834 330 817.5Q312 801 285 801Z" glyph-name="Edotaccent" horiz-adv-x="522" unicode="&#278;" /><glyph d="M241 615Q218 615 203.5 628.5Q189 642 189 665Q189 688 203.5 701.5Q218 715 242 715Q266 715 280.5 701.5Q295 688 295 666Q295 643 280.5 629Q266 615 241 615ZM81 550H396V481H163V313H356V245H163V69H396V0H81Z" glyph-name="Edotaccent.sc" horiz-adv-x="446" /><glyph d="M284 801Q259 801 241.5 817.5Q224 834 224 863Q224 892 241.5 908.5Q259 925 285 925Q311 925 329 909Q347 893 347 864Q347 834 329 817.5Q311 801 284 801ZM525 77V639H177V402H421V325H177V77ZM91 716H903V639H611V402H855V325H611V77H903V0H91Z" glyph-name="Edotaccent_E" horiz-adv-x="955" /><glyph d="M241 615Q218 615 203.5 628.5Q189 642 189 665Q189 688 203.5 701.5Q218 715 242 715Q266 715 280.5 701.5Q295 688 295 666Q295 643 280.5 629Q266 615 241 615ZM81 550H753V481H519V313H713V245H519V69H753V0H81ZM437 69V481H163V313H356V245H163V69Z" glyph-name="Edotaccent_E.sc" horiz-adv-x="804" /><glyph d="M92 716H470V639H178V402H422V325H178V77H470V0H92ZM125 860 159 938 374 833 351 778Z" glyph-name="Egrave" horiz-adv-x="522" unicode="&#200;" /><glyph d="M113 660 143 725 317 644 296 598ZM81 550H396V481H163V313H356V245H163V69H396V0H81Z" glyph-name="Egrave.sc" horiz-adv-x="446" /><glyph d="M864 252 746 584 632 252ZM91 716H469V639H177V402H421V325H177V77H488L717 720H785L1040 0H953L890 177H606L546 0H91ZM124 860 158 938 373 833 350 778Z" glyph-name="Egrave_A" horiz-adv-x="1053" /><glyph d="M110 660 140 725 315 644 294 598ZM707 196 618 440 532 196ZM81 550H396V481H163V313H356V245H163V69H410L587 553H659L860 0H777L730 129H509L464 0H81Z" glyph-name="Egrave_A.sc" horiz-adv-x="877" /><glyph d="M124 860 158 938 373 833 350 778ZM525 77V639H177V402H421V325H177V77ZM91 716H903V639H611V402H855V325H611V77H903V0H91Z" glyph-name="Egrave_E" horiz-adv-x="955" /><glyph d="M111 660 141 725 316 644 295 598ZM81 550H753V481H519V313H713V245H519V69H753V0H81ZM437 69V481H163V313H356V245H163V69Z" glyph-name="Egrave_E.sc" horiz-adv-x="804" /><glyph d="M92 716H470V639H178V402H422V325H178V77H470V0H92ZM144 896H424V819H144Z" glyph-name="Emacron" horiz-adv-x="522" unicode="&#274;" /><glyph d="M128 693H354V629H128ZM81 550H396V481H163V313H356V245H163V69H396V0H81Z" glyph-name="Emacron.sc" horiz-adv-x="446" /><glyph d="M92 716H172L514 153V716H594V-63Q594 -146 556 -189.5Q518 -233 447 -233Q429 -233 413 -230Q397 -227 386 -224Q372 -220 360 -215V-142Q372 -147 385 -151Q396 -154 410 -156.5Q424 -159 439 -159Q478 -159 496 -136.5Q514 -114 514 -61V0L172 565V0H92Z" glyph-name="Eng" horiz-adv-x="686" unicode="&#330;" /><glyph d="M81 550H156L421 136V550H496V-38Q496 -107 463.5 -142Q431 -177 369 -177Q354 -177 341.5 -175Q329 -173 320 -171Q309 -168 300 -164V-98Q309 -102 318 -105Q327 -107 337.5 -109Q348 -111 360 -111Q391 -111 405 -94.5Q419 -78 420 -40V1L156 415V0H81Z" glyph-name="Eng.sc" horiz-adv-x="577" /><glyph d="M92 0V716H470V639H178V402H422V325H178V77H470V0Q414 -32 396.5 -61.5Q379 -91 379 -112Q379 -156 428 -156Q442 -156 454 -151Q466 -146 475 -141Q485 -134 493 -125V-185Q484 -196 470 -205Q458 -212 441 -218Q424 -224 399 -224Q354 -224 326 -197Q298 -170 298 -128Q298 -112 302.5 -93.5Q307 -75 317 -58Q327 -41 343.5 -26Q360 -11 384 0Z" glyph-name="Eogonek" horiz-adv-x="522" unicode="&#280;" /><glyph d="M81 0V550H396V481H163V313H356V245H163V69H396V0Q353 -23 338.5 -45Q324 -67 324 -84Q324 -118 363 -118Q385 -118 399 -107Q413 -96 415 -95V-143Q414 -144 408.5 -148.5Q403 -153 393.5 -158.5Q384 -164 370 -168.5Q356 -173 337 -173Q299 -173 275.5 -151.5Q252 -130 252 -98Q252 -71 268 -43Q284 -15 322 0Z" glyph-name="Eogonek.sc" horiz-adv-x="446" /><glyph d="M104 0V330H14V407H104V716H303Q458 716 541.5 627Q625 538 625 358Q625 179 541.5 89.5Q458 0 303 0ZM303 77Q356 77 399 93Q442 109 472.5 143Q503 177 519.5 230Q536 283 536 358Q536 433 519.5 486.5Q503 540 472 573.5Q441 607 398.5 623Q356 639 303 639H190V407H304V330H190V77Z" glyph-name="Eth" horiz-adv-x="680" unicode="&#208;" /><glyph d="M90 0V250H21V314H90V550H252Q381 550 449 479.5Q517 409 517 275Q517 141 449 70.5Q381 0 252 0ZM254 69Q335 69 383.5 118.5Q432 168 432 275Q432 383 383.5 432Q335 481 254 481H172V314H263V250H172V69Z" glyph-name="Eth.sc" horiz-adv-x="567" /><glyph d="M46 390V460H126Q137 521 160.5 570Q184 619 220.5 653.5Q257 688 306.5 707Q356 726 419 726Q458 726 487 722Q516 718 536 713Q558 707 574 699V624Q555 632 532 638Q510 644 482 648Q454 652 418 652Q333 652 283 600Q233 548 216 460H472L444 390ZM575 23Q558 14 535 7Q513 0 484.5 -5Q456 -10 417 -10Q289 -10 213 59.5Q137 129 120 260H46V330H420L391 260H211Q225 160 278.5 112Q332 64 418 64Q456 64 485.5 69.5Q515 75 535 81Q558 88 575 98Z" glyph-name="Euro" horiz-adv-x="631" unicode="&#8364;" /><glyph d="M52 267V337H133Q150 414 212 461Q274 508 369 508Q404 508 429 504Q454 500 470 495Q488 489 500 481V406Q485 414 466 420Q449 426 426 430Q403 434 373 434Q313 434 275.5 406.5Q238 379 224 337H438L410 267ZM501 23Q487 14 466 7Q446 0 419 -5Q392 -10 353 -10Q269 -10 209 30.5Q149 71 129 147H52V217H386L357 147H222Q239 105 278 84.5Q317 64 364 64Q396 64 421.5 69.5Q447 75 464 81Q485 88 501 98Z" glyph-name="Euro.old" horiz-adv-x="559" /><glyph d="M73 267V337H154Q171 414 233 461Q295 508 390 508Q425 508 450 504Q475 500 491 495Q509 489 521 481V406Q506 414 487 420Q470 426 447 430Q424 434 394 434Q334 434 296.5 406.5Q259 379 245 337H459L431 267ZM522 23Q508 14 487 7Q467 0 440 -5Q413 -10 374 -10Q290 -10 230 30.5Q170 71 150 147H73V217H407L378 147H243Q260 105 299 84.5Q338 64 385 64Q417 64 442.5 69.5Q468 75 485 81Q506 88 522 98Z" glyph-name="Euro.oldtab" horiz-adv-x="600" /><glyph d="M44 299V357H108Q127 449 186.5 504Q246 559 347 559Q379 559 403 555.5Q427 552 443 548Q462 543 475 537L469 471Q455 477 437 482Q420 486 398.5 489Q377 492 349 492Q284 492 245.5 455.5Q207 419 193 357H396L372 299ZM474 17Q460 10 441 5Q424 -1 401.5 -4.5Q379 -8 348 -8Q246 -8 182 44.5Q118 97 103 197H44V255H354L330 197H189Q202 128 243.5 93.5Q285 59 351 59Q380 59 403 63Q426 67 442 72Q460 77 474 84Z" glyph-name="Euro.sc" horiz-adv-x="526" /><glyph d="M31 390V460H111Q122 521 145.5 570Q169 619 205.5 653.5Q242 688 291.5 707Q341 726 404 726Q443 726 472 722Q501 718 521 713Q543 707 559 699V624Q540 632 517 638Q495 644 467 648Q439 652 403 652Q318 652 268 600Q218 548 201 460H457L429 390ZM560 23Q543 14 520 7Q498 0 469.5 -5Q441 -10 402 -10Q274 -10 198 59.5Q122 129 105 260H31V330H405L376 260H196Q210 160 263.5 112Q317 64 403 64Q441 64 470.5 69.5Q500 75 520 81Q543 88 560 98Z" glyph-name="Euro.tab" horiz-adv-x="600" /><glyph d="M92 716H469V639H178V402H421V325H178V0H92Z" glyph-name="F" horiz-adv-x="498" unicode="F" /><glyph d="M81 550H394V481H163V311H356V242H163V0H81Z" glyph-name="F.sc" horiz-adv-x="425" /><glyph d="M91 0V716H621V77H915V0H535V639H177V402H420V325H177V0Z" glyph-name="F_L" horiz-adv-x="928" /><glyph d="M81 0V550H523V69H756V0H441V481H163V311H353V242H163V0Z" glyph-name="F_L.sc" horiz-adv-x="774" /><glyph d="M811 523 847 606Q824 611 810 626Q796 641 796 665Q796 688 811.5 707Q827 726 856 726Q885 726 899.5 707.5Q914 689 914 662Q914 630 898.5 591Q883 552 857 504ZM91 0V716H621V77H915V0H535V639H177V402H420V325H177V0Z" glyph-name="F_Lcaron" horiz-adv-x="960" /><glyph d="M671 397 701 462Q680 466 668 478Q656 490 656 510Q656 530 669.5 545Q683 560 709 560Q734 560 747 545Q760 530 760 507Q760 481 746 450Q732 419 711 381ZM81 0V550H523V69H756V0H441V481H163V311H353V242H163V0Z" glyph-name="F_Lcaron.sc" horiz-adv-x="803" /><glyph d="M388 -10Q295 -10 231.5 17.5Q168 45 128.5 94Q89 143 71.5 210.5Q54 278 54 357Q54 435 72.5 502.5Q91 570 130.5 619.5Q170 669 231.5 697.5Q293 726 378 726Q421 726 452.5 721.5Q484 717 505 711Q530 704 547 696V624Q526 632 500 638Q477 644 447.5 648Q418 652 381 652Q316 652 270.5 631Q225 610 196.5 571.5Q168 533 155.5 479Q143 425 143 359Q143 291 157.5 236.5Q172 182 202 143.5Q232 105 278 84.5Q324 64 388 64Q436 64 478 73V321H311V397H559V18Q536 10 509 4Q484 -2 454 -6Q424 -10 388 -10Z" glyph-name="G" horiz-adv-x="625" unicode="G" /><glyph d="M327 -9Q251 -9 198.5 12Q146 33 113 70.5Q80 108 65 160Q50 212 50 273Q50 334 65.5 386Q81 438 114 476.5Q147 515 198 536.5Q249 558 319 558Q353 558 379 554.5Q405 551 422 547Q442 541 457 535V470Q440 476 419 481Q400 485 376.5 488Q353 491 324 491Q273 491 237 475.5Q201 460 178.5 431.5Q156 403 145.5 363Q135 323 135 274Q135 174 180.5 116.5Q226 59 325 59Q363 59 391 65V240H265V308H467V13Q448 7 426 2Q406 -2 381 -5.5Q356 -9 327 -9Z" glyph-name="G.sc" horiz-adv-x="527" /><glyph d="M388 -10Q295 -10 231.5 17.5Q168 45 128.5 94Q89 143 71.5 210.5Q54 278 54 357Q54 435 72.5 502.5Q91 570 130.5 619.5Q170 669 231.5 697.5Q293 726 378 726Q421 726 452.5 721.5Q484 717 505 711Q530 704 547 696V624Q526 632 500 638Q477 644 447.5 648Q418 652 381 652Q316 652 270.5 631Q225 610 196.5 571.5Q168 533 155.5 479Q143 425 143 359Q143 291 157.5 236.5Q172 182 202 143.5Q232 105 278 84.5Q324 64 388 64Q436 64 478 73V325H311V402H844V716H930V0H844V325H559V18Q536 10 509 4Q484 -2 454 -6Q424 -10 388 -10Z" glyph-name="G_H" horiz-adv-x="1021" /><glyph d="M327 -9Q251 -9 198.5 12Q146 33 113 70.5Q80 108 65 160Q50 212 50 273Q50 334 65.5 386Q81 438 114 476.5Q147 515 198 536.5Q249 558 319 558Q353 558 379 554.5Q405 551 422 547Q442 541 457 535V470Q440 476 420 481Q401 485 377 488Q353 491 324 491Q273 491 237 475.5Q201 460 178.5 431.5Q156 403 145.5 363Q135 323 135 274Q135 174 180.5 116.5Q226 59 325 59Q363 59 391 65V243H265V311H687V550H769V0H687V242H467V13Q448 7 426 2Q406 -2 381 -5.5Q356 -9 327 -9Z" glyph-name="G_H.sc" horiz-adv-x="850" /><glyph d="M388 -10Q295 -10 231.5 17.5Q168 45 128.5 94Q89 143 71.5 210.5Q54 278 54 357Q54 435 72.5 502.5Q91 570 130.5 619.5Q170 669 231.5 697.5Q293 726 378 726Q421 726 452.5 721.5Q484 717 505 711Q530 704 547 696V624Q526 632 500 638Q477 644 447.5 648Q418 652 381 652Q316 652 270.5 631Q225 610 196.5 571.5Q168 533 155.5 479Q143 425 143 359Q143 291 157.5 236.5Q172 182 202 143.5Q232 105 278 84.5Q324 64 388 64Q436 64 478 73V327H311V401H612L839 716H931L682 371L945 0H844L612 327H559V18Q536 10 509 4Q484 -2 454 -6Q424 -10 388 -10Z" glyph-name="G_K" horiz-adv-x="954" /><glyph d="M327 -9Q251 -9 198.5 12Q146 33 113 70.5Q80 108 65 160Q50 212 50 273Q50 334 65.5 386Q81 438 114 476.5Q147 515 198 536.5Q249 558 319 558Q353 558 379 554.5Q405 551 422 547Q442 541 457 535V470Q440 476 420 481Q401 485 377 488Q353 491 324 491Q273 491 237 475.5Q201 460 178.5 431.5Q156 403 145.5 363Q135 323 135 274Q135 174 180.5 116.5Q226 59 325 59Q363 59 391 65V244H265V310H506L682 550H769L573 283L781 0H686L506 244H467V13Q448 7 426 2Q406 -2 381 -5.5Q356 -9 327 -9Z" glyph-name="G_K.sc" horiz-adv-x="795" /><glyph d="M920 -7Q884 -7 854.5 5Q825 17 789 45L773 0H709V700H590Q547 700 547 660V624Q526 632 500 638Q477 644 447.5 648Q418 652 381 652Q316 652 270.5 631Q225 610 196.5 571.5Q168 533 155.5 479Q143 425 143 359Q143 291 157.5 236.5Q172 182 202 143.5Q232 105 278 84.5Q324 64 388 64Q436 64 478 73V321H311V397H559V18Q536 10 509 4Q484 -2 454 -6Q424 -10 388 -10Q295 -10 231.5 17.5Q168 45 128.5 94Q89 143 71.5 210.5Q54 278 54 357Q54 435 72.5 502.5Q91 570 130.5 619.5Q170 669 231.5 697.5Q293 726 378 726Q410 726 436.5 723.5Q463 721 483 716Q491 742 512 754Q533 766 564 766H794V444Q807 462 827 476Q845 489 870.5 498.5Q896 508 933 508Q986 508 1024.5 489Q1063 470 1087.5 436.5Q1112 403 1124 358Q1136 313 1136 261Q1136 133 1079 63Q1022 -7 920 -7ZM794 98Q808 88 825 81Q840 74 859.5 69Q879 64 903 64Q942 64 969.5 78Q997 92 1014.5 118Q1032 144 1039.5 180Q1047 216 1047 260Q1047 343 1014.5 389.5Q982 436 910 436Q881 436 859.5 426Q838 416 823 405Q806 391 794 373Z" glyph-name="G_b" horiz-adv-x="1186" /><glyph d="M559 18Q536 10 509 4Q484 -2 454 -6Q424 -10 388 -10Q295 -10 231.5 17.5Q168 45 128.5 94Q89 143 71.5 210.5Q54 278 54 357Q54 435 72.5 502.5Q91 570 130.5 619.5Q170 669 231.5 697.5Q293 726 378 726Q410 726 436.5 723.5Q463 721 483 716Q491 742 512 754Q533 766 564 766H794V441Q810 460 833 475Q854 488 883 498Q912 508 952 508Q999 508 1030.5 492.5Q1062 477 1082 450Q1102 423 1110.5 386Q1119 349 1119 306V0H1034V302Q1034 369 1006.5 402.5Q979 436 919 436Q888 436 865 427.5Q842 419 826 409Q808 397 794 382V0H709V700H590Q547 700 547 660V624Q526 632 500 638Q477 644 447.5 648Q418 652 381 652Q316 652 270.5 631Q225 610 196.5 571.5Q168 533 155.5 479Q143 425 143 359Q143 291 157.5 236.5Q172 182 202 143.5Q232 105 278 84.5Q324 64 388 64Q436 64 478 73V321H311V397H559Z" glyph-name="G_h" horiz-adv-x="1192" /><glyph d="M559 18Q536 10 509 4Q484 -2 454 -6Q424 -10 388 -10Q295 -10 231.5 17.5Q168 45 128.5 94Q89 143 71.5 210.5Q54 278 54 357Q54 435 72.5 502.5Q91 570 130.5 619.5Q170 669 231.5 697.5Q293 726 378 726Q410 726 436.5 723.5Q463 721 483 716Q499 766 561 766H794V288H838L1007 500H1100L910 266L1115 0H1009L839 222H794V0H709V700H590Q547 700 547 660V624Q526 632 500 638Q477 644 447.5 648Q418 652 381 652Q316 652 270.5 631Q225 610 196.5 571.5Q168 533 155.5 479Q143 425 143 359Q143 291 157.5 236.5Q172 182 202 143.5Q232 105 278 84.5Q324 64 388 64Q436 64 478 73V321H311V397H559Z" glyph-name="G_k" horiz-adv-x="1120" /><glyph d="M803 -7Q708 -7 708 107V700H590Q547 700 547 660V624Q526 632 500 638Q477 644 447.5 648Q418 652 381 652Q316 652 270.5 631Q225 610 196.5 571.5Q168 533 155.5 479Q143 425 143 359Q143 291 157.5 236.5Q172 182 202 143.5Q232 105 278 84.5Q324 64 388 64Q436 64 478 73V321H311V397H559V18Q536 10 509 4Q484 -2 454 -6Q424 -10 388 -10Q295 -10 231.5 17.5Q168 45 128.5 94Q89 143 71.5 210.5Q54 278 54 357Q54 435 72.5 502.5Q91 570 130.5 619.5Q170 669 231.5 697.5Q293 726 378 726Q410 726 436.5 723.5Q463 721 483 716Q499 766 561 766H793V130Q793 92 806.5 76.5Q820 61 852 60H855V0Q849 -2 841 -4Q833 -5 824 -6Q815 -7 803 -7Z" glyph-name="G_l" horiz-adv-x="891" /><glyph d="M632 853 847 958 881 880 655 798ZM803 -7Q708 -7 708 107V700H590Q547 700 547 660V624Q526 632 500 638Q477 644 447.5 648Q418 652 381 652Q316 652 270.5 631Q225 610 196.5 571.5Q168 533 155.5 479Q143 425 143 359Q143 291 157.5 236.5Q172 182 202 143.5Q232 105 278 84.5Q324 64 388 64Q436 64 478 73V321H311V397H559V18Q536 10 509 4Q484 -2 454 -6Q424 -10 388 -10Q295 -10 231.5 17.5Q168 45 128.5 94Q89 143 71.5 210.5Q54 278 54 357Q54 435 72.5 502.5Q91 570 130.5 619.5Q170 669 231.5 697.5Q293 726 378 726Q410 726 436.5 723.5Q463 721 483 716Q499 766 561 766H793V130Q793 92 807 76Q821 60 853 60H855V0Q849 -2 841 -4Q833 -5 824 -6Q815 -7 803 -7Z" glyph-name="G_lacute" horiz-adv-x="891" /><glyph d="M864 572 900 655Q877 660 863 675Q849 690 849 714Q849 737 864.5 756Q880 775 909 775Q938 775 952.5 756.5Q967 738 967 711Q967 679 951.5 640Q936 601 910 553ZM803 -7Q708 -7 708 107V700H590Q547 700 547 660V624Q526 632 500 638Q477 644 447.5 648Q418 652 381 652Q316 652 270.5 631Q225 610 196.5 571.5Q168 533 155.5 479Q143 425 143 359Q143 291 157.5 236.5Q172 182 202 143.5Q232 105 278 84.5Q324 64 388 64Q436 64 478 73V321H311V397H559V18Q536 10 509 4Q484 -2 454 -6Q424 -10 388 -10Q295 -10 231.5 17.5Q168 45 128.5 94Q89 143 71.5 210.5Q54 278 54 357Q54 435 72.5 502.5Q91 570 130.5 619.5Q170 669 231.5 697.5Q293 726 378 726Q410 726 436.5 723.5Q463 721 483 716Q499 766 561 766H793V130Q793 92 807 76.5Q821 61 853 60H855V0Q849 -2 841 -4Q833 -5 824 -6Q815 -7 803 -7Z" glyph-name="G_lcaron" horiz-adv-x="918" /><glyph d="M803 -7Q708 -7 708 107V700H590Q547 700 547 660V624Q526 632 500 638Q477 644 447.5 648Q418 652 381 652Q316 652 270.5 631Q225 610 196.5 571.5Q168 533 155.5 479Q143 425 143 359Q143 291 157.5 236.5Q172 182 202 143.5Q232 105 278 84.5Q324 64 388 64Q436 64 478 73V321H311V397H559V18Q536 10 509 4Q484 -2 454 -6Q424 -10 388 -10Q295 -10 231.5 17.5Q168 45 128.5 94Q89 143 71.5 210.5Q54 278 54 357Q54 435 72.5 502.5Q91 570 130.5 619.5Q170 669 231.5 697.5Q293 726 378 726Q410 726 436.5 723.5Q463 721 483 716Q499 766 561 766H793V130Q793 92 806.5 76.5Q820 61 853 60H855V0Q849 -2 841 -4Q833 -5 824 -6Q815 -7 803 -7ZM730 -268 766 -185Q743 -180 729 -165Q715 -150 715 -126Q715 -103 730.5 -84Q746 -65 775 -65Q804 -65 818.5 -83.5Q833 -102 833 -129Q833 -161 817.5 -200Q802 -239 776 -287Z" glyph-name="G_lcommaaccent" horiz-adv-x="891" /><glyph d="M803 -7Q708 -7 708 107V348L623 305V377L708 420V700H590Q547 700 547 660V624Q526 632 500 638Q477 644 447.5 648Q418 652 381 652Q316 652 270.5 631Q225 610 196.5 571.5Q168 533 155.5 479Q143 425 143 359Q143 291 157.5 236.5Q172 182 202 143.5Q232 105 278 84.5Q324 64 388 64Q436 64 478 73V321H311V397H559V18Q536 10 509 4Q484 -2 454 -6Q424 -10 388 -10Q295 -10 231.5 17.5Q168 45 128.5 94Q89 143 71.5 210.5Q54 278 54 357Q54 435 72.5 502.5Q91 570 130.5 619.5Q170 669 231.5 697.5Q293 726 378 726Q410 726 436.5 723.5Q463 721 483 716Q499 766 561 766H793V464L878 507V435L793 392V130Q793 92 806.5 76.5Q820 61 853 60H855V0Q849 -2 841 -4Q833 -5 824 -6Q815 -7 803 -7Z" glyph-name="G_lslash" horiz-adv-x="913" /><glyph d="M388 -10Q295 -10 231.5 17.5Q168 45 128.5 94Q89 143 71.5 210.5Q54 278 54 357Q54 435 72.5 502.5Q91 570 130.5 619.5Q170 669 231.5 697.5Q293 726 378 726Q421 726 452.5 721.5Q484 717 505 711Q530 704 547 696V624Q526 632 500 638Q477 644 447.5 648Q418 652 381 652Q316 652 270.5 631Q225 610 196.5 571.5Q168 533 155.5 479Q143 425 143 359Q143 291 157.5 236.5Q172 182 202 143.5Q232 105 278 84.5Q324 64 388 64Q436 64 478 73V321H311V397H559V18Q536 10 509 4Q484 -2 454 -6Q424 -10 388 -10ZM331 785Q263 785 224.5 826Q186 867 186 930H258Q258 904 275.5 881Q293 858 331 858Q369 858 386.5 881Q404 904 404 930H476Q476 867 437.5 826Q399 785 331 785Z" glyph-name="Gbreve" horiz-adv-x="625" unicode="&#286;" /><glyph d="M281 604Q227 604 194.5 635Q162 666 161 717H224Q224 700 237 681.5Q250 663 281 663Q312 663 325 681.5Q338 700 338 717H401Q400 666 367.5 635Q335 604 281 604ZM327 -9Q251 -9 198.5 12Q146 33 113 70.5Q80 108 65 160Q50 212 50 273Q50 334 65.5 386Q81 438 114 476.5Q147 515 198 536.5Q249 558 319 558Q353 558 379 554.5Q405 551 422 547Q442 541 457 535V470Q440 476 419 481Q400 485 376.5 488Q353 491 324 491Q273 491 237 475.5Q201 460 178.5 431.5Q156 403 145.5 363Q135 323 135 274Q135 174 180.5 116.5Q226 59 325 59Q363 59 391 65V240H265V308H467V13Q448 7 426 2Q406 -2 381 -5.5Q356 -9 327 -9Z" glyph-name="Gbreve.sc" horiz-adv-x="527" /><glyph d="M331 785Q263 785 224.5 826Q186 867 186 930H258Q258 904 275.5 881Q293 858 331 858Q369 858 386.5 881Q404 904 404 930H476Q476 867 437.5 826Q399 785 331 785ZM920 -7Q884 -7 854.5 5Q825 17 789 45L773 0H709V700H590Q547 700 547 660V624Q526 632 500 638Q477 644 447.5 648Q418 652 381 652Q316 652 270.5 631Q225 610 196.5 571.5Q168 533 155.5 479Q143 425 143 359Q143 291 157.5 236.5Q172 182 202 143.5Q232 105 278 84.5Q324 64 388 64Q436 64 478 73V321H311V397H559V18Q536 10 509 4Q484 -2 454 -6Q424 -10 388 -10Q295 -10 231.5 17.5Q168 45 128.5 94Q89 143 71.5 210.5Q54 278 54 357Q54 435 72.5 502.5Q91 570 130.5 619.5Q170 669 231.5 697.5Q293 726 378 726Q410 726 436.5 723.5Q463 721 483 716Q491 742 512 754Q533 766 564 766H794V444Q807 462 827 476Q845 489 870.5 498.5Q896 508 933 508Q986 508 1024.5 489Q1063 470 1087.5 436.5Q1112 403 1124 358Q1136 313 1136 261Q1136 133 1079 63Q1022 -7 920 -7ZM794 98Q808 88 825 81Q840 74 859.5 69Q879 64 903 64Q942 64 969.5 78Q997 92 1014.5 118Q1032 144 1039.5 180Q1047 216 1047 260Q1047 343 1014.5 389.5Q982 436 910 436Q881 436 859.5 426Q838 416 823 405Q806 391 794 373Z" glyph-name="Gbreve_b" horiz-adv-x="1186" /><glyph d="M331 785Q263 785 224.5 826Q186 867 186 930H258Q258 904 275.5 881Q293 858 331 858Q369 858 386.5 881Q404 904 404 930H476Q476 867 437.5 826Q399 785 331 785ZM803 -7Q708 -7 708 107V700H590Q547 700 547 660V624Q526 632 500 638Q477 644 447.5 648Q418 652 381 652Q316 652 270.5 631Q225 610 196.5 571.5Q168 533 155.5 479Q143 425 143 359Q143 291 157.5 236.5Q172 182 202 143.5Q232 105 278 84.5Q324 64 388 64Q436 64 478 73V321H311V397H559V18Q536 10 509 4Q484 -2 454 -6Q424 -10 388 -10Q295 -10 231.5 17.5Q168 45 128.5 94Q89 143 71.5 210.5Q54 278 54 357Q54 435 72.5 502.5Q91 570 130.5 619.5Q170 669 231.5 697.5Q293 726 378 726Q410 726 436.5 723.5Q463 721 483 716Q499 766 561 766H793V130Q793 92 806.5 76.5Q820 61 853 60H855V0Q849 -2 841 -4Q833 -5 824 -6Q815 -7 803 -7Z" glyph-name="Gbreve_l" horiz-adv-x="891" /><glyph d="M388 -10Q295 -10 231.5 17.5Q168 45 128.5 94Q89 143 71.5 210.5Q54 278 54 357Q54 435 72.5 502.5Q91 570 130.5 619.5Q170 669 231.5 697.5Q293 726 378 726Q421 726 452.5 721.5Q484 717 505 711Q530 704 547 696V624Q526 632 500 638Q477 644 447.5 648Q418 652 381 652Q316 652 270.5 631Q225 610 196.5 571.5Q168 533 155.5 479Q143 425 143 359Q143 291 157.5 236.5Q172 182 202 143.5Q232 105 278 84.5Q324 64 388 64Q436 64 478 73V321H311V397H559V18Q536 10 509 4Q484 -2 454 -6Q424 -10 388 -10ZM184 822 325 938H380L522 822L491 778L353 864L214 778Z" glyph-name="Gcircumflex" horiz-adv-x="625" unicode="&#284;" /><glyph d="M158 634 271 725H321L435 634L407 598L296 664L184 598ZM327 -9Q251 -9 198.5 12Q146 33 113 70.5Q80 108 65 160Q50 212 50 273Q50 334 65.5 386Q81 438 114 476.5Q147 515 198 536.5Q249 558 319 558Q353 558 379 554.5Q405 551 422 547Q442 541 457 535V470Q440 476 419 481Q400 485 376.5 488Q353 491 324 491Q273 491 237 475.5Q201 460 178.5 431.5Q156 403 145.5 363Q135 323 135 274Q135 174 180.5 116.5Q226 59 325 59Q363 59 391 65V240H265V308H467V13Q448 7 426 2Q406 -2 381 -5.5Q356 -9 327 -9Z" glyph-name="Gcircumflex.sc" horiz-adv-x="527" /><glyph d="M388 -10Q295 -10 231.5 17.5Q168 45 128.5 94Q89 143 71.5 210.5Q54 278 54 357Q54 435 72.5 502.5Q91 570 130.5 619.5Q170 669 231.5 697.5Q293 726 378 726Q421 726 452.5 721.5Q484 717 505 711Q530 704 547 696V624Q526 632 500 638Q477 644 447.5 648Q418 652 381 652Q316 652 270.5 631Q225 610 196.5 571.5Q168 533 155.5 479Q143 425 143 359Q143 291 157.5 236.5Q172 182 202 143.5Q232 105 278 84.5Q324 64 388 64Q436 64 478 73V321H311V397H559V18Q536 10 509 4Q484 -2 454 -6Q424 -10 388 -10ZM314 -268 350 -185Q327 -180 313 -165Q299 -150 299 -126Q299 -103 314.5 -84Q330 -65 359 -65Q388 -65 402.5 -83.5Q417 -102 417 -129Q417 -161 401.5 -200Q386 -239 360 -287Z" glyph-name="Gcommaaccent" horiz-adv-x="625" unicode="&#290;" /><glyph d="M327 -9Q251 -9 198.5 12Q146 33 113 70.5Q80 108 65 160Q50 212 50 273Q50 334 65.5 386Q81 438 114 476.5Q147 515 198 536.5Q249 558 319 558Q353 558 379 554.5Q405 551 422 547Q442 541 457 535V470Q440 476 419 481Q400 485 376.5 488Q353 491 324 491Q273 491 237 475.5Q201 460 178.5 431.5Q156 403 145.5 363Q135 323 135 274Q135 174 180.5 116.5Q226 59 325 59Q363 59 391 65V240H265V308H467V13Q448 7 426 2Q406 -2 381 -5.5Q356 -9 327 -9ZM271 -229 300 -164Q256 -156 256 -115Q256 -96 269 -80.5Q282 -65 308 -65Q334 -65 346.5 -80Q359 -95 359 -118Q359 -144 345.5 -175Q332 -206 311 -244Z" glyph-name="Gcommaaccent.sc" horiz-adv-x="527" /><glyph d="M388 -10Q295 -10 231.5 17.5Q168 45 128.5 94Q89 143 71.5 210.5Q54 278 54 357Q54 435 72.5 502.5Q91 570 130.5 619.5Q170 669 231.5 697.5Q293 726 378 726Q421 726 452.5 721.5Q484 717 505 711Q530 704 547 696V624Q526 632 500 638Q477 644 447.5 648Q418 652 381 652Q316 652 270.5 631Q225 610 196.5 571.5Q168 533 155.5 479Q143 425 143 359Q143 291 157.5 236.5Q172 182 202 143.5Q232 105 278 84.5Q324 64 388 64Q436 64 478 73V321H311V397H559V18Q536 10 509 4Q484 -2 454 -6Q424 -10 388 -10ZM339 801Q314 801 296.5 817.5Q279 834 279 863Q279 892 296.5 908.5Q314 925 340 925Q366 925 384 909Q402 893 402 864Q402 834 384 817.5Q366 801 339 801Z" glyph-name="Gdotaccent" horiz-adv-x="625" unicode="&#288;" /><glyph d="M287 615Q264 615 250 628.5Q236 642 236 665Q236 688 250.5 701.5Q265 715 288 715Q312 715 326.5 701.5Q341 688 341 666Q341 643 326.5 629Q312 615 287 615ZM327 -9Q251 -9 198.5 12Q146 33 113 70.5Q80 108 65 160Q50 212 50 273Q50 334 65.5 386Q81 438 114 476.5Q147 515 198 536.5Q249 558 319 558Q353 558 379 554.5Q405 551 422 547Q442 541 457 535V470Q440 476 419 481Q400 485 376.5 488Q353 491 324 491Q273 491 237 475.5Q201 460 178.5 431.5Q156 403 145.5 363Q135 323 135 274Q135 174 180.5 116.5Q226 59 325 59Q363 59 391 65V240H265V308H467V13Q448 7 426 2Q406 -2 381 -5.5Q356 -9 327 -9Z" glyph-name="Gdotaccent.sc" horiz-adv-x="527" /><glyph d="M388 -10Q295 -10 231.5 17.5Q168 45 128.5 94Q89 143 71.5 210.5Q54 278 54 357Q54 435 72.5 502.5Q91 570 130.5 619.5Q170 669 231.5 697.5Q293 726 378 726Q421 726 452.5 721.5Q484 717 505 711Q530 704 547 696V624Q526 632 500 638Q477 644 447.5 648Q418 652 381 652Q316 652 270.5 631Q225 610 196.5 571.5Q168 533 155.5 479Q143 425 143 359Q143 291 157.5 236.5Q172 182 202 143.5Q232 105 278 84.5Q324 64 388 64Q436 64 478 73V327H311V401H612L839 716H931L682 371L945 0H844L612 327H559V18Q536 10 509 4Q484 -2 454 -6Q424 -10 388 -10ZM339 801Q314 801 296.5 817.5Q279 834 279 863Q279 892 296.5 908.5Q314 925 340 925Q366 925 384 909Q402 893 402 864Q402 834 384 817.5Q366 801 339 801Z" glyph-name="Gdotaccent_K" horiz-adv-x="954" /><glyph d="M339 801Q314 801 296.5 817.5Q279 834 279 863Q279 892 296.5 908.5Q314 925 340 925Q366 925 384 909Q402 893 402 864Q402 834 384 817.5Q366 801 339 801ZM920 -7Q884 -7 854.5 5Q825 17 789 45L773 0H709V700H590Q547 700 547 660V624Q526 632 500 638Q477 644 447.5 648Q418 652 381 652Q316 652 270.5 631Q225 610 196.5 571.5Q168 533 155.5 479Q143 425 143 359Q143 291 157.5 236.5Q172 182 202 143.5Q232 105 278 84.5Q324 64 388 64Q436 64 478 73V321H311V397H559V18Q536 10 509 4Q484 -2 454 -6Q424 -10 388 -10Q295 -10 231.5 17.5Q168 45 128.5 94Q89 143 71.5 210.5Q54 278 54 357Q54 435 72.5 502.5Q91 570 130.5 619.5Q170 669 231.5 697.5Q293 726 378 726Q410 726 436.5 723.5Q463 721 483 716Q491 742 512 754Q533 766 564 766H794V444Q807 462 827 476Q845 489 870.5 498.5Q896 508 933 508Q986 508 1024.5 489Q1063 470 1087.5 436.5Q1112 403 1124 358Q1136 313 1136 261Q1136 133 1079 63Q1022 -7 920 -7ZM794 98Q808 88 825 81Q840 74 859.5 69Q879 64 903 64Q942 64 969.5 78Q997 92 1014.5 118Q1032 144 1039.5 180Q1047 216 1047 260Q1047 343 1014.5 389.5Q982 436 910 436Q881 436 859.5 426Q838 416 823 405Q806 391 794 373Z" glyph-name="Gdotaccent_b" horiz-adv-x="1186" /><glyph d="M339 801Q314 801 296.5 817.5Q279 834 279 863Q279 892 296.5 908.5Q314 925 340 925Q366 925 384 909Q402 893 402 864Q402 834 384 817.5Q366 801 339 801ZM559 18Q536 10 509 4Q484 -2 454 -6Q424 -10 388 -10Q295 -10 231.5 17.5Q168 45 128.5 94Q89 143 71.5 210.5Q54 278 54 357Q54 435 72.5 502.5Q91 570 130.5 619.5Q170 669 231.5 697.5Q293 726 378 726Q410 726 436.5 723.5Q463 721 483 716Q499 766 561 766H794V288H838L1007 500H1100L910 266L1115 0H1009L839 222H794V0H709V700H590Q547 700 547 660V624Q526 632 500 638Q477 644 447.5 648Q418 652 381 652Q316 652 270.5 631Q225 610 196.5 571.5Q168 533 155.5 479Q143 425 143 359Q143 291 157.5 236.5Q172 182 202 143.5Q232 105 278 84.5Q324 64 388 64Q436 64 478 73V321H311V397H559Z" glyph-name="Gdotaccent_k" horiz-adv-x="1120" /><glyph d="M339 801Q314 801 296.5 817.5Q279 834 279 863Q279 892 296.5 908.5Q314 925 340 925Q366 925 384 909Q402 893 402 864Q402 834 384 817.5Q366 801 339 801ZM803 -7Q708 -7 708 107V700H590Q547 700 547 660V624Q526 632 500 638Q477 644 447.5 648Q418 652 381 652Q316 652 270.5 631Q225 610 196.5 571.5Q168 533 155.5 479Q143 425 143 359Q143 291 157.5 236.5Q172 182 202 143.5Q232 105 278 84.5Q324 64 388 64Q436 64 478 73V321H311V397H559V18Q536 10 509 4Q484 -2 454 -6Q424 -10 388 -10Q295 -10 231.5 17.5Q168 45 128.5 94Q89 143 71.5 210.5Q54 278 54 357Q54 435 72.5 502.5Q91 570 130.5 619.5Q170 669 231.5 697.5Q293 726 378 726Q410 726 436.5 723.5Q463 721 483 716Q499 766 561 766H793V130Q793 92 806.5 76.5Q820 61 853 60H855V0Q849 -2 841 -4Q833 -5 824 -6Q815 -7 803 -7Z" glyph-name="Gdotaccent_l" horiz-adv-x="891" /><glyph d="M92 716H178V402H502V716H588V0H502V325H178V0H92Z" glyph-name="H" horiz-adv-x="680" unicode="H" /><glyph d="M81 550H163V314H410V550H492V0H410V244H163V0H81Z" glyph-name="H.sc" horiz-adv-x="573" /><glyph d="M689 408Q762 408 794.5 441Q827 474 827 531Q827 588 789 614.5Q751 641 681 641H587V408ZM706 75Q782 75 820.5 109Q859 143 859 205Q859 268 824 300.5Q789 333 707 333H587V75ZM91 716H177V410H501V716H681Q804 716 859.5 666Q915 616 915 532Q915 429 823 379Q858 369 882 351Q906 333 920.5 310Q935 287 941.5 260.5Q948 234 948 207Q948 153 930.5 114Q913 75 881 49.5Q849 24 804 12Q759 0 705 0H501V333H177V0H91Z" glyph-name="H_B" horiz-adv-x="997" /><glyph d="M569 316Q624 316 648.5 339.5Q673 363 673 405Q673 446 644.5 465.5Q616 485 563 485H491V316ZM81 550H163V319H410V550H562Q664 550 709.5 511.5Q755 473 755 407Q755 367 736 338Q717 309 682 290Q736 276 759 239Q782 202 782 160Q782 78 726.5 39Q671 0 580 0H410V250H163V0H81ZM581 65Q638 65 667.5 89.5Q697 114 697 159Q697 204 670.5 227.5Q644 251 582 251H491V65Z" glyph-name="H_B.sc" horiz-adv-x="828" /><glyph d="M700 77Q753 77 796 93Q839 109 869.5 143Q900 177 916.5 230Q933 283 933 358Q933 433 916.5 486.5Q900 540 869 573.5Q838 607 795.5 623Q753 639 700 639H587V77ZM177 0H91V716H177V402H501V716H700Q855 716 938.5 627Q1022 538 1022 358Q1022 179 938.5 89.5Q855 0 700 0H501V325H177Z" glyph-name="H_D" horiz-adv-x="1077" /><glyph d="M574 69Q655 69 703.5 118.5Q752 168 752 275Q752 383 703.5 432Q655 481 574 481H492V69ZM163 0H81V550H163V314H410V550H572Q701 550 769 479.5Q837 409 837 275Q837 141 769 70.5Q701 0 572 0H410V244H163Z" glyph-name="H_D.sc" horiz-adv-x="887" /><glyph d="M177 0H91V716H177V402H501V716H879V639H587V402H831V325H587V77H879V0H501V325H177Z" glyph-name="H_E" horiz-adv-x="931" /><glyph d="M163 0H81V550H163V314H410V550H725V481H492V313H686V245H492V69H725V0H410V244H163Z" glyph-name="H_E.sc" horiz-adv-x="775" /><glyph d="M177 0H91V716H177V402H501V716H879V639H587V402H831V325H587V77H879V0H501V325H177ZM594 833 809 938 843 860 617 778Z" glyph-name="H_Eacute" horiz-adv-x="931" /><glyph d="M490 644 664 725 694 660 511 598ZM163 0H81V550H163V314H410V550H725V481H492V313H686V245H492V69H725V0H410V244H163Z" glyph-name="H_Eacute.sc" horiz-adv-x="775" /><glyph d="M177 0H91V716H177V402H501V716H879V639H587V402H831V325H587V77H879V0H501V325H177ZM517 822 658 938H713L855 822L824 778L686 864L547 778Z" glyph-name="H_Ecircumflex" horiz-adv-x="931" /><glyph d="M427 634 541 725H590L704 634L677 598L565 664L454 598ZM163 0H81V550H163V314H410V550H725V481H492V313H686V245H492V69H725V0H410V244H163Z" glyph-name="H_Ecircumflex.sc" horiz-adv-x="775" /><glyph d="M177 0H91V716H177V402H501V716H879V639H587V402H831V325H587V77H879V0H501V325H177ZM601 801Q578 801 560.5 817Q543 833 543 861Q543 889 560.5 905Q578 921 602 921Q627 921 644.5 905Q662 889 662 862Q662 833 644.5 817Q627 801 601 801ZM786 801Q763 801 745.5 817Q728 833 728 861Q728 889 745.5 905Q763 921 787 921Q812 921 829.5 905Q847 889 847 862Q847 833 829.5 817Q812 801 786 801Z" glyph-name="H_Edieresis" horiz-adv-x="931" /><glyph d="M495 615Q473 615 459 628.5Q445 642 445 664Q445 686 459 699Q473 712 496 712Q519 712 533 699Q547 686 547 665Q547 642 532.5 628.5Q518 615 495 615ZM646 615Q625 615 610.5 628.5Q596 642 596 664Q596 686 610 699Q624 712 647 712Q670 712 684 699Q698 686 698 665Q698 642 683.5 628.5Q669 615 646 615ZM163 0H81V550H163V314H410V550H725V481H492V313H686V245H492V69H725V0H410V244H163Z" glyph-name="H_Edieresis.sc" horiz-adv-x="775" /><glyph d="M177 0H91V716H177V402H501V716H879V639H587V402H831V325H587V77H879V0H501V325H177ZM694 801Q669 801 651.5 817.5Q634 834 634 863Q634 892 651.5 908.5Q669 925 695 925Q721 925 739 909Q757 893 757 864Q757 834 739 817.5Q721 801 694 801Z" glyph-name="H_Edotaccent" horiz-adv-x="931" /><glyph d="M570 615Q547 615 532.5 628.5Q518 642 518 665Q518 688 532.5 701.5Q547 715 571 715Q595 715 609.5 701.5Q624 688 624 666Q624 643 609.5 629Q595 615 570 615ZM163 0H81V550H163V314H410V550H725V481H492V313H686V245H492V69H725V0H410V244H163Z" glyph-name="H_Edotaccent.sc" horiz-adv-x="775" /><glyph d="M177 0H91V716H177V402H501V716H879V639H587V402H831V325H587V77H879V0H501V325H177ZM534 860 568 938 783 833 760 778Z" glyph-name="H_Egrave" horiz-adv-x="931" /><glyph d="M442 660 472 725 646 644 626 598ZM163 0H81V550H163V314H410V550H725V481H492V313H686V245H492V69H725V0H410V244H163Z" glyph-name="H_Egrave.sc" horiz-adv-x="775" /><glyph d="M177 0H91V716H177V402H501V716H879V639H587V402H831V325H587V77H879V0H501V325H177ZM553 896H833V819H553Z" glyph-name="H_Emacron" horiz-adv-x="931" /><glyph d="M457 693H683V629H457ZM163 0H81V550H163V314H410V550H725V481H492V313H686V245H492V69H725V0H410V244H163Z" glyph-name="H_Emacron.sc" horiz-adv-x="775" /><glyph d="M501 0V325H177V0H91V716H177V402H501V716H879V639H587V402H831V325H587V77H879V0Q823 -32 805.5 -61.5Q788 -91 788 -112Q788 -156 837 -156Q851 -156 863 -151Q875 -146 884 -141Q894 -134 902 -125V-185Q893 -196 879 -205Q867 -212 850 -218Q833 -224 808 -224Q763 -224 735 -197Q707 -170 707 -128Q707 -112 711.5 -93.5Q716 -75 726 -58Q736 -41 752.5 -26Q769 -11 793 0Z" glyph-name="H_Eogonek" horiz-adv-x="931" /><glyph d="M410 0V244H163V0H81V550H163V314H410V550H725V481H492V313H686V245H492V69H725V0Q682 -23 667.5 -45Q653 -67 653 -84Q653 -118 692 -118Q714 -118 728 -107Q742 -96 744 -95V-143Q743 -144 737.5 -148.5Q732 -153 722.5 -158.5Q713 -164 699 -168.5Q685 -173 666 -173Q628 -173 604.5 -151.5Q581 -130 581 -98Q581 -71 597 -43Q613 -15 651 0Z" glyph-name="H_Eogonek.sc" horiz-adv-x="775" /><glyph d="M177 0H91V716H177V402H501V716H878V639H587V402H830V325H587V0H501V325H177Z" glyph-name="H_F" horiz-adv-x="906" /><glyph d="M163 0H81V550H163V314H410V550H723V481H492V311H686V242H492V0H410V244H163Z" glyph-name="H_F.sc" horiz-adv-x="754" /><glyph d="M91 716H177V402H501V716H587V401H637L884 716H976L707 371L990 0H889L637 327H587V0H501V325H177V0H91Z" glyph-name="H_K" horiz-adv-x="999" /><glyph d="M81 550H163V314H410V550H492V313H529L719 550H806L595 285L818 0H723L529 246H492V0H410V244H163V0H81Z" glyph-name="H_K.sc" horiz-adv-x="832" /><glyph d="M91 716H177V402H501V716H623L846 174L1067 716H1180V0H1094V601L870 48H810L587 605V0H501V325H177V0H91Z" glyph-name="H_M" horiz-adv-x="1271" /><glyph d="M81 550H163V314H410V550H524L699 145L871 550H976V0H896V446L724 37H665L492 450V0H410V244H163V0H81Z" glyph-name="H_M.sc" horiz-adv-x="1057" /><glyph d="M91 716H177V402H502V716H582L924 153V716H1004V0H924L582 565V0H502V325H177V0H91Z" glyph-name="H_N" horiz-adv-x="1095" /><glyph d="M81 550H163V314H410V550H487L752 136V550H827V0H752L487 415V0H410V244H163V0H81Z" glyph-name="H_N.sc" horiz-adv-x="908" /><glyph d="M91 716H177V402H502V716H582L924 153V716H1004V0H924L582 565V0H502V325H177V0H91ZM593 894 623 938 762 852 900 938 931 894 789 778H734Z" glyph-name="H_Ncaron" horiz-adv-x="1095" /><glyph d="M488 688 514 725 626 659 737 725 765 688 650 598H601ZM81 550H163V314H410V550H487L752 136V550H827V0H752L487 415V0H410V244H163V0H81Z" glyph-name="H_Ncaron.sc" horiz-adv-x="908" /><glyph d="M680 381Q754 381 798.5 413.5Q843 446 843 513Q843 576 804.5 608.5Q766 641 678 641H587V381ZM91 716H177V381H501V716H676Q744 716 792.5 702Q841 688 872 662Q903 636 917.5 599Q932 562 932 517Q932 466 913.5 427Q895 388 861.5 361Q828 334 781 320Q734 306 676 306H587V0H501V306H177V0H91Z" glyph-name="H_P" horiz-adv-x="964" /><glyph d="M562 295Q617 295 650.5 319Q684 343 684 391Q684 436 655 459.5Q626 483 560 483H492V295ZM81 550H163V297H410V550H560Q669 550 718.5 508Q768 466 768 394Q768 354 753 323.5Q738 293 710.5 272Q683 251 645 240Q607 229 560 229H492V0H410V229H163V0H81Z" glyph-name="H_P.sc" horiz-adv-x="801" /><glyph d="M685 382Q715 382 742 391Q769 400 789 417Q809 434 820.5 459Q832 484 832 516Q832 576 796 608.5Q760 641 688 641H587V382ZM91 716H177V382H501V716H692Q801 716 861 664.5Q921 613 921 516Q921 450 884 399Q847 348 784 325L962 0H866L698 307H587V0H501V305H177V0H91Z" glyph-name="H_R" horiz-adv-x="983" /><glyph d="M566 297Q612 297 644.5 322.5Q677 348 677 394Q677 437 650 460Q623 483 568 483H492V297ZM81 550H163V299H410V550H570Q662 550 711.5 509.5Q761 469 761 395Q761 344 732 305Q703 266 654 249L793 0H703L574 231H492V0H410V230H163V0H81Z" glyph-name="H_R.sc" horiz-adv-x="822" /><glyph d="M685 382Q715 382 742 391Q769 400 789 417Q809 434 820.5 459Q832 484 832 516Q832 576 796 608.5Q760 641 688 641H587V382ZM91 716H177V382H501V716H692Q801 716 861 664.5Q921 613 921 516Q921 450 884 399Q847 348 784 325L962 0H866L698 307H587V0H501V305H177V0H91ZM604 833 819 938 853 860 627 778Z" glyph-name="H_Racute" horiz-adv-x="983" /><glyph d="M500 644 674 725 704 660 521 598ZM566 297Q612 297 644.5 322.5Q677 348 677 394Q677 437 650 460Q623 483 568 483H492V297ZM81 550H163V299H410V550H570Q662 550 711.5 509.5Q761 469 761 395Q761 344 732 305Q703 266 654 249L793 0H703L574 231H492V0H410V230H163V0H81Z" glyph-name="H_Racute.sc" horiz-adv-x="822" /><glyph d="M685 382Q715 382 742 391Q769 400 789 417Q809 434 820.5 459Q832 484 832 516Q832 576 796 608.5Q760 641 688 641H587V382ZM91 716H177V382H501V716H692Q801 716 861 664.5Q921 613 921 516Q921 450 884 399Q847 348 784 325L962 0H866L698 307H587V0H501V305H177V0H91ZM520 894 550 938 689 852 827 938 858 894 716 778H661Z" glyph-name="H_Rcaron" horiz-adv-x="983" /><glyph d="M431 688 458 725 569 659 680 725 708 688 594 598H544ZM566 297Q612 297 644.5 322.5Q677 348 677 394Q677 437 650 460Q623 483 568 483H492V297ZM81 550H163V299H410V550H570Q662 550 711.5 509.5Q761 469 761 395Q761 344 732 305Q703 266 654 249L793 0H703L574 231H492V0H410V230H163V0H81Z" glyph-name="H_Rcaron.sc" horiz-adv-x="822" /><glyph d="M91 716H177V402H527V639H347V716H817V639H613V0H527V325H177V0H91Z" glyph-name="H_T" horiz-adv-x="831" /><glyph d="M81 550H163V313H432V481H291V550H674V481H514V0H432V243H163V0H81Z" glyph-name="H_T.sc" horiz-adv-x="693" /><glyph d="M91 716H177V402H527V639H347V716H817V639H613V0H527V325H177V0H91ZM401 894 431 938 570 852 708 938 739 894 597 778H542Z" glyph-name="H_Tcaron" horiz-adv-x="831" /><glyph d="M335 688 362 725 473 659 584 725 612 688 497 598H448ZM81 550H163V313H432V481H291V550H674V481H514V0H432V243H163V0H81Z" glyph-name="H_Tcaron.sc" horiz-adv-x="693" /><glyph d="M91 716H177V402H501V716H587V244Q587 150 628.5 107Q670 64 753 64Q832 64 873 106.5Q914 149 916 243V716H1002V244Q1002 178 984.5 130Q967 82 934.5 51Q902 20 856 5Q810 -10 753 -10Q695 -10 648.5 5Q602 20 569 50.5Q536 81 518.5 129Q501 177 501 243V325H177V0H91Z" glyph-name="H_U" horiz-adv-x="1087" /><glyph d="M81 550H163V314H410V550H492V191Q492 122 523.5 90.5Q555 59 618 59Q678 59 709.5 90Q741 121 743 191V550H825V191Q825 88 768 40Q711 -8 618 -8Q524 -8 467 40Q410 88 410 191V244H163V0H81Z" glyph-name="H_U.sc" horiz-adv-x="901" /><glyph d="M91 716H177V402H501V716H587V244Q587 150 628.5 107Q670 64 753 64Q832 64 873 106.5Q914 149 916 243V716H1002V244Q1002 178 984.5 130Q967 82 934.5 51Q902 20 856 5Q810 -10 753 -10Q695 -10 648.5 5Q602 20 569 50.5Q536 81 518.5 129Q501 177 501 243V325H177V0H91ZM690 833 905 938 939 860 713 778Z" glyph-name="H_Uacute" horiz-adv-x="1087" /><glyph d="M564 644 739 725 769 660 585 598ZM81 550H163V314H410V550H492V191Q492 122 523.5 90.5Q555 59 618 59Q678 59 709.5 90Q741 121 743 191V550H825V191Q825 88 768 40Q711 -8 618 -8Q524 -8 467 40Q410 88 410 191V244H163V0H81Z" glyph-name="H_Uacute.sc" horiz-adv-x="901" /><glyph d="M91 716H177V402H501V716H587V244Q587 150 628.5 107Q670 64 753 64Q832 64 873 106.5Q914 149 916 243V716H1002V244Q1002 178 984.5 130Q967 82 934.5 51Q902 20 856 5Q810 -10 753 -10Q695 -10 648.5 5Q602 20 569 50.5Q536 81 518.5 129Q501 177 501 243V325H177V0H91ZM658 801Q635 801 617.5 817Q600 833 600 861Q600 889 617.5 905Q635 921 659 921Q684 921 701.5 905Q719 889 719 862Q719 833 701.5 817Q684 801 658 801ZM843 801Q820 801 802.5 817Q785 833 785 861Q785 889 802.5 905Q820 921 844 921Q869 921 886.5 905Q904 889 904 862Q904 833 886.5 817Q869 801 843 801Z" glyph-name="H_Udieresis" horiz-adv-x="1087" /><glyph d="M541 615Q519 615 505 628.5Q491 642 491 664Q491 686 505 699Q519 712 542 712Q565 712 579 699Q593 686 593 665Q593 642 578.5 628.5Q564 615 541 615ZM692 615Q671 615 656.5 628.5Q642 642 642 664Q642 686 656 699Q670 712 693 712Q716 712 730 699Q744 686 744 665Q744 642 729.5 628.5Q715 615 692 615ZM81 550H163V314H410V550H492V191Q492 122 523.5 90.5Q555 59 618 59Q678 59 709.5 90Q741 121 743 191V550H825V191Q825 88 768 40Q711 -8 618 -8Q524 -8 467 40Q410 88 410 191V244H163V0H81Z" glyph-name="H_Udieresis.sc" horiz-adv-x="901" /><glyph d="M91 716H177V402H501V716H587V244Q587 150 628.5 107Q670 64 753 64Q832 64 873 106.5Q914 149 916 243V716H1002V244Q1002 178 984.5 130Q967 82 934.5 51Q902 20 856 5Q810 -10 753 -10Q695 -10 648.5 5Q602 20 569 50.5Q536 81 518.5 129Q501 177 501 243V325H177V0H91ZM598 815 726 973 791 919 649 778ZM729 833 944 938 978 860 752 778Z" glyph-name="H_Uhungarumlaut" horiz-adv-x="1087" /><glyph d="M493 628 594 751 651 707 536 598ZM604 642 773 724 803 661 625 598ZM81 550H163V314H410V550H492V191Q492 122 523.5 90.5Q555 59 618 59Q678 59 709.5 90Q741 121 743 191V550H825V191Q825 88 768 40Q711 -8 618 -8Q524 -8 467 40Q410 88 410 191V244H163V0H81Z" glyph-name="H_Uhungarumlaut.sc" horiz-adv-x="901" /><glyph d="M91 716H177V402H501V716H587V244Q587 150 628.5 107Q670 64 753 64Q832 64 873 106.5Q914 149 916 243V716H1002V244Q1002 178 984.5 130Q967 82 934.5 51Q902 20 856 5Q810 -10 753 -10Q695 -10 648.5 5Q602 20 569 50.5Q536 81 518.5 129Q501 177 501 243V325H177V0H91ZM611 896H891V819H611Z" glyph-name="H_Umacron" horiz-adv-x="1087" /><glyph d="M504 693H730V629H504ZM81 550H163V314H410V550H492V191Q492 122 523.5 90.5Q555 59 618 59Q678 59 709.5 90Q741 121 743 191V550H825V191Q825 88 768 40Q711 -8 618 -8Q524 -8 467 40Q410 88 410 191V244H163V0H81Z" glyph-name="H_Umacron.sc" horiz-adv-x="901" /><glyph d="M787 -224Q742 -224 714 -197Q686 -170 686 -128Q686 -101 699.5 -69Q713 -37 749 -10Q626 -2 563.5 59Q501 120 501 243V325H177V0H91V716H177V402H501V716H587V244Q587 150 628.5 107Q670 64 753 64Q832 64 874 106.5Q916 149 916 243V716H1002V244Q1002 200 994.5 166.5Q987 133 973.5 108Q960 83 942.5 65Q925 47 905 34Q838 -10 802.5 -41.5Q767 -73 767 -113Q767 -133 778 -144.5Q789 -156 815 -156Q830 -156 842 -151Q854 -146 863 -141Q873 -134 881 -125V-185Q872 -196 858 -205Q846 -212 829 -218Q812 -224 787 -224Z" glyph-name="H_Uogonek" horiz-adv-x="1087" /><glyph d="M642 -173Q604 -173 580 -152Q556 -131 556 -97Q556 -77 567.5 -52.5Q579 -28 608 -8Q511 0 460.5 47.5Q410 95 410 191V244H163V0H81V550H163V314H410V550H492V191Q492 122 523.5 90.5Q555 59 618 59Q678 59 710.5 90Q743 121 743 191V550H825V191Q825 121 799 82Q773 43 736 23Q685 -8 657.5 -30.5Q630 -53 630 -82Q630 -99 640.5 -108Q651 -117 668 -117Q691 -117 705.5 -106Q720 -95 722 -94V-143Q721 -144 715 -148.5Q709 -153 699.5 -158.5Q690 -164 675.5 -168.5Q661 -173 642 -173Z" glyph-name="H_Uogonek.sc" horiz-adv-x="901" /><glyph d="M91 716H177V402H501V716H587V244Q587 150 628.5 107Q670 64 753 64Q832 64 873 106.5Q914 149 916 243V716H1002V244Q1002 178 984.5 130Q967 82 934.5 51Q902 20 856 5Q810 -10 753 -10Q695 -10 648.5 5Q602 20 569 50.5Q536 81 518.5 129Q501 177 501 243V325H177V0H91ZM750 769Q699 769 667 793.5Q635 818 635 860Q635 900 667 926Q699 952 750 952Q801 952 834 926Q867 900 867 860Q867 818 835.5 793.5Q804 769 750 769ZM750 821Q773 821 788 831.5Q803 842 803 862Q803 879 787.5 889.5Q772 900 750 900Q727 900 713 889.5Q699 879 699 862Q699 842 713 831.5Q727 821 750 821Z" glyph-name="H_Uring" horiz-adv-x="1087" /><glyph d="M616 592Q574 592 548 611Q522 630 522 663Q522 695 548 715Q574 735 616 735Q658 735 685 715Q712 695 712 663Q712 630 686 611Q660 592 616 592ZM616 634Q634 634 646 642Q658 650 658 664Q658 678 645.5 685.5Q633 693 616 693Q598 693 587 685.5Q576 678 576 664Q576 650 587 642Q598 634 616 634ZM81 550H163V314H410V550H492V191Q492 122 523.5 90.5Q555 59 618 59Q678 59 709.5 90Q741 121 743 191V550H825V191Q825 88 768 40Q711 -8 618 -8Q524 -8 467 40Q410 88 410 191V244H163V0H81Z" glyph-name="H_Uring.sc" horiz-adv-x="901" /><glyph d="M523 402V539H199V402ZM199 0H113V539H13V616H113V716H199V616H523V716H609V616H709V539H609V0H523V325H199Z" glyph-name="Hbar" horiz-adv-x="722" unicode="&#294;" /><glyph d="M421 314V413H174V314ZM174 0H92V413H16V476H92V550H174V476H421V550H503V476H578V413H503V0H421V244H174Z" glyph-name="Hbar.sc" horiz-adv-x="595" /><glyph d="M538 402V539H214V402ZM1039 244Q1039 178 1021.5 130Q1004 82 971.5 51Q939 20 893 5Q847 -10 790 -10Q732 -10 685.5 5Q639 20 606 50.5Q573 81 555.5 129Q538 177 538 243V325H214V0H128V539H28V616H128V716H214V616H538V716H624V616H724V539H624V244Q624 150 665.5 107Q707 64 790 64Q869 64 911 106.5Q953 149 953 243V716H1039Z" glyph-name="Hbar_U" horiz-adv-x="1124" /><glyph d="M837 191Q837 88 780.5 40Q724 -8 630 -8Q536 -8 479 40Q422 88 422 191V244H175V0H93V413H15V475H93V550H175V475H422V550H504V475H581V413H504V191Q504 122 535.5 90.5Q567 59 630 59Q690 59 721.5 90Q753 121 755 191V550H837ZM422 314V413H175V314Z" glyph-name="Hbar_U.sc" horiz-adv-x="913" /><glyph d="M92 716H178V402H502V716H588V0H502V325H178V0H92ZM171 822 312 938H367L509 822L478 778L340 864L201 778Z" glyph-name="Hcircumflex" horiz-adv-x="680" unicode="&#292;" /><glyph d="M148 634 261 725H310L425 634L397 598L286 664L174 598ZM81 550H163V314H410V550H492V0H410V244H163V0H81Z" glyph-name="Hcircumflex.sc" horiz-adv-x="573" /><glyph d="M92 716H178V0H92Z" glyph-name="I" horiz-adv-x="270" unicode="I" /><glyph d="M81 550H163V0H81Z" glyph-name="I.sc" horiz-adv-x="244" /><glyph d="M92 716H178V0H92ZM349 -10Q331 -10 315 -7Q299 -4 288 -1Q274 3 262 8V81Q274 76 287 73Q298 69 312 66.5Q326 64 341 64Q377 64 393.5 86.5Q410 109 410 162V716H496V160Q496 77 458 33.5Q420 -10 349 -10Z" glyph-name="IJ" horiz-adv-x="583" unicode="&#306;" /><glyph d="M81 550H163V0H81ZM299 -8Q284 -8 271.5 -6Q259 -4 249 -2Q238 1 229 5V71Q238 68 248 65Q257 63 267.5 61Q278 59 290 59Q319 59 332.5 76.5Q346 94 346 133V550H428V131Q428 62 395 27Q362 -8 299 -8Z" glyph-name="IJ.sc" horiz-adv-x="505" /><glyph d="M92 716H178V0H92ZM73 833 288 938 322 860 96 778Z" glyph-name="Iacute" horiz-adv-x="270" unicode="&#205;" /><glyph d="M65 644 240 725 270 660 86 598ZM81 550H163V0H81Z" glyph-name="Iacute.sc" horiz-adv-x="244" /><glyph d="M132 785Q64 785 25.5 826Q-13 867 -13 930H59Q59 904 76.5 881Q94 858 132 858Q170 858 187.5 881Q205 904 205 930H277Q277 867 238.5 826Q200 785 132 785ZM92 716H178V0H92Z" glyph-name="Ibreve" horiz-adv-x="270" unicode="&#300;" /><glyph d="M120 604Q66 604 33 635Q0 666 -1 717H63Q63 700 75.5 681.5Q88 663 120 663Q150 663 163 681.5Q176 700 176 717H240Q239 666 206.5 635Q174 604 120 604ZM81 550H163V0H81Z" glyph-name="Ibreve.sc" horiz-adv-x="244" /><glyph d="M92 716H178V0H92ZM-36 822 105 938H160L302 822L271 778L133 864L-6 778Z" glyph-name="Icircumflex" horiz-adv-x="270" unicode="&#206;" /><glyph d="M-19 634 95 725H144L258 634L231 598L120 664L8 598ZM81 550H163V0H81Z" glyph-name="Icircumflex.sc" horiz-adv-x="244" /><glyph d="M50 801Q27 801 9.5 817Q-8 833 -8 861Q-8 889 9.5 905Q27 921 51 921Q76 921 93.5 905Q111 889 111 862Q111 833 93.5 817Q76 801 50 801ZM225 801Q202 801 184.5 817Q167 833 167 861Q167 889 184.5 905Q202 921 226 921Q251 921 268.5 905Q286 889 286 862Q286 833 268.5 817Q251 801 225 801ZM92 716H178V0H92Z" glyph-name="Idieresis" horiz-adv-x="270" unicode="&#207;" /><glyph d="M51 615Q30 615 15.5 628.5Q1 642 1 664Q1 686 15.5 699Q30 712 52 712Q75 712 89 699Q103 686 103 665Q103 642 88.5 628.5Q74 615 51 615ZM195 615Q174 615 159.5 628.5Q145 642 145 664Q145 686 159.5 699Q174 712 196 712Q219 712 233 699Q247 686 247 665Q247 642 232.5 628.5Q218 615 195 615ZM81 550H163V0H81Z" glyph-name="Idieresis.sc" horiz-adv-x="244" /><glyph d="M92 716H178V0H92ZM132 801Q107 801 89.5 817.5Q72 834 72 863Q72 892 89.5 908.5Q107 925 133 925Q159 925 177 909Q195 893 195 864Q195 834 177 817.5Q159 801 132 801Z" glyph-name="Idotaccent" horiz-adv-x="270" unicode="&#304;" /><glyph d="M119 615Q96 615 82 628.5Q68 642 68 665Q68 688 82.5 701.5Q97 715 120 715Q144 715 158.5 701.5Q173 688 173 666Q173 643 158.5 629Q144 615 119 615ZM81 550H163V0H81Z" glyph-name="Idotaccent.sc" horiz-adv-x="244" /><glyph d="M92 716H178V0H92ZM-47 860 -13 938 202 833 179 778Z" glyph-name="Igrave" horiz-adv-x="270" unicode="&#204;" /><glyph d="M-24 660 6 725 181 644 160 598ZM81 550H163V0H81Z" glyph-name="Igrave.sc" horiz-adv-x="244" /><glyph d="M92 716H178V0H92ZM-5 896H275V819H-5Z" glyph-name="Imacron" horiz-adv-x="270" unicode="&#298;" /><glyph d="M8 693H235V629H8ZM81 550H163V0H81Z" glyph-name="Imacron.sc" horiz-adv-x="244" /><glyph d="M107 -224Q62 -224 34 -197Q6 -170 6 -128Q6 -112 10.5 -93.5Q15 -75 25 -58Q35 -41 51.5 -26Q68 -11 92 0V716H178V0Q122 -32 104.5 -61.5Q87 -91 87 -112Q87 -156 136 -156Q150 -156 162 -151Q174 -146 183 -141Q193 -134 201 -125V-185Q192 -196 178 -205Q166 -212 149 -218Q132 -224 107 -224Z" glyph-name="Iogonek" horiz-adv-x="270" unicode="&#302;" /><glyph d="M81 0V550H163V0Q120 -23 106 -45Q92 -67 92 -84Q92 -118 130 -118Q152 -118 166 -107Q180 -96 182 -95V-143Q181 -144 175.5 -148.5Q170 -153 160.5 -158.5Q151 -164 137 -168.5Q123 -173 105 -173Q67 -173 43.5 -151.5Q20 -130 20 -98Q20 -71 35.5 -43Q51 -15 89 0Z" glyph-name="Iogonek.sc" horiz-adv-x="244" /><glyph d="M-30 804Q-26 838 -15 864Q-5 888 13.5 906Q32 924 65 924Q92 924 109.5 913Q127 902 141 891Q157 880 169 870Q181 860 195 860Q205 860 211.5 867.5Q218 875 221 884Q225 895 227 908H287Q284 876 273 850Q264 826 245.5 809Q227 792 193 792Q169 792 152 803Q135 814 120 825Q106 835 93 845.5Q80 856 66 856Q54 856 47 848Q40 840 36 830Q32 819 30 804ZM92 716H178V0H92Z" glyph-name="Itilde" horiz-adv-x="270" unicode="&#296;" /><glyph d="M-15 618Q-15 621 -12 636.5Q-9 652 -0.5 669Q8 686 24 700Q40 714 66 714Q88 714 101.5 706Q115 698 128 690Q141 681 150.5 673.5Q160 666 172 666Q180 666 185 671.5Q190 677 193 684Q197 692 198 702H250Q250 699 247.5 684Q245 669 237 652.5Q229 636 213.5 622.5Q198 609 172 609Q152 609 138.5 617Q125 625 112 633Q99 641 89 648.5Q79 656 67 656Q58 656 52 650Q46 644 43 637Q39 629 38 618ZM81 550H163V0H81Z" glyph-name="Itilde.sc" horiz-adv-x="244" /><glyph d="M106 -10Q88 -10 72 -7Q56 -4 45 -1Q31 3 19 8V81Q31 76 44 73Q55 69 69 66.5Q83 64 98 64Q134 64 150.5 86.5Q167 109 167 162V716H253V160Q253 77 215 33.5Q177 -10 106 -10Z" glyph-name="J" horiz-adv-x="340" unicode="J" /><glyph d="M93 -8Q78 -8 65 -6Q52 -4 43 -2Q31 1 22 5V71Q31 68 41 65Q50 63 60.5 61Q71 59 83 59Q112 59 125.5 76.5Q139 94 139 133V550H221V131Q221 62 188 27Q155 -8 93 -8Z" glyph-name="J.sc" horiz-adv-x="298" /><glyph d="M40 822 181 938H236L378 822L347 778L209 864L70 778ZM106 -10Q88 -10 72 -7Q56 -4 45 -1Q31 3 19 8V81Q31 76 44 73Q55 69 69 66.5Q83 64 98 64Q134 64 150.5 86.5Q167 109 167 162V716H253V160Q253 77 215 33.5Q177 -10 106 -10Z" glyph-name="Jcircumflex" horiz-adv-x="340" unicode="&#308;" /><glyph d="M41 634 154 725H203L318 634L290 598L179 664L67 598ZM93 -8Q78 -8 65 -6Q52 -4 43 -2Q31 1 22 5V71Q31 68 41 65Q50 63 60.5 61Q71 59 83 59Q112 59 125.5 76.5Q139 94 139 133V550H221V131Q221 62 188 27Q155 -8 93 -8Z" glyph-name="Jcircumflex.sc" horiz-adv-x="298" /><glyph d="M92 716H178V401H228L455 716H547L298 371L561 0H460L228 327H178V0H92Z" glyph-name="K" horiz-adv-x="571" unicode="K" /><glyph d="M81 550H163V313H200L376 550H462L266 285L474 0H380L200 246H163V0H81Z" glyph-name="K.sc" horiz-adv-x="488" /><glyph d="M91 716H177V401H227L338 555Q392 630 454 673Q516 716 601 716H1015V639H811V0H725V639H606Q570 639 542.5 632Q515 625 490 608Q465 591 440.5 564Q416 537 387 496L297 371L560 0H459L227 327H177V0H91Z" glyph-name="K_T" horiz-adv-x="1029" /><glyph d="M81 550H163V313H200L279 419Q325 480 378 515Q431 550 507 550H843V481H682V0H600V481H512Q482 481 458.5 475.5Q435 470 414 457Q393 444 373.5 423Q354 402 331 372L266 285L474 0H380L200 246H163V0H81Z" glyph-name="K_T.sc" horiz-adv-x="861" /><glyph d="M91 716H177V401H227L338 555Q392 630 454 673Q516 716 601 716H1015V639H811V0H725V639H606Q570 639 542.5 632Q515 625 490 608Q465 591 440.5 564Q416 537 387 496L297 371L560 0H459L227 327H177V0H91ZM722 -268 758 -185Q735 -180 721 -165Q707 -150 707 -126Q707 -103 722.5 -84Q738 -65 767 -65Q796 -65 810.5 -83.5Q825 -102 825 -129Q825 -161 809.5 -200Q794 -239 768 -287Z" glyph-name="K_Tcommaaccent" horiz-adv-x="1029" /><glyph d="M81 550H163V313H200L279 419Q325 480 378 515Q431 550 507 550H843V481H682V0H600V481H512Q482 481 458.5 475.5Q435 470 414 457Q393 444 373.5 423Q354 402 331 372L266 285L474 0H380L200 246H163V0H81ZM603 -229 632 -164Q611 -160 599 -147.5Q587 -135 587 -115Q587 -96 600.5 -80.5Q614 -65 640 -65Q666 -65 678.5 -80Q691 -95 691 -118Q691 -144 677.5 -175Q664 -206 643 -244Z" glyph-name="K_Tcommaaccent.sc" horiz-adv-x="861" /><glyph d="M91 716H177V401H227L338 555Q373 603 403.5 642Q434 681 468 708.5Q502 736 544 751Q586 766 643 766H740V444Q753 462 773 476Q791 489 816.5 498.5Q842 508 879 508Q932 508 970.5 489Q1009 470 1033.5 436.5Q1058 403 1070 358Q1082 313 1082 261Q1082 133 1025 63Q968 -7 866 -7Q830 -7 800.5 5Q771 17 735 45L719 0H655V699H637Q604 699 575.5 687.5Q547 676 518 651.5Q489 627 457.5 588.5Q426 550 387 496L297 371L560 0H459L227 327H177V0H91ZM740 98Q754 88 771 81Q786 74 805.5 69Q825 64 849 64Q888 64 915.5 78Q943 92 960.5 118Q978 144 985.5 180Q993 216 993 260Q993 343 960.5 389.5Q928 436 856 436Q827 436 805.5 426Q784 416 769 405Q752 391 740 373Z" glyph-name="K_b" horiz-adv-x="1132" /><glyph d="M91 716H177V401H227L338 555Q373 603 404 642Q435 681 470 708.5Q505 736 547.5 751Q590 766 648 766H745V441Q761 460 784 475Q805 488 834 498Q863 508 903 508Q950 508 981.5 492.5Q1013 477 1033 450Q1053 423 1061.5 386Q1070 349 1070 306V0H985V302Q985 369 957.5 402.5Q930 436 870 436Q839 436 816 427.5Q793 419 777 409Q759 397 745 382V0H660V699H642Q608 699 579 688Q550 677 520.5 652.5Q491 628 458.5 589.5Q426 551 387 496L297 371L560 0H459L227 327H177V0H91Z" glyph-name="K_h" horiz-adv-x="1143" /><glyph d="M91 716H177V401H227L338 555Q373 603 404 642Q435 681 470 708.5Q505 736 547.5 751Q590 766 648 766H745V288H789L958 500H1051L861 266L1066 0H960L790 222H745V0H660V699H642Q608 699 579 688Q550 677 520.5 652.5Q491 628 458.5 589.5Q426 551 387 496L297 371L560 0H459L227 327H177V0H91Z" glyph-name="K_k" horiz-adv-x="1071" /><glyph d="M91 716H177V401H227L338 555Q372 602 401.5 641Q431 680 463 708Q495 736 534.5 751Q574 766 628 766H723V130Q723 90 737 75Q751 60 782 60H785V0Q779 -2 771 -4Q763 -5 753.5 -6Q744 -7 732 -7Q687 -7 662.5 21.5Q638 50 638 107V699H622Q591 699 564.5 687.5Q538 676 511.5 651Q485 626 455 587.5Q425 549 387 496L297 371L560 0H459L227 327H177V0H91Z" glyph-name="K_l" horiz-adv-x="821" /><glyph d="M91 716H177V401H227L338 555Q372 602 401.5 641Q431 680 463 708Q495 736 534.5 751Q574 766 628 766H723V130Q723 90 737 75Q751 60 782 60H785V0Q779 -2 771 -4Q763 -5 753.5 -6Q744 -7 732 -7Q687 -7 662.5 21.5Q638 50 638 107V699H622Q591 699 564.5 687.5Q538 676 511.5 651Q485 626 455 587.5Q425 549 387 496L297 371L560 0H459L227 327H177V0H91ZM562 853 777 958 811 880 585 798Z" glyph-name="K_lacute" horiz-adv-x="821" /><glyph d="M91 716H177V401H227L338 555Q372 602 401.5 641Q431 680 463 708Q495 736 534.5 751Q574 766 628 766H723V130Q723 90 737 75Q751 60 782 60H785V0Q779 -2 771 -4Q763 -5 753.5 -6Q744 -7 732 -7Q687 -7 662.5 21.5Q638 50 638 107V699H622Q591 699 564.5 687.5Q538 676 511.5 651Q485 626 455 587.5Q425 549 387 496L297 371L560 0H459L227 327H177V0H91ZM794 572 830 655Q807 660 793 675Q779 690 779 714Q779 737 794.5 756Q810 775 839 775Q868 775 882.5 756.5Q897 738 897 711Q897 679 881.5 640Q866 601 840 553Z" glyph-name="K_lcaron" horiz-adv-x="848" /><glyph d="M91 716H177V401H227L338 555Q372 602 401.5 641Q431 680 463 708Q495 736 534.5 751Q574 766 628 766H723V130Q723 90 737 75Q751 60 782 60H785V0Q779 -2 771 -4Q763 -5 753.5 -6Q744 -7 732 -7Q687 -7 662.5 21.5Q638 50 638 107V699H622Q591 699 564.5 687.5Q538 676 511.5 651Q485 626 455 587.5Q425 549 387 496L297 371L560 0H459L227 327H177V0H91ZM660 -268 696 -185Q673 -180 659 -165Q645 -150 645 -126Q645 -103 660.5 -84Q676 -65 705 -65Q734 -65 748.5 -83.5Q763 -102 763 -129Q763 -161 747.5 -200Q732 -239 706 -287Z" glyph-name="K_lcommaaccent" horiz-adv-x="821" /><glyph d="M732 -7Q687 -7 662.5 21.5Q638 50 638 107V348L553 305V377L638 420V699H622Q591 699 564.5 687.5Q538 676 511.5 651Q485 626 455 587.5Q425 549 387 496L297 371L560 0H459L227 327H177V0H91V716H177V401H227L338 555Q372 602 401.5 641Q431 680 463 708Q495 736 534.5 751Q574 766 628 766H723V464L808 507V435L723 392V130Q723 91 736.5 76Q750 61 782 60H785V0Q779 -2 771 -4Q763 -5 753.5 -6Q744 -7 732 -7Z" glyph-name="K_lslash" horiz-adv-x="843" /><glyph d="M683 -7Q608 -7 551 12Q494 31 447.5 64.5Q401 98 362.5 143.5Q324 189 286 243L227 327H177V0H91V716H177V401H227L454 716H546L297 371L365 274Q400 224 435 184Q470 144 508.5 116.5Q547 89 590.5 74Q634 59 685 59Q756 59 792.5 79Q829 99 829 136Q829 163 805 183.5Q781 204 723 221Q695 229 668.5 240.5Q642 252 621.5 269Q601 286 588.5 311Q576 336 576 371Q576 435 625 471.5Q674 508 761 508Q789 508 810.5 505Q832 502 847 499Q865 494 879 489V421Q864 427 846 431Q829 435 808 438Q787 441 761 441Q705 441 680 421Q655 401 655 372Q655 341 680.5 322Q706 303 760 289Q840 268 874.5 233.5Q909 199 909 145Q909 77 853 35Q797 -7 683 -7Z" glyph-name="K_s" horiz-adv-x="950" /><glyph d="M683 -7Q608 -7 551 12Q494 31 447.5 64.5Q401 98 362.5 143.5Q324 189 286 243L227 327H177V0H91V716H177V401H227L454 716H546L297 371L365 274Q400 224 435 184Q470 144 508.5 116.5Q547 89 590.5 74Q634 59 685 59Q756 59 792.5 79Q829 99 829 136Q829 163 805 183.5Q781 204 723 221Q695 229 668.5 240.5Q642 252 621.5 269Q601 286 588.5 311Q576 336 576 371Q576 435 625 471.5Q674 508 761 508Q789 508 810.5 505Q832 502 847 499Q865 494 879 489V421Q864 427 846 431Q829 435 808 438Q787 441 761 441Q705 441 680 421Q655 401 655 372Q655 341 680.5 322Q706 303 760 289Q840 268 874.5 233.5Q909 199 909 145Q909 77 853 35Q797 -7 683 -7ZM691 622 862 761 905 698 725 575Z" glyph-name="K_sacute" horiz-adv-x="950" /><glyph d="M683 -7Q608 -7 551 12Q494 31 447.5 64.5Q401 98 362.5 143.5Q324 189 286 243L227 327H177V0H91V716H177V401H227L454 716H546L297 371L365 274Q400 224 435 184Q470 144 508.5 116.5Q547 89 590.5 74Q634 59 685 59Q756 59 792.5 79Q829 99 829 136Q829 163 805 183.5Q781 204 723 221Q695 229 668.5 240.5Q642 252 621.5 269Q601 286 588.5 311Q576 336 576 371Q576 435 625 471.5Q674 508 761 508Q789 508 810.5 505Q832 502 847 499Q865 494 879 489V421Q864 427 846 431Q829 435 808 438Q787 441 761 441Q705 441 680 421Q655 401 655 372Q655 341 680.5 322Q706 303 760 289Q840 268 874.5 233.5Q909 199 909 145Q909 77 853 35Q797 -7 683 -7ZM575 719 613 761 736 652 858 761 897 719 752 575H719Z" glyph-name="K_scaron" horiz-adv-x="950" /><glyph d="M857 -127Q857 -155 842.5 -176.5Q828 -198 803.5 -212Q779 -226 746.5 -231Q714 -236 677 -231V-177Q724 -179 750.5 -168Q777 -157 777 -134Q777 -117 756 -107Q735 -97 682 -99L691 -7Q611 -7 552 12Q493 31 446.5 64.5Q400 98 362 144Q324 190 286 243L227 327H177V0H91V716H177V401H227L454 716H546L297 371L365 274Q400 224 435 184Q470 144 508.5 116.5Q547 89 590.5 74Q634 59 685 59Q756 59 792.5 79Q829 99 829 136Q829 163 805 183.5Q781 204 723 221Q695 229 668.5 240.5Q642 252 621.5 269Q601 286 588.5 311Q576 336 576 371Q576 435 625 471.5Q674 508 761 508Q789 508 810.5 505Q832 502 847 499Q865 494 879 489V421Q864 427 846 431Q829 435 808 438Q787 441 761 441Q705 441 680 421Q655 401 655 372Q655 341 680.5 322Q706 303 760 289Q840 268 874.5 233.5Q909 199 909 145Q909 88 870.5 49.5Q832 11 754 -2L750 -43Q806 -46 831.5 -67.5Q857 -89 857 -127Z" glyph-name="K_scedilla" horiz-adv-x="950" /><glyph d="M92 716H178V401H228L455 716H547L298 371L561 0H460L228 327H178V0H92ZM255 -268 291 -185Q268 -180 254 -165Q240 -150 240 -126Q240 -103 255.5 -84Q271 -65 300 -65Q329 -65 343.5 -83.5Q358 -102 358 -129Q358 -161 342.5 -200Q327 -239 301 -287Z" glyph-name="Kcommaaccent" horiz-adv-x="571" unicode="&#310;" /><glyph d="M81 550H163V313H200L376 550H462L266 285L474 0H380L200 246H163V0H81ZM220 -229 250 -164Q229 -160 217 -147.5Q205 -135 205 -115Q205 -96 218.5 -80.5Q232 -65 258 -65Q283 -65 296 -80Q309 -95 309 -118Q309 -144 295.5 -175Q282 -206 260 -244Z" glyph-name="Kcommaaccent.sc" horiz-adv-x="488" /><glyph d="M91 716H177V401H227L338 555Q392 630 454 673Q516 716 601 716H1015V639H811V0H725V639H606Q570 639 542.5 632Q515 625 490 608Q465 591 440.5 564Q416 537 387 496L297 371L560 0H459L227 327H177V0H91ZM254 -268 290 -185Q267 -180 253 -165Q239 -150 239 -126Q239 -103 254.5 -84Q270 -65 299 -65Q328 -65 342.5 -83.5Q357 -102 357 -129Q357 -161 341.5 -200Q326 -239 300 -287Z" glyph-name="Kcommaaccent_T" horiz-adv-x="1029" /><glyph d="M81 550H163V313H200L279 419Q325 480 378 515Q431 550 507 550H843V481H682V0H600V481H512Q482 481 458.5 475.5Q435 470 414 457Q393 444 373.5 423Q354 402 331 372L266 285L474 0H380L200 246H163V0H81ZM220 -229 250 -164Q229 -160 217 -147.5Q205 -135 205 -115Q205 -96 218.5 -80.5Q232 -65 258 -65Q283 -65 296 -80Q309 -95 309 -118Q309 -144 295.5 -175Q282 -206 260 -244Z" glyph-name="Kcommaaccent_T.sc" horiz-adv-x="861" /><glyph d="M683 -7Q608 -7 551 12Q494 31 447.5 64.5Q401 98 362.5 143.5Q324 189 286 243L227 327H177V0H91V716H177V401H227L454 716H546L297 371L365 274Q400 224 435 184Q470 144 508.5 116.5Q547 89 590.5 74Q634 59 685 59Q756 59 792.5 79Q829 99 829 136Q829 163 805 183.5Q781 204 723 221Q695 229 668.5 240.5Q642 252 621.5 269Q601 286 588.5 311Q576 336 576 371Q576 435 625 471.5Q674 508 761 508Q789 508 810.5 505Q832 502 847 499Q865 494 879 489V421Q864 427 846 431Q829 435 808 438Q787 441 761 441Q705 441 680 421Q655 401 655 372Q655 341 680.5 322Q706 303 760 289Q840 268 874.5 233.5Q909 199 909 145Q909 77 853 35Q797 -7 683 -7ZM294 -268 330 -185Q307 -180 293 -165Q279 -150 279 -126Q279 -103 294.5 -84Q310 -65 339 -65Q368 -65 382.5 -83.5Q397 -102 397 -129Q397 -161 381.5 -200Q366 -239 340 -287Z" glyph-name="Kcommaaccent_s" horiz-adv-x="950" /><glyph d="M683 -7Q608 -7 551 12Q494 31 447.5 64.5Q401 98 362.5 143.5Q324 189 286 243L227 327H177V0H91V716H177V401H227L454 716H546L297 371L365 274Q400 224 435 184Q470 144 508.5 116.5Q547 89 590.5 74Q634 59 685 59Q756 59 792.5 79Q829 99 829 136Q829 163 805 183.5Q781 204 723 221Q695 229 668.5 240.5Q642 252 621.5 269Q601 286 588.5 311Q576 336 576 371Q576 435 625 471.5Q674 508 761 508Q789 508 810.5 505Q832 502 847 499Q865 494 879 489V421Q864 427 846 431Q829 435 808 438Q787 441 761 441Q705 441 680 421Q655 401 655 372Q655 341 680.5 322Q706 303 760 289Q840 268 874.5 233.5Q909 199 909 145Q909 77 853 35Q797 -7 683 -7ZM575 719 613 761 736 652 858 761 897 719 752 575H719ZM294 -268 330 -185Q307 -180 293 -165Q279 -150 279 -126Q279 -103 294.5 -84Q310 -65 339 -65Q368 -65 382.5 -83.5Q397 -102 397 -129Q397 -161 381.5 -200Q366 -239 340 -287Z" glyph-name="Kcommaaccent_scaron" horiz-adv-x="950" /><glyph d="M92 716H178V77H472V0H92Z" glyph-name="L" horiz-adv-x="485" unicode="L" /><glyph d="M81 550H163V69H395V0H81Z" glyph-name="L.sc" horiz-adv-x="413" /><glyph d="M784 252 671 583 564 252ZM91 716H177V77H422L642 720H710L955 0H868L809 177H540L481 0H91Z" glyph-name="L_A" horiz-adv-x="969" /><glyph d="M642 196 557 439 476 196ZM81 550H163V69H355L525 553H598L792 0H709L665 129H454L410 0H81Z" glyph-name="L_A.sc" horiz-adv-x="809" /><glyph d="M784 252 671 583 564 252ZM91 716H177V77H422L642 720H710L955 0H868L809 177H540L481 0H91ZM616 833 831 938 865 860 639 778Z" glyph-name="L_Aacute" horiz-adv-x="969" /><glyph d="M507 644 681 725 711 660 528 597ZM642 196 557 439 476 196ZM81 550H163V69H355L525 553H598L792 0H709L665 129H454L410 0H81Z" glyph-name="L_Aacute.sc" horiz-adv-x="809" /><glyph d="M784 252 671 583 564 252ZM91 716H177V77H422L642 720H710L955 0H868L809 177H540L481 0H91ZM675 785Q607 785 568.5 826Q530 867 530 930H602Q602 904 619.5 881Q637 858 675 858Q713 858 730.5 881Q748 904 748 930H820Q820 867 781.5 826Q743 785 675 785Z" glyph-name="L_Abreve" horiz-adv-x="969" /><glyph d="M561 604Q507 604 474.5 635Q442 666 441 717H504Q504 700 517 681.5Q530 663 561 663Q592 663 605 681.5Q618 700 618 717H681Q680 666 647.5 635Q615 604 561 604ZM642 196 557 439 476 196ZM81 550H163V69H355L525 553H598L792 0H709L665 129H454L410 0H81Z" glyph-name="L_Abreve.sc" horiz-adv-x="809" /><glyph d="M784 252 671 583 564 252ZM91 716H177V77H422L642 720H710L955 0H868L809 177H540L481 0H91ZM506 822 647 938H702L844 822L813 778L675 864L536 778Z" glyph-name="L_Acircumflex" horiz-adv-x="969" /><glyph d="M422 634 536 725H585L699 634L672 598L561 664L449 598ZM642 196 557 439 476 196ZM81 550H163V69H355L525 553H598L792 0H709L665 129H454L410 0H81Z" glyph-name="L_Acircumflex.sc" horiz-adv-x="809" /><glyph d="M784 252 671 583 564 252ZM91 716H177V77H422L642 720H710L955 0H868L809 177H540L481 0H91ZM581 801Q558 801 540.5 817Q523 833 523 861Q523 889 540.5 905Q558 921 582 921Q607 921 624.5 905Q642 889 642 862Q642 833 624.5 817Q607 801 581 801ZM766 801Q743 801 725.5 817Q708 833 708 861Q708 889 725.5 905Q743 921 767 921Q792 921 809.5 905Q827 889 827 862Q827 833 809.5 817Q792 801 766 801Z" glyph-name="L_Adieresis" horiz-adv-x="969" /><glyph d="M484 615Q463 615 448.5 628.5Q434 642 434 664Q434 686 448.5 699Q463 712 485 712Q508 712 522 699Q536 686 536 665Q536 642 521.5 628.5Q507 615 484 615ZM635 615Q614 615 599.5 628.5Q585 642 585 664Q585 686 599.5 699Q614 712 636 712Q659 712 673 699Q687 686 687 665Q687 642 672.5 628.5Q658 615 635 615ZM642 196 557 439 476 196ZM81 550H163V69H355L525 553H598L792 0H709L665 129H454L410 0H81Z" glyph-name="L_Adieresis.sc" horiz-adv-x="809" /><glyph d="M784 252 671 583 564 252ZM91 716H177V77H422L642 720H710L955 0H868L809 177H540L481 0H91ZM486 860 520 938 735 833 712 778Z" glyph-name="L_Agrave" horiz-adv-x="969" /><glyph d="M412 660 442 725 616 644 595 598ZM642 196 557 439 476 196ZM81 550H163V69H355L525 553H598L792 0H709L665 129H454L410 0H81Z" glyph-name="L_Agrave.sc" horiz-adv-x="809" /><glyph d="M533 896H813V819H533ZM784 252 671 583 564 252ZM91 716H177V77H422L642 720H710L955 0H868L809 177H540L481 0H91Z" glyph-name="L_Amacron" horiz-adv-x="969" /><glyph d="M446 693H673V629H446ZM642 196 557 439 476 196ZM81 550H163V69H355L525 553H598L792 0H709L665 129H454L410 0H81Z" glyph-name="L_Amacron.sc" horiz-adv-x="809" /><glyph d="M884 -224Q839 -224 811 -197Q783 -170 783 -128Q783 -112 787.5 -93.5Q792 -75 802 -58Q812 -41 828.5 -26Q845 -11 869 0H868L809 177H540L481 0H91V716H177V77H422L642 720H710L955 0Q899 -32 881.5 -61.5Q864 -91 864 -112Q864 -156 913 -156Q927 -156 939 -151Q951 -146 960 -141Q970 -134 978 -125V-185Q969 -196 955 -205Q943 -212 926 -218Q909 -224 884 -224ZM784 252 671 583 564 252Z" glyph-name="L_Aogonek" horiz-adv-x="969" /><glyph d="M709 0 665 129H454L410 0H81V550H163V69H355L525 553H598L792 0Q750 -21 735 -44Q720 -67 720 -84Q720 -118 758 -118Q780 -118 794 -107Q808 -96 810 -95V-143Q809 -144 803.5 -148.5Q798 -153 788.5 -158.5Q779 -164 765 -168.5Q751 -173 733 -173Q695 -173 671.5 -151.5Q648 -130 648 -98Q648 -71 663.5 -43Q679 -15 717 0ZM642 196 557 439 476 196Z" glyph-name="L_Aogonek.sc" horiz-adv-x="809" /><glyph d="M784 252 671 583 564 252ZM91 716H177V77H422L642 720H710L955 0H868L809 177H540L481 0H91ZM673 769Q622 769 590 793.5Q558 818 558 860Q558 900 590 926Q622 952 673 952Q724 952 757 926Q790 900 790 860Q790 818 758.5 793.5Q727 769 673 769ZM673 821Q696 821 711 831.5Q726 842 726 862Q726 879 710.5 889.5Q695 900 673 900Q650 900 636 889.5Q622 879 622 862Q622 842 636 831.5Q650 821 673 821Z" glyph-name="L_Aring" horiz-adv-x="969" /><glyph d="M559 592Q517 592 491 611Q465 630 465 663Q465 695 491 715Q517 735 559 735Q602 735 628.5 715Q655 695 655 663Q655 630 629.5 611Q604 592 559 592ZM559 634Q577 634 589 642Q601 650 601 664Q601 678 588.5 685.5Q576 693 559 693Q542 693 530.5 685.5Q519 678 519 664Q519 650 530.5 642Q542 634 559 634ZM642 196 557 439 476 196ZM81 550H163V69H355L525 553H598L792 0H709L665 129H454L410 0H81Z" glyph-name="L_Aring.sc" horiz-adv-x="809" /><glyph d="M784 252 671 583 564 252ZM91 716H177V77H422L642 720H710L955 0H868L809 177H540L481 0H91ZM519 804Q523 838 534 864Q544 888 562.5 906Q581 924 614 924Q641 924 658.5 913Q676 902 690 891Q706 880 718 870Q730 860 744 860Q754 860 760.5 867.5Q767 875 770 884Q774 895 776 908H836Q833 876 822 850Q813 826 794.5 809Q776 792 742 792Q718 792 701 803Q684 814 669 825Q655 835 642 845.5Q629 856 615 856Q603 856 596 848Q589 840 585 830Q581 819 579 804Z" glyph-name="L_Atilde" horiz-adv-x="969" /><glyph d="M431 618Q431 621 434 636.5Q437 652 445.5 669Q454 686 470 700Q486 714 512 714Q534 714 547.5 706Q561 698 573 690Q587 681 596.5 673.5Q606 666 617 666Q625 666 630 671.5Q635 677 638 684Q642 692 643 702H696Q696 699 693.5 684Q691 669 683 652.5Q675 636 659.5 622.5Q644 609 617 609Q597 609 584 617Q571 625 558 633Q545 641 535 648.5Q525 656 513 656Q504 656 498 650Q492 644 489 637Q485 629 484 618ZM642 196 557 439 476 196ZM81 550H163V69H355L525 553H598L792 0H709L665 129H454L410 0H81Z" glyph-name="L_Atilde.sc" horiz-adv-x="809" /><glyph d="M92 716H178V77H472V0H92ZM105 833 320 938 354 860 128 778Z" glyph-name="Lacute" horiz-adv-x="485" unicode="&#313;" /><glyph d="M93 644 268 725 298 660 114 598ZM81 550H163V69H395V0H81Z" glyph-name="Lacute.sc" horiz-adv-x="413" /><glyph d="M92 716H178V77H472V0H92ZM368 523 404 606Q381 611 367 626Q353 641 353 665Q353 688 368.5 707Q384 726 413 726Q442 726 456.5 707.5Q471 689 471 662Q471 630 455.5 591Q440 552 414 504Z" glyph-name="Lcaron" horiz-adv-x="517" unicode="&#317;" /><glyph d="M311 397 341 462Q320 466 308 478Q296 490 296 510Q296 530 309.5 545Q323 560 349 560Q374 560 387 545Q400 530 400 507Q400 481 386 450Q372 419 351 381ZM81 550H163V69H395V0H81Z" glyph-name="Lcaron.sc" horiz-adv-x="443" /><glyph d="M784 252 671 583 564 252ZM91 716H177V77H422L642 720H710L955 0H868L809 177H540L481 0H91ZM367 523 403 606Q380 611 366 626Q352 641 352 665Q352 688 367.5 707Q383 726 412 726Q441 726 455.5 707.5Q470 689 470 662Q470 630 454.5 591Q439 552 413 504Z" glyph-name="Lcaron_A" horiz-adv-x="969" /><glyph d="M306 397 335 462Q315 466 303 478Q291 490 291 510Q291 530 304 545Q317 560 343 560Q369 560 382 545Q395 530 395 507Q395 481 381 450Q367 419 346 381ZM642 196 557 439 476 196ZM81 550H163V69H355L525 553H598L792 0H709L665 129H454L410 0H81Z" glyph-name="Lcaron_A.sc" horiz-adv-x="809" /><glyph d="M92 716H178V77H472V0H92ZM250 -268 286 -185Q263 -180 249 -165Q235 -150 235 -126Q235 -103 250.5 -84Q266 -65 295 -65Q324 -65 338.5 -83.5Q353 -102 353 -129Q353 -161 337.5 -200Q322 -239 296 -287Z" glyph-name="Lcommaaccent" horiz-adv-x="485" unicode="&#315;" /><glyph d="M81 550H163V69H395V0H81ZM210 -229 240 -164Q219 -160 207 -147.5Q195 -135 195 -115Q195 -96 208.5 -80.5Q222 -65 248 -65Q273 -65 286 -80Q299 -95 299 -118Q299 -144 285 -175Q271 -206 250 -244Z" glyph-name="Lcommaaccent.sc" horiz-adv-x="413" /><glyph d="M784 252 671 583 564 252ZM91 716H177V77H422L642 720H710L955 0H868L809 177H540L481 0H91ZM249 -268 285 -185Q262 -180 248 -165Q234 -150 234 -126Q234 -103 249.5 -84Q265 -65 294 -65Q323 -65 337.5 -83.5Q352 -102 352 -129Q352 -161 336.5 -200Q321 -239 295 -287Z" glyph-name="Lcommaaccent_A" horiz-adv-x="969" /><glyph d="M642 196 557 439 476 196ZM81 550H163V69H355L525 553H598L792 0H709L665 129H454L410 0H81ZM210 -229 240 -164Q219 -160 207 -147.5Q195 -135 195 -115Q195 -96 208.5 -80.5Q222 -65 248 -65Q273 -65 286 -80Q299 -95 299 -118Q299 -144 285 -175Q271 -206 250 -244Z" glyph-name="Lcommaaccent_A.sc" horiz-adv-x="809" /><glyph d="M533 896H813V819H533ZM784 252 671 583 564 252ZM91 716H177V77H422L642 720H710L955 0H868L809 177H540L481 0H91ZM249 -268 285 -185Q262 -180 248 -165Q234 -150 234 -126Q234 -103 249.5 -84Q265 -65 294 -65Q323 -65 337.5 -83.5Q352 -102 352 -129Q352 -161 336.5 -200Q321 -239 295 -287Z" glyph-name="Lcommaaccent_Amacron" horiz-adv-x="969" /><glyph d="M446 693H673V629H446ZM642 196 557 439 476 196ZM81 550H163V69H355L525 553H598L792 0H709L665 129H454L410 0H81ZM210 -229 240 -164Q219 -160 207 -147.5Q195 -135 195 -115Q195 -96 208.5 -80.5Q222 -65 248 -65Q273 -65 286 -80Q299 -95 299 -118Q299 -144 285 -175Q271 -206 250 -244Z" glyph-name="Lcommaaccent_Amacron.sc" horiz-adv-x="809" /><glyph d="M92 716H178V77H472V0H92ZM382 295Q354 295 338 313.5Q322 332 322 358Q322 384 338 402.5Q354 421 382 421Q410 421 426 402.5Q442 384 442 358Q442 332 426 313.5Q410 295 382 295Z" glyph-name="Ldot" horiz-adv-x="490" unicode="&#319;" /><glyph d="M81 550H163V69H395V0H81ZM325 227Q301 227 286.5 242Q272 257 272 279Q272 302 286.5 317Q301 332 325 332Q350 332 364.5 317Q379 302 379 279Q379 257 364.5 242Q350 227 325 227Z" glyph-name="Ldot.sc" horiz-adv-x="419" /><glyph d="M106 0V322L21 276V361L106 407V716H192V454L312 519V434L192 369V77H486V0Z" glyph-name="Lslash" horiz-adv-x="499" unicode="&#321;" /><glyph d="M91 0V240L27 208V279L91 311V550H173V353L271 402V330L173 281V69H406V0Z" glyph-name="Lslash.sc" horiz-adv-x="423" /><glyph d="M816 252 703 583 596 252ZM513 0H123V322L38 276V361L123 407V716H209V454L329 519V434L209 369V77H454L674 720H742L987 0H900L841 177H572Z" glyph-name="Lslash_A" horiz-adv-x="1001" /><glyph d="M668 196 582 439 501 196ZM106 240 41 208V279L106 312V550H188V353L286 402V330L188 281V69H380L551 553H623L817 0H734L690 129H479L435 0H106Z" glyph-name="Lslash_A.sc" horiz-adv-x="834" /><glyph d="M816 252 703 583 596 252ZM900 0 841 177H572L513 0H123V322L38 276V361L123 407V716H209V454L329 519V434L209 369V77H454L674 720H742L987 0Q931 -32 913.5 -61.5Q896 -91 896 -112Q896 -156 945 -156Q959 -156 971 -151Q983 -146 992 -141Q1002 -134 1010 -125V-185Q1001 -196 987 -205Q975 -212 958 -218Q941 -224 916 -224Q871 -224 843 -197Q815 -170 815 -128Q815 -112 819.5 -93.5Q824 -75 834 -58Q844 -41 860.5 -26Q877 -11 901 0Z" glyph-name="Lslash_Aogonek" horiz-adv-x="1001" /><glyph d="M734 0 690 129H479L435 0H106V240L41 208V279L106 312V550H188V353L286 402V330L188 281V69H380L551 553H623L817 0Q774 -23 759.5 -45Q745 -67 745 -84Q745 -118 784 -118Q806 -118 820 -107Q834 -96 836 -95V-143Q835 -144 829.5 -148.5Q824 -153 814.5 -158.5Q805 -164 791 -168.5Q777 -173 758 -173Q720 -173 696.5 -151.5Q673 -130 673 -98Q673 -71 689 -43Q705 -15 743 0ZM668 196 582 439 501 196Z" glyph-name="Lslash_Aogonek.sc" horiz-adv-x="834" /><glyph d="M178 587 154 0H76L108 716H208L411 176L612 716H707L740 0H656L632 586L435 48H375Z" glyph-name="M" horiz-adv-x="816" unicode="M" /><glyph d="M159 439 141 0H68L95 550H189L344 149L499 550H589L616 0H537L520 438L368 37H310Z" glyph-name="M.sc" horiz-adv-x="684" /><glyph d="M92 716H172L514 153V716H594V0H514L172 565V0H92Z" glyph-name="N" horiz-adv-x="686" unicode="N" /><glyph d="M81 550H156L421 136V550H496V0H421L156 415V0H81Z" glyph-name="N.sc" horiz-adv-x="577" /><glyph d="M701 408Q774 408 806.5 441Q839 474 839 531Q839 588 801 614.5Q763 641 693 641H599V408ZM513 716H693Q816 716 871.5 666Q927 616 927 532Q927 429 835 379Q870 369 894 351Q918 333 932.5 310Q947 287 953.5 260.5Q960 234 960 207Q960 153 942.5 114Q925 75 893 49.5Q861 24 816 12Q771 0 717 0H513L171 565V0H91V716H171L513 153ZM718 75Q794 75 832.5 109Q871 143 871 205Q871 268 836 300.5Q801 333 719 333H599V75Z" glyph-name="N_B" horiz-adv-x="1009" /><glyph d="M580 316Q634 316 659 339.5Q684 363 684 405Q684 446 655.5 465.5Q627 485 574 485H502V316ZM421 550H573Q675 550 720.5 511.5Q766 473 766 407Q766 367 747 338Q728 309 693 290Q747 276 770 239Q793 202 793 160Q793 78 737.5 39Q682 0 591 0H421L156 415V0H81V550H156L421 136ZM592 65Q649 65 678.5 89.5Q708 114 708 159Q708 204 681.5 227.5Q655 251 593 251H502V65Z" glyph-name="N_B.sc" horiz-adv-x="839" /><glyph d="M706 77Q759 77 802 93Q845 109 875.5 143Q906 177 922.5 230Q939 283 939 358Q939 433 922.5 486.5Q906 540 875 573.5Q844 607 801.5 623Q759 639 706 639H593V77ZM91 716H171L513 153V716H706Q861 716 944.5 627Q1028 538 1028 358Q1028 179 944.5 89.5Q861 0 706 0H513L171 565V0H91Z" glyph-name="N_D" horiz-adv-x="1083" /><glyph d="M581 69Q663 69 711.5 118.5Q760 168 760 275Q760 383 711 432Q662 481 581 481H498V69ZM81 550H156L421 136V550H580Q709 550 777 479.5Q845 409 845 275Q845 141 777 70.5Q709 0 580 0H421L156 415V0H81Z" glyph-name="N_D.sc" horiz-adv-x="895" /><glyph d="M91 716H171L513 153V716H885V639H593V402H837V325H593V77H885V0H513L171 565V0H91Z" glyph-name="N_E" horiz-adv-x="937" /><glyph d="M81 550H156L421 136V550H732V481H498V313H692V245H498V69H732V0H421L156 415V0H81Z" glyph-name="N_E.sc" horiz-adv-x="783" /><glyph d="M91 716H171L513 153V716H885V639H593V402H837V325H593V77H885V0H513L171 565V0H91ZM600 833 815 938 849 860 623 778Z" glyph-name="N_Eacute" horiz-adv-x="937" /><glyph d="M497 644 671 725 701 660 518 598ZM81 550H156L421 136V550H732V481H498V313H692V245H498V69H732V0H421L156 415V0H81Z" glyph-name="N_Eacute.sc" horiz-adv-x="783" /><glyph d="M91 716H171L513 153V716H885V639H593V402H837V325H593V77H885V0H513L171 565V0H91ZM535 894 565 938 704 852 842 938 873 894 731 778H676Z" glyph-name="N_Ecaron" horiz-adv-x="937" /><glyph d="M443 688 469 725 581 659 692 725 720 688 605 598H556ZM81 550H156L421 136V550H732V481H498V313H692V245H498V69H732V0H421L156 415V0H81Z" glyph-name="N_Ecaron.sc" horiz-adv-x="783" /><glyph d="M91 716H171L513 153V716H885V639H593V402H837V325H593V77H885V0H513L171 565V0H91ZM523 822 664 938H719L861 822L830 778L692 864L553 778Z" glyph-name="N_Ecircumflex" horiz-adv-x="937" /><glyph d="M434 634 547 725H597L711 634L683 598L572 664L460 598ZM81 550H156L421 136V550H732V481H498V313H692V245H498V69H732V0H421L156 415V0H81Z" glyph-name="N_Ecircumflex.sc" horiz-adv-x="783" /><glyph d="M91 716H171L513 153V716H885V639H593V402H837V325H593V77H885V0H513L171 565V0H91ZM607 801Q584 801 566.5 817Q549 833 549 861Q549 889 566.5 905Q584 921 608 921Q633 921 650.5 905Q668 889 668 862Q668 833 650.5 817Q633 801 607 801ZM792 801Q769 801 751.5 817Q734 833 734 861Q734 889 751.5 905Q769 921 793 921Q818 921 835.5 905Q853 889 853 862Q853 833 835.5 817Q818 801 792 801Z" glyph-name="N_Edieresis" horiz-adv-x="937" /><glyph d="M502 615Q480 615 466 628.5Q452 642 452 664Q452 686 466 699Q480 712 502 712Q525 712 539.5 699Q554 686 554 665Q554 642 539.5 628.5Q525 615 502 615ZM653 615Q631 615 617 628.5Q603 642 603 664Q603 686 617 699Q631 712 654 712Q677 712 691 699Q705 686 705 665Q705 642 690.5 628.5Q676 615 653 615ZM81 550H156L421 136V550H732V481H498V313H692V245H498V69H732V0H421L156 415V0H81Z" glyph-name="N_Edieresis.sc" horiz-adv-x="783" /><glyph d="M91 716H171L513 153V716H885V639H593V402H837V325H593V77H885V0H513L171 565V0H91ZM700 801Q675 801 657.5 817.5Q640 834 640 863Q640 892 657.5 908.5Q675 925 701 925Q727 925 745 909Q763 893 763 864Q763 834 745 817.5Q727 801 700 801Z" glyph-name="N_Edotaccent" horiz-adv-x="937" /><glyph d="M577 615Q554 615 539.5 628.5Q525 642 525 665Q525 688 539.5 701.5Q554 715 578 715Q602 715 616.5 701.5Q631 688 631 666Q631 643 616.5 629Q602 615 577 615ZM81 550H156L421 136V550H732V481H498V313H692V245H498V69H732V0H421L156 415V0H81Z" glyph-name="N_Edotaccent.sc" horiz-adv-x="783" /><glyph d="M91 716H171L513 153V716H885V639H593V402H837V325H593V77H885V0H513L171 565V0H91ZM540 860 574 938 789 833 766 778Z" glyph-name="N_Egrave" horiz-adv-x="937" /><glyph d="M449 660 479 725 653 644 632 598ZM81 550H156L421 136V550H732V481H498V313H692V245H498V69H732V0H421L156 415V0H81Z" glyph-name="N_Egrave.sc" horiz-adv-x="783" /><glyph d="M91 716H171L513 153V716H885V639H593V402H837V325H593V77H885V0H513L171 565V0H91ZM559 896H839V819H559Z" glyph-name="N_Emacron" horiz-adv-x="937" /><glyph d="M464 693H690V629H464ZM81 550H156L421 136V550H732V481H498V313H692V245H498V69H732V0H421L156 415V0H81Z" glyph-name="N_Emacron.sc" horiz-adv-x="783" /><glyph d="M513 0 171 565V0H91V716H171L513 153V716H885V639H593V402H837V325H593V77H885V0Q829 -32 811.5 -61.5Q794 -91 794 -112Q794 -156 843 -156Q857 -156 869 -151Q881 -146 890 -141Q900 -134 908 -125V-185Q899 -196 885 -205Q873 -212 856 -218Q839 -224 814 -224Q769 -224 741 -197Q713 -170 713 -128Q713 -112 717.5 -93.5Q722 -75 732 -58Q742 -41 758.5 -26Q775 -11 799 0Z" glyph-name="N_Eogonek" horiz-adv-x="937" /><glyph d="M421 0 156 415V0H81V550H156L421 136V550H732V481H498V313H692V245H498V69H732V0Q688 -23 674 -45Q660 -67 660 -84Q660 -118 699 -118Q721 -118 735 -107Q749 -96 750 -95V-143Q749 -144 744 -148.5Q739 -153 729.5 -158.5Q720 -164 706 -168.5Q692 -173 673 -173Q635 -173 611.5 -151.5Q588 -130 588 -98Q588 -71 603.5 -43Q619 -15 657 0Z" glyph-name="N_Eogonek.sc" horiz-adv-x="783" /><glyph d="M91 716H171L513 153V716H884V639H593V402H836V325H593V0H513L171 565V0H91Z" glyph-name="N_F" horiz-adv-x="912" /><glyph d="M81 550H156L421 136V550H730V481H498V311H692V242H498V0H421L156 415V0H81Z" glyph-name="N_F.sc" horiz-adv-x="761" /><glyph d="M91 716H171L513 153V716H593V401H643L870 716H962L713 371L976 0H875L643 327H593V0H513L171 565V0H91Z" glyph-name="N_K" horiz-adv-x="985" /><glyph d="M81 550H156L421 136V550H498V313H536L711 550H798L602 285L810 0H716L536 246H498V0H421L156 415V0H81Z" glyph-name="N_K.sc" horiz-adv-x="824" /><glyph d="M91 716H171L513 153V716H593V401H643L870 716H962L713 371L976 0H875L643 327H593V0H513L171 565V0H91ZM680 -268 716 -185Q693 -180 679 -165Q665 -150 665 -126Q665 -103 680.5 -84Q696 -65 725 -65Q754 -65 768.5 -83.5Q783 -102 783 -129Q783 -161 767.5 -200Q752 -239 726 -287Z" glyph-name="N_Kcommaaccent" horiz-adv-x="985" /><glyph d="M81 550H156L421 136V550H498V313H536L711 550H798L602 285L810 0H716L536 246H498V0H421L156 415V0H81ZM563 -229 593 -164Q572 -160 560 -147.5Q548 -135 548 -115Q548 -96 561.5 -80.5Q575 -65 601 -65Q626 -65 639 -80Q652 -95 652 -118Q652 -144 638.5 -175Q625 -206 603 -244Z" glyph-name="N_Kcommaaccent.sc" horiz-adv-x="824" /><glyph d="M91 716H171L513 153V716H593L935 153V716H1015V0H935L593 565V0H513L171 565V0H91Z" glyph-name="N_N" horiz-adv-x="1106" /><glyph d="M81 550H156L421 136V550H496L761 136V550H836V0H761L496 415V0H421L156 415V0H81Z" glyph-name="N_N.sc" horiz-adv-x="917" /><glyph d="M676 351Q713 351 744.5 360Q776 369 799.5 388Q823 407 836 435Q849 463 849 502Q849 569 805.5 605Q762 641 674 641H593V351ZM91 716H171L513 153V716H672Q809 716 873.5 659.5Q938 603 938 503Q938 448 918 405.5Q898 363 862.5 334.5Q827 306 778.5 291Q730 276 672 276H593V0H513L171 565V0H91Z" glyph-name="N_P" horiz-adv-x="973" /><glyph d="M556 272Q612 272 650 299.5Q688 327 688 383Q688 431 654.5 457.5Q621 484 555 484H495V272ZM81 550H156L420 136V550H554Q666 550 718.5 506Q771 462 771 384Q771 341 754.5 307.5Q738 274 709 251.5Q680 229 640.5 217.5Q601 206 554 206H495V0H420L155 417V0H81Z" glyph-name="N_P.sc" horiz-adv-x="805" /><glyph d="M691 367Q721 367 748 376.5Q775 386 795 405Q815 424 826.5 452.5Q838 481 838 518Q838 575 802 608Q766 641 694 641H593V367ZM91 716H171L513 153V716H698Q807 716 867 664Q927 612 927 521Q927 457 895.5 400.5Q864 344 791 310L968 0H872L705 292H593V0H513L171 565V0H91Z" glyph-name="N_R" horiz-adv-x="989" /><glyph d="M570 285Q616 285 648.5 312.5Q681 340 681 394Q681 436 654 460Q627 484 572 484H495V285ZM81 550H156L420 136V550H575Q666 550 715.5 509Q765 468 765 398Q765 350 741 307.5Q717 265 660 238L795 0H705L579 220H495V0H420L155 417V0H81Z" glyph-name="N_R.sc" horiz-adv-x="826" /><glyph d="M92 716H172L514 153V716H594V0H514L172 565V0H92ZM275 833 490 938 524 860 298 778Z" glyph-name="Nacute" horiz-adv-x="686" unicode="&#323;" /><glyph d="M92 716H172L514 153V716H594V0H514L172 565V0H92ZM281 797 371 983 437 945 332 769Z" glyph-name="Nacute.pl" horiz-adv-x="686" /><glyph d="M239 615 312 757 369 726 284 591ZM81 550H156L421 136V550H496V0H421L156 415V0H81Z" glyph-name="Nacute.pl.sc" horiz-adv-x="577" /><glyph d="M232 644 406 725 436 660 253 598ZM81 550H156L421 136V550H496V0H421L156 415V0H81Z" glyph-name="Nacute.sc" horiz-adv-x="577" /><glyph d="M91 716H171L513 153V716H593V401H643L870 716H962L713 371L976 0H875L643 327H593V0H513L171 565V0H91ZM274 833 489 938 523 860 297 778Z" glyph-name="Nacute_K" horiz-adv-x="985" /><glyph d="M232 644 406 725 436 660 253 598ZM81 550H156L421 136V550H498V313H536L711 550H798L602 285L810 0H716L536 246H498V0H421L156 415V0H81Z" glyph-name="Nacute_K.sc" horiz-adv-x="824" /><glyph d="M92 716H172L514 153V716H594V0H514L172 565V0H92ZM183 894 213 938 352 852 490 938 521 894 379 778H324Z" glyph-name="Ncaron" horiz-adv-x="686" unicode="&#327;" /><glyph d="M157 688 183 725 295 659 406 725 434 688 319 598H270ZM81 550H156L421 136V550H496V0H421L156 415V0H81Z" glyph-name="Ncaron.sc" horiz-adv-x="577" /><glyph d="M706 77Q759 77 802 93Q845 109 875.5 143Q906 177 922.5 230Q939 283 939 358Q939 433 922.5 486.5Q906 540 875 573.5Q844 607 801.5 623Q759 639 706 639H593V77ZM91 716H171L513 153V716H706Q861 716 944.5 627Q1028 538 1028 358Q1028 179 944.5 89.5Q861 0 706 0H513L171 565V0H91ZM182 894 212 938 351 852 489 938 520 894 378 778H323Z" glyph-name="Ncaron_D" horiz-adv-x="1083" /><glyph d="M157 688 183 725 295 659 406 725 434 688 319 598H270ZM581 69Q663 69 711.5 118.5Q760 168 760 275Q760 383 711 432Q662 481 581 481H498V69ZM81 550H156L421 136V550H580Q709 550 777 479.5Q845 409 845 275Q845 141 777 70.5Q709 0 580 0H421L156 415V0H81Z" glyph-name="Ncaron_D.sc" horiz-adv-x="895" /><glyph d="M91 716H171L513 153V716H593V401H643L870 716H962L713 371L976 0H875L643 327H593V0H513L171 565V0H91ZM182 894 212 938 351 852 489 938 520 894 378 778H323Z" glyph-name="Ncaron_K" horiz-adv-x="985" /><glyph d="M157 688 183 725 295 659 406 725 434 688 319 598H270ZM81 550H156L421 136V550H498V313H536L711 550H798L602 285L810 0H716L536 246H498V0H421L156 415V0H81Z" glyph-name="Ncaron_K.sc" horiz-adv-x="824" /><glyph d="M92 716H172L514 153V716H594V0H514L172 565V0H92ZM300 -268 336 -185Q313 -180 299 -165Q285 -150 285 -126Q285 -103 300.5 -84Q316 -65 345 -65Q374 -65 388.5 -83.5Q403 -102 403 -129Q403 -161 387.5 -200Q372 -239 346 -287Z" glyph-name="Ncommaaccent" horiz-adv-x="686" unicode="&#325;" /><glyph d="M81 550H156L421 136V550H496V0H421L156 415V0H81ZM253 -229 283 -164Q262 -160 250 -147.5Q238 -135 238 -115Q238 -96 251.5 -80.5Q265 -65 291 -65Q316 -65 329 -80Q342 -95 342 -118Q342 -144 328.5 -175Q315 -206 293 -244Z" glyph-name="Ncommaaccent.sc" horiz-adv-x="577" /><glyph d="M701 408Q774 408 806.5 441Q839 474 839 531Q839 588 801 614.5Q763 641 693 641H599V408ZM513 716H693Q816 716 871.5 666Q927 616 927 532Q927 429 835 379Q870 369 894 351Q918 333 932.5 310Q947 287 953.5 260.5Q960 234 960 207Q960 153 942.5 114Q925 75 893 49.5Q861 24 816 12Q771 0 717 0H513L171 565V0H91V716H171L513 153ZM718 75Q794 75 832.5 109Q871 143 871 205Q871 268 836 300.5Q801 333 719 333H599V75ZM299 -268 335 -185Q312 -180 298 -165Q284 -150 284 -126Q284 -103 299.5 -84Q315 -65 344 -65Q373 -65 387.5 -83.5Q402 -102 402 -129Q402 -161 386.5 -200Q371 -239 345 -287Z" glyph-name="Ncommaaccent_B" horiz-adv-x="1009" /><glyph d="M580 316Q634 316 659 339.5Q684 363 684 405Q684 446 655.5 465.5Q627 485 574 485H502V316ZM421 550H573Q675 550 720.5 511.5Q766 473 766 407Q766 367 747 338Q728 309 693 290Q747 276 770 239Q793 202 793 160Q793 78 737.5 39Q682 0 591 0H421L156 415V0H81V550H156L421 136ZM592 65Q649 65 678.5 89.5Q708 114 708 159Q708 204 681.5 227.5Q655 251 593 251H502V65ZM253 -229 283 -164Q262 -160 250 -147.5Q238 -135 238 -115Q238 -96 251.5 -80.5Q265 -65 291 -65Q316 -65 329 -80Q342 -95 342 -118Q342 -144 328.5 -175Q315 -206 293 -244Z" glyph-name="Ncommaaccent_B.sc" horiz-adv-x="839" /><glyph d="M706 77Q759 77 802 93Q845 109 875.5 143Q906 177 922.5 230Q939 283 939 358Q939 433 922.5 486.5Q906 540 875 573.5Q844 607 801.5 623Q759 639 706 639H593V77ZM91 716H171L513 153V716H706Q861 716 944.5 627Q1028 538 1028 358Q1028 179 944.5 89.5Q861 0 706 0H513L171 565V0H91ZM299 -268 335 -185Q312 -180 298 -165Q284 -150 284 -126Q284 -103 299.5 -84Q315 -65 344 -65Q373 -65 387.5 -83.5Q402 -102 402 -129Q402 -161 386.5 -200Q371 -239 345 -287Z" glyph-name="Ncommaaccent_D" horiz-adv-x="1083" /><glyph d="M581 69Q663 69 711.5 118.5Q760 168 760 275Q760 383 711 432Q662 481 581 481H498V69ZM81 550H156L421 136V550H580Q709 550 777 479.5Q845 409 845 275Q845 141 777 70.5Q709 0 580 0H421L156 415V0H81ZM251 -229 281 -164Q260 -160 248 -147.5Q236 -135 236 -115Q236 -96 249.5 -80.5Q263 -65 289 -65Q314 -65 327 -80Q340 -95 340 -118Q340 -144 326.5 -175Q313 -206 291 -244Z" glyph-name="Ncommaaccent_D.sc" horiz-adv-x="895" /><glyph d="M91 716H171L513 153V716H885V639H593V402H837V325H593V77H885V0H513L171 565V0H91ZM299 -268 335 -185Q312 -180 298 -165Q284 -150 284 -126Q284 -103 299.5 -84Q315 -65 344 -65Q373 -65 387.5 -83.5Q402 -102 402 -129Q402 -161 386.5 -200Q371 -239 345 -287Z" glyph-name="Ncommaaccent_E" horiz-adv-x="937" /><glyph d="M81 550H156L421 136V550H732V481H498V313H692V245H498V69H732V0H421L156 415V0H81ZM253 -229 283 -164Q262 -160 250 -147.5Q238 -135 238 -115Q238 -96 251.5 -80.5Q265 -65 291 -65Q316 -65 329 -80Q342 -95 342 -118Q342 -144 328.5 -175Q315 -206 293 -244Z" glyph-name="Ncommaaccent_E.sc" horiz-adv-x="783" /><glyph d="M91 716H171L513 153V716H885V639H593V402H837V325H593V77H885V0H513L171 565V0H91ZM559 896H839V819H559ZM299 -268 335 -185Q312 -180 298 -165Q284 -150 284 -126Q284 -103 299.5 -84Q315 -65 344 -65Q373 -65 387.5 -83.5Q402 -102 402 -129Q402 -161 386.5 -200Q371 -239 345 -287Z" glyph-name="Ncommaaccent_Emacron" horiz-adv-x="937" /><glyph d="M464 693H690V629H464ZM81 550H156L421 136V550H732V481H498V313H692V245H498V69H732V0H421L156 415V0H81ZM253 -229 283 -164Q262 -160 250 -147.5Q238 -135 238 -115Q238 -96 251.5 -80.5Q265 -65 291 -65Q316 -65 329 -80Q342 -95 342 -118Q342 -144 328.5 -175Q315 -206 293 -244Z" glyph-name="Ncommaaccent_Emacron.sc" horiz-adv-x="783" /><glyph d="M91 716H171L513 153V716H593V401H643L870 716H962L713 371L976 0H875L643 327H593V0H513L171 565V0H91ZM299 -268 335 -185Q312 -180 298 -165Q284 -150 284 -126Q284 -103 299.5 -84Q315 -65 344 -65Q373 -65 387.5 -83.5Q402 -102 402 -129Q402 -161 386.5 -200Q371 -239 345 -287Z" glyph-name="Ncommaaccent_K" horiz-adv-x="985" /><glyph d="M81 550H156L421 136V550H498V313H536L711 550H798L602 285L810 0H716L536 246H498V0H421L156 415V0H81ZM253 -229 283 -164Q262 -160 250 -147.5Q238 -135 238 -115Q238 -96 251.5 -80.5Q265 -65 291 -65Q316 -65 329 -80Q342 -95 342 -118Q342 -144 328.5 -175Q315 -206 293 -244Z" glyph-name="Ncommaaccent_K.sc" horiz-adv-x="824" /><glyph d="M91 716H171L513 153V716H593V401H643L870 716H962L713 371L976 0H875L643 327H593V0H513L171 565V0H91ZM680 -268 716 -185Q693 -180 679 -165Q665 -150 665 -126Q665 -103 680.5 -84Q696 -65 725 -65Q754 -65 768.5 -83.5Q783 -102 783 -129Q783 -161 767.5 -200Q752 -239 726 -287ZM299 -268 335 -185Q312 -180 298 -165Q284 -150 284 -126Q284 -103 299.5 -84Q315 -65 344 -65Q373 -65 387.5 -83.5Q402 -102 402 -129Q402 -161 386.5 -200Q371 -239 345 -287Z" glyph-name="Ncommaaccent_Kcommaaccent" horiz-adv-x="985" /><glyph d="M81 550H156L421 136V550H498V313H536L711 550H798L602 285L810 0H716L536 246H498V0H421L156 415V0H81ZM563 -229 593 -164Q572 -160 560 -147.5Q548 -135 548 -115Q548 -96 561.5 -80.5Q575 -65 601 -65Q626 -65 639 -80Q652 -95 652 -118Q652 -144 638.5 -175Q625 -206 603 -244ZM253 -229 283 -164Q262 -160 250 -147.5Q238 -135 238 -115Q238 -96 251.5 -80.5Q265 -65 291 -65Q316 -65 329 -80Q342 -95 342 -118Q342 -144 328.5 -175Q315 -206 293 -244Z" glyph-name="Ncommaaccent_Kcommaaccent.sc" horiz-adv-x="824" /><glyph d="M91 716H171L513 153V716H593L935 153V716H1015V0H935L593 565V0H513L171 565V0H91ZM299 -268 335 -185Q312 -180 298 -165Q284 -150 284 -126Q284 -103 299.5 -84Q315 -65 344 -65Q373 -65 387.5 -83.5Q402 -102 402 -129Q402 -161 386.5 -200Q371 -239 345 -287Z" glyph-name="Ncommaaccent_N" horiz-adv-x="1106" /><glyph d="M81 550H156L421 136V550H496L761 136V550H836V0H761L496 415V0H421L156 415V0H81ZM253 -229 283 -164Q262 -160 250 -147.5Q238 -135 238 -115Q238 -96 251.5 -80.5Q265 -65 291 -65Q316 -65 329 -80Q342 -95 342 -118Q342 -144 328.5 -175Q315 -206 293 -244Z" glyph-name="Ncommaaccent_N.sc" horiz-adv-x="917" /><glyph d="M91 716H171L513 153V716H593L935 153V716H1015V0H935L593 565V0H513L171 565V0H91ZM721 -268 757 -185Q734 -180 720 -165Q706 -150 706 -126Q706 -103 721.5 -84Q737 -65 766 -65Q795 -65 809.5 -83.5Q824 -102 824 -129Q824 -161 808.5 -200Q793 -239 767 -287ZM299 -268 335 -185Q312 -180 298 -165Q284 -150 284 -126Q284 -103 299.5 -84Q315 -65 344 -65Q373 -65 387.5 -83.5Q402 -102 402 -129Q402 -161 386.5 -200Q371 -239 345 -287Z" glyph-name="Ncommaaccent_Ncommaaccent" horiz-adv-x="1106" /><glyph d="M81 550H156L421 136V550H496L761 136V550H836V0H761L496 415V0H421L156 415V0H81ZM594 -229 623 -164Q602 -160 590 -147.5Q578 -135 578 -115Q578 -96 591.5 -80.5Q605 -65 631 -65Q657 -65 669.5 -80Q682 -95 682 -118Q682 -144 668.5 -175Q655 -206 634 -244ZM253 -229 283 -164Q262 -160 250 -147.5Q238 -135 238 -115Q238 -96 251.5 -80.5Q265 -65 291 -65Q316 -65 329 -80Q342 -95 342 -118Q342 -144 328.5 -175Q315 -206 293 -244Z" glyph-name="Ncommaaccent_Ncommaaccent.sc" horiz-adv-x="917" /><glyph d="M676 351Q713 351 744.5 360Q776 369 799.5 388Q823 407 836 435Q849 463 849 502Q849 569 805.5 605Q762 641 674 641H593V351ZM91 716H171L513 153V716H672Q809 716 873.5 659.5Q938 603 938 503Q938 448 918 405.5Q898 363 862.5 334.5Q827 306 778.5 291Q730 276 672 276H593V0H513L171 565V0H91ZM299 -268 335 -185Q312 -180 298 -165Q284 -150 284 -126Q284 -103 299.5 -84Q315 -65 344 -65Q373 -65 387.5 -83.5Q402 -102 402 -129Q402 -161 386.5 -200Q371 -239 345 -287Z" glyph-name="Ncommaaccent_P" horiz-adv-x="973" /><glyph d="M556 272Q612 272 650 299.5Q688 327 688 383Q688 431 654.5 457.5Q621 484 555 484H495V272ZM81 550H156L420 136V550H554Q666 550 718.5 506Q771 462 771 384Q771 341 754.5 307.5Q738 274 709 251.5Q680 229 640.5 217.5Q601 206 554 206H495V0H420L155 417V0H81ZM251 -229 281 -164Q260 -160 248 -147.5Q236 -135 236 -115Q236 -96 249.5 -80.5Q263 -65 289 -65Q314 -65 327 -80Q340 -95 340 -118Q340 -144 326.5 -175Q313 -206 291 -244Z" glyph-name="Ncommaaccent_P.sc" horiz-adv-x="805" /><glyph d="M691 367Q721 367 748 376.5Q775 386 795 405Q815 424 826.5 452.5Q838 481 838 518Q838 575 802 608Q766 641 694 641H593V367ZM91 716H171L513 153V716H698Q807 716 867 664Q927 612 927 521Q927 457 895.5 400.5Q864 344 791 310L968 0H872L705 292H593V0H513L171 565V0H91ZM299 -268 335 -185Q312 -180 298 -165Q284 -150 284 -126Q284 -103 299.5 -84Q315 -65 344 -65Q373 -65 387.5 -83.5Q402 -102 402 -129Q402 -161 386.5 -200Q371 -239 345 -287Z" glyph-name="Ncommaaccent_R" horiz-adv-x="989" /><glyph d="M570 285Q616 285 648.5 312.5Q681 340 681 394Q681 436 654 460Q627 484 572 484H495V285ZM81 550H156L420 136V550H575Q666 550 715.5 509Q765 468 765 398Q765 350 741 307.5Q717 265 660 238L795 0H705L579 220H495V0H420L155 417V0H81ZM251 -229 281 -164Q260 -160 248 -147.5Q236 -135 236 -115Q236 -96 249.5 -80.5Q263 -65 289 -65Q314 -65 327 -80Q340 -95 340 -118Q340 -144 326.5 -175Q313 -206 291 -244Z" glyph-name="Ncommaaccent_R.sc" horiz-adv-x="826" /><glyph d="M92 716H172L514 153V716H594V0H514L172 565V0H92ZM185 804Q189 838 200 864Q210 888 228.5 906Q247 924 280 924Q307 924 324.5 913Q342 902 356 891Q372 880 384 870Q396 860 410 860Q420 860 426.5 867.5Q433 875 436 884Q440 895 442 908H502Q499 876 488 850Q479 826 460.5 809Q442 792 408 792Q384 792 367 803Q350 814 335 825Q321 835 308 845.5Q295 856 281 856Q269 856 262 848Q255 840 251 830Q247 819 245 804Z" glyph-name="Ntilde" horiz-adv-x="686" unicode="&#209;" /><glyph d="M157 618Q157 621 159.5 636.5Q162 652 170.5 669Q179 686 195 700Q211 714 237 714Q259 714 272.5 706Q286 698 299 690Q312 681 321.5 673.5Q331 666 343 666Q351 666 356 671.5Q361 677 364 684Q368 692 369 702H421Q421 699 418.5 684Q416 669 408 652.5Q400 636 384.5 622.5Q369 609 343 609Q323 609 309.5 617Q296 625 283 633Q271 641 260.5 648.5Q250 656 238 656Q229 656 223 650Q217 644 214 637Q210 629 209 618ZM81 550H156L421 136V550H496V0H421L156 415V0H81Z" glyph-name="Ntilde.sc" horiz-adv-x="577" /></font>
</defs>
</svg>
