<?xml version="1.0" encoding="UTF-8"?>
<svg width="60px" height="30px" viewBox="0 0 60 30" version="1.1" xmlns="http://www.w3.org/2000/svg" xmlns:xlink="http://www.w3.org/1999/xlink">
    <!-- Generator: Sketch 41.1 (35376) - http://www.bohemiancoding.com/sketch -->
    <title>facebook</title>
    <desc>Created with Sketch.</desc>
    <defs></defs>
    <g id="1400" stroke="none" stroke-width="1" fill="none" fill-rule="evenodd">
        <g id="о-нас" transform="translate(-501.000000, -375.000000)">
            <g id="facebook" transform="translate(501.000000, 375.000000)">
                <g id="Group-12">
                    <path d="M14.9812731,0 C6.70786448,0 0,6.70786448 0,14.9812731 C0,23.2546817 6.70786448,29.9625462 14.9812731,29.9625462 C23.2546817,29.9625462 29.9625462,23.2546817 29.9625462,14.9812731 C29.9625462,6.70601643 23.2546817,0 14.9812731,0 L14.9812731,0 Z M18.853922,14.9793634 L16.3988501,14.9812115 L16.3970021,23.9699384 L13.0280698,23.9699384 L13.0280698,14.9812731 L10.7809035,14.9812731 L10.7809035,11.8838809 L13.0280698,11.8820329 L13.0243121,10.0580698 C13.0243121,7.53 13.709692,5.9925462 16.6853593,5.9925462 L19.1647639,5.9925462 L19.1647639,9.09178645 L17.6141889,9.09178645 C16.4550308,9.09178645 16.3988501,9.52435318 16.3988501,10.3314579 L16.3950924,11.8820329 L19.1815811,11.8820329 L18.853922,14.9793634 L18.853922,14.9793634 Z" id="Shape" fill="#D33C2D"></path>
                    <g id="Capa_1-Copy-2" transform="translate(30.000000, 0.000000)" fill="#030303">
                        <path d="M14.9812731,0 C6.70786448,0 0,6.70786448 0,14.9812731 C0,23.2546817 6.70786448,29.9625462 14.9812731,29.9625462 C23.2546817,29.9625462 29.9625462,23.2546817 29.9625462,14.9812731 C29.9625462,6.70601643 23.2546817,0 14.9812731,0 L14.9812731,0 Z M18.853922,14.9793634 L16.3988501,14.9812115 L16.3970021,23.9699384 L13.0280698,23.9699384 L13.0280698,14.9812731 L10.7809035,14.9812731 L10.7809035,11.8838809 L13.0280698,11.8820329 L13.0243121,10.0580698 C13.0243121,7.53 13.709692,5.9925462 16.6853593,5.9925462 L19.1647639,5.9925462 L19.1647639,9.09178645 L17.6141889,9.09178645 C16.4550308,9.09178645 16.3988501,9.52435318 16.3988501,10.3314579 L16.3950924,11.8820329 L19.1815811,11.8820329 L18.853922,14.9793634 L18.853922,14.9793634 Z" id="Shape"></path>
                    </g>
                </g>
            </g>
        </g>
    </g>
</svg>