<?xml version="1.0" encoding="UTF-8"?>
<svg width="30px" height="30px" viewBox="0 0 30 30" version="1.1" xmlns="http://www.w3.org/2000/svg" xmlns:xlink="http://www.w3.org/1999/xlink">
    <!-- Generator: sketchtool 40.1 (33804) - http://www.bohemiancoding.com/sketch -->
    <title>D1407B42-B972-4CDC-95FD-911F292ED368</title>
    <desc>Created with sketchtool.</desc>
    <defs></defs>
    <g id="1200" stroke="none" stroke-width="1" fill="none" fill-rule="evenodd">
        <g id="Иконки" transform="translate(-45.000000, -35.000000)" fill="#000000">
            <path d="M59.895,52.8776 C61.5384,52.8776 62.8782,51.5402 62.8782,49.8956 C62.8782,49.2464 62.6658,48.647 62.3142,48.1574 C61.7724,47.4062 60.8916,46.9136 59.8968,46.9136 C58.9014,46.9136 58.0212,47.4056 57.4782,48.1568 C57.1254,48.6464 56.9148,49.2458 56.9142,49.895 C56.9124,51.5396 58.251,52.8776 59.895,52.8776 L59.895,52.8776 Z" id="Shape"></path>
            <polygon id="Shape" points="66.4068 46.2476 66.4068 43.748 66.4068 43.376 66.033 43.3772 63.5346 43.385 63.5442 46.2572"></polygon>
            <path d="M59.8956,35 C51.6822,35 45,41.6822 45,49.8956 C45,58.1084 51.6822,64.7912 59.8956,64.7912 C68.1084,64.7912 74.7912,58.1084 74.7912,49.8956 C74.7912,41.6822 68.1096,35 59.8956,35 L59.8956,35 Z M68.367,48.1574 L68.367,55.0934 C68.367,56.9 66.8982,58.3682 65.0928,58.3682 L54.6984,58.3682 C52.8924,58.3682 51.4242,56.9 51.4242,55.0934 L51.4242,48.1574 L51.4242,44.699 C51.4242,42.893 52.8924,41.4248 54.6984,41.4248 L65.0922,41.4248 C66.8982,41.4248 68.367,42.893 68.367,44.699 L68.367,48.1574 L68.367,48.1574 Z" id="Shape"></path>
            <path d="M59.8956,54.5294 C57.3402,54.5294 55.2624,52.4498 55.2624,49.8956 C55.2624,49.2812 55.3848,48.6938 55.6032,48.1574 L53.0742,48.1574 L53.0742,55.0934 C53.0742,55.9898 53.802,56.7158 54.6978,56.7158 L65.0916,56.7158 C65.9862,56.7158 66.7152,55.9898 66.7152,55.0934 L66.7152,48.1574 L64.185,48.1574 C64.4052,48.6938 64.5294,49.2812 64.5294,49.8956 C64.5294,52.4498 62.451,54.5294 59.8956,54.5294 Z" id="Shape"></path>
        </g>
    </g>
</svg>