<?xml version="1.0" encoding="UTF-8" standalone="no"?>
<svg width="97px" height="34px" viewBox="0 0 97 34" version="1.1" xmlns="http://www.w3.org/2000/svg" xmlns:xlink="http://www.w3.org/1999/xlink">
    <!-- Generator: sketchtool 39.1 (31720) - http://www.bohemiancoding.com/sketch -->
    <title>13FE30AD-13C5-415D-B5C9-EC679FBB542D</title>
    <desc>Created with sketchtool.</desc>
    <defs></defs>
    <g id="1200" stroke="none" stroke-width="1" fill="none" fill-rule="evenodd">
        <g id="раскрытое-меню" transform="translate(-30.000000, -80.000000)" fill="#FFFFFF">
            <g id="Group-6" transform="translate(30.000000, 80.000000)">
                <g id="tasma">
                    <g id="Слой_2">
                        <g id="white_bg">
                            <g id="Group">
                                <g transform="translate(0.000000, 12.771588)" id="Shape">
                                    <polygon points="9.01231501 4.54581932 9.01231501 20.7267714 4.36973851 20.7267714 4.36973851 4.54581932 0 4.54581932 0 0.629920678 13.3842189 0.629920678 13.3842189 4.54581932"></polygon>
                                    <path d="M26.3743385,16.9320946 L18.7781826,16.9320946 L17.2407622,20.7289361 L12.4184591,20.7289361 L20.5278103,0.629920678 L24.7784528,0.629920678 L32.6972505,20.7289361 L27.8814436,20.7289361 L26.3743385,16.9320946 Z M25.1184176,13.3755322 L22.6368912,6.62607283 L20.1380417,13.3755322 L25.1184176,13.3755322 Z"></path>
                                    <path d="M45.334413,5.54157022 C43.8186465,4.18648313 42.5302449,4.09556674 41.9585843,4.09556674 C41.3262931,4.09556674 40.5424253,4.18648313 40.0097416,4.78826302 C39.6731803,5.12631488 39.4846918,5.58414615 39.4857194,6.06109243 C39.4623403,6.48163262 39.6283558,6.89058079 39.938284,7.17590051 C40.4211639,7.62831776 41.1140858,7.80798586 42.4696142,8.32101404 L43.9853808,8.89465315 C44.8515331,9.22584855 45.9342235,9.67826581 46.7289183,10.431573 C47.9047201,11.5463811 48.205708,12.9923846 48.205708,14.1678036 C48.205708,16.2458924 47.4824708,18.0642201 46.4279304,19.1465581 C44.6501527,21.0146733 42.0581918,21.1965061 40.7308134,21.1965061 C39.284339,21.1965061 38.0175912,20.9800385 36.7508434,20.3522825 C35.6582769,19.762187 34.6574784,19.0162077 33.7799409,18.1378191 L36.1921752,14.8237003 C36.7630889,15.3961059 37.3890191,15.9108982 38.0608988,16.3606202 C38.8178746,16.83927 39.6965598,17.0902411 40.592229,17.083622 C41.3552767,17.1107181 42.1030157,16.8651343 42.70131,16.3909257 C43.1743248,15.9841484 43.4397877,15.3866541 43.4245472,14.7630894 C43.4372517,14.1982481 43.1798881,13.6611764 42.7316253,13.3170859 C42.1881147,12.8646687 40.9538476,12.4122514 40.3800217,12.2022779 L38.72134,11.6308034 C37.7858955,11.299608 36.7010397,10.8774962 35.9171718,10.0332727 C34.8626314,8.91846458 34.7110547,7.50276656 34.7110547,6.53732112 C34.7110547,4.76012224 35.2545653,3.25350783 36.458517,2.01747791 C37.8746761,0.571474429 39.5636731,0.179668097 41.4388929,0.179668097 C43.5984417,0.158386842 45.7035576,0.856817108 47.4218402,2.16467587 L45.334413,5.54157022 Z"></path>
                                    <polygon points="50.6092807 20.7289361 53.8356982 0.629920678 57.6944068 0.629920678 62.6986019 12.6525305 67.702797 0.629920678 71.5615056 0.629920678 74.7879231 20.7289361 70.1410158 20.7289361 68.5429648 8.73663181 63.5084543 20.7289361 61.880088 20.7289361 56.8455775 8.73663181 55.2475265 20.7289361"></polygon>
                                    <path d="M90.0646848,16.9320946 L82.4685289,16.9320946 L80.9311085,20.7289361 L76.1088054,20.7289361 L84.2181566,0.629920678 L88.4687992,0.629920678 L96.3962584,20.7289361 L91.5717899,20.7289361 L90.0646848,16.9320946 Z M88.7979371,13.3755322 L86.3272375,6.62607283 L83.8262227,13.3755322 L88.7979371,13.3755322 Z"></path>
                                </g>
                                <g transform="translate(0.000000, 12.771588)" id="Shape">
                                    <polygon points="9.01231501 4.54581932 9.01231501 20.7267714 4.36973851 20.7267714 4.36973851 4.54581932 0 4.54581932 0 0.629920678 13.3842189 0.629920678 13.3842189 4.54581932"></polygon>
                                    <path d="M26.3743385,16.9320946 L18.7781826,16.9320946 L17.2407622,20.7289361 L12.4184591,20.7289361 L20.5278103,0.629920678 L24.7784528,0.629920678 L32.6972505,20.7289361 L27.8814436,20.7289361 L26.3743385,16.9320946 Z M25.1184176,13.3755322 L22.6368912,6.62607283 L20.1380417,13.3755322 L25.1184176,13.3755322 Z"></path>
                                    <path d="M45.334413,5.54157022 C43.8186465,4.18648313 42.5302449,4.09556674 41.9585843,4.09556674 C41.3262931,4.09556674 40.5424253,4.18648313 40.0097416,4.78826302 C39.6731803,5.12631488 39.4846918,5.58414615 39.4857194,6.06109243 C39.4623403,6.48163262 39.6283558,6.89058079 39.938284,7.17590051 C40.4211639,7.62831776 41.1140858,7.80798586 42.4696142,8.32101404 L43.9853808,8.89465315 C44.8515331,9.22584855 45.9342235,9.67826581 46.7289183,10.431573 C47.9047201,11.5463811 48.205708,12.9923846 48.205708,14.1678036 C48.205708,16.2458924 47.4824708,18.0642201 46.4279304,19.1465581 C44.6501527,21.0146733 42.0581918,21.1965061 40.7308134,21.1965061 C39.284339,21.1965061 38.0175912,20.9800385 36.7508434,20.3522825 C35.6582769,19.762187 34.6574784,19.0162077 33.7799409,18.1378191 L36.1921752,14.8237003 C36.7630889,15.3961059 37.3890191,15.9108982 38.0608988,16.3606202 C38.8178746,16.83927 39.6965598,17.0902411 40.592229,17.083622 C41.3552767,17.1107181 42.1030157,16.8651343 42.70131,16.3909257 C43.1743248,15.9841484 43.4397877,15.3866541 43.4245472,14.7630894 C43.4372517,14.1982481 43.1798881,13.6611764 42.7316253,13.3170859 C42.1881147,12.8646687 40.9538476,12.4122514 40.3800217,12.2022779 L38.72134,11.6308034 C37.7858955,11.299608 36.7010397,10.8774962 35.9171718,10.0332727 C34.8626314,8.91846458 34.7110547,7.50276656 34.7110547,6.53732112 C34.7110547,4.76012224 35.2545653,3.25350783 36.458517,2.01747791 C37.8746761,0.571474429 39.5636731,0.179668097 41.4388929,0.179668097 C43.5984417,0.158386842 45.7035576,0.856817108 47.4218402,2.16467587 L45.334413,5.54157022 Z"></path>
                                    <polygon points="50.6092807 20.7289361 53.8356982 0.629920678 57.6944068 0.629920678 62.6986019 12.6525305 67.702797 0.629920678 71.5615056 0.629920678 74.7879231 20.7289361 70.1410158 20.7289361 68.5429648 8.73663181 63.5084543 20.7289361 61.880088 20.7289361 56.8455775 8.73663181 55.2475265 20.7289361"></polygon>
                                    <path d="M90.0646848,16.9320946 L82.4685289,16.9320946 L80.9311085,20.7289361 L76.1088054,20.7289361 L84.2181566,0.629920678 L88.4687992,0.629920678 L96.3962584,20.7289361 L91.5717899,20.7289361 L90.0646848,16.9320946 Z M88.7979371,13.3755322 L86.3272375,6.62607283 L83.8262227,13.3755322 L88.7979371,13.3755322 Z"></path>
                                </g>
                                <rect id="Rectangle-path" transform="translate(89.227808, 5.479834) rotate(-60.113473) translate(-89.227808, -5.479834) " x="84.186823" y="3.36635005" width="10.0819709" height="4.22696724"></rect>
                            </g>
                        </g>
                    </g>
                </g>
            </g>
        </g>
    </g>
</svg>