<?xml version="1.0" encoding="UTF-8"?>
<svg width="60px" height="30px" viewBox="0 0 60 30" version="1.1" xmlns="http://www.w3.org/2000/svg" xmlns:xlink="http://www.w3.org/1999/xlink">
    <!-- Generator: Sketch 41.1 (35376) - http://www.bohemiancoding.com/sketch -->
    <title>vimeo</title>
    <desc>Created with Sketch.</desc>
    <defs></defs>
    <g id="1400" stroke="none" stroke-width="1" fill="none" fill-rule="evenodd">
        <g id="о-нас" transform="translate(-501.000000, -345.000000)">
            <g id="vimeo" transform="translate(501.000000, 345.000000)">
                <g id="social-vimeo-in-a-circle-logo" fill="#D33C2D">
                    <g id="Capa_1">
                        <path d="M14.9858546,0 C6.70992141,0 0,6.70992141 0,14.9858546 C0,23.2617878 6.70992141,29.9717092 14.9858546,29.9717092 C23.2617878,29.9717092 29.9717092,23.2617878 29.9717092,14.9858546 C29.9717092,6.70803536 23.2617878,0 14.9858546,0 L14.9858546,0 Z M23.8874263,10.9077996 C22.8815128,16.568723 17.267446,21.3622986 15.579666,22.4562672 C13.89,23.5502358 12.3502161,22.0179371 11.7901179,20.8565422 C11.151336,19.53778 9.23504912,12.3670727 8.73300589,11.7732613 C8.23096267,11.1794499 6.72489194,12.3670727 6.72489194,12.3670727 L5.99434185,11.4098428 C5.99434185,11.4098428 9.05333988,7.75891945 11.3799018,7.29996071 C13.8469745,6.81477407 13.8432024,11.0895088 14.4370138,13.4610413 C15.0120825,15.755776 15.3961297,17.0669941 15.8981139,17.0669941 C16.4001572,17.0669941 17.3611002,15.7894303 18.4082711,13.8281729 C19.4610413,11.8650295 18.3633006,10.1303929 16.308389,11.3629862 C17.1325933,6.43455796 24.8915128,5.24882122 23.8874263,10.9077996 L23.8874263,10.9077996 Z" id="Shape"></path>
                    </g>
                </g>
                <g id="social-vimeo-in-a-circle-logo-copy" transform="translate(30.000000, 0.000000)" fill="#030303">
                    <g id="Capa_1">
                        <path d="M14.9858546,0 C6.70992141,0 0,6.70992141 0,14.9858546 C0,23.2617878 6.70992141,29.9717092 14.9858546,29.9717092 C23.2617878,29.9717092 29.9717092,23.2617878 29.9717092,14.9858546 C29.9717092,6.70803536 23.2617878,0 14.9858546,0 L14.9858546,0 Z M23.8874263,10.9077996 C22.8815128,16.568723 17.267446,21.3622986 15.579666,22.4562672 C13.89,23.5502358 12.3502161,22.0179371 11.7901179,20.8565422 C11.151336,19.53778 9.23504912,12.3670727 8.73300589,11.7732613 C8.23096267,11.1794499 6.72489194,12.3670727 6.72489194,12.3670727 L5.99434185,11.4098428 C5.99434185,11.4098428 9.05333988,7.75891945 11.3799018,7.29996071 C13.8469745,6.81477407 13.8432024,11.0895088 14.4370138,13.4610413 C15.0120825,15.755776 15.3961297,17.0669941 15.8981139,17.0669941 C16.4001572,17.0669941 17.3611002,15.7894303 18.4082711,13.8281729 C19.4610413,11.8650295 18.3633006,10.1303929 16.308389,11.3629862 C17.1325933,6.43455796 24.8915128,5.24882122 23.8874263,10.9077996 L23.8874263,10.9077996 Z" id="Shape"></path>
                    </g>
                </g>
            </g>
        </g>
    </g>
</svg>