<?xml version="1.0" encoding="UTF-8"?>
<svg width="60px" height="30px" viewBox="0 0 60 30" version="1.1" xmlns="http://www.w3.org/2000/svg" xmlns:xlink="http://www.w3.org/1999/xlink">
    <!-- Generator: Sketch 41.1 (35376) - http://www.bohemiancoding.com/sketch -->
    <title>vk</title>
    <desc>Created with Sketch.</desc>
    <defs></defs>
    <g id="1400" stroke="none" stroke-width="1" fill="none" fill-rule="evenodd">
        <g id="о-нас" transform="translate(-501.000000, -315.000000)">
            <g id="vk" transform="translate(501.000000, 315.000000)">
                <g id="Capa_1" transform="translate(30.000000, 0.000000)" fill="#000000">
                    <path d="M14.9617347,0 C6.69887755,0 0,6.69857143 0,14.9617347 C0,23.224898 6.69887755,29.9234694 14.9617347,29.9234694 C23.2245918,29.9234694 29.9234694,23.224898 29.9234694,14.9617347 C29.9234694,6.69857143 23.2245918,0 14.9617347,0 L14.9617347,0 Z M22.5511224,16.579898 C23.2484694,17.2610204 23.9862245,17.9020408 24.6122449,18.6535714 C24.8895918,18.9860204 25.1510204,19.3297959 25.35,19.7164286 C25.6340816,20.2677551 25.377551,20.8723469 24.8840816,20.905102 L21.8188776,20.9044898 C21.0272449,20.97 20.3972449,20.6507143 19.8661224,20.1094898 C19.4421429,19.6781633 19.0487755,19.217449 18.6404082,18.7714286 C18.4735714,18.5883673 18.2978571,18.4160204 18.0884694,18.2804082 C17.6706122,18.0085714 17.307551,18.0918367 17.0681633,18.5283673 C16.8241837,18.972551 16.7684694,19.4647959 16.7452041,19.9591837 C16.7118367,20.6819388 16.4938776,20.8708163 15.7686735,20.9047959 C14.2190816,20.9773469 12.7487755,20.7422449 11.3822449,19.9610204 C10.1767347,19.2719388 9.24367347,18.2993878 8.43061224,17.1982653 C6.84734694,15.0517347 5.63479592,12.6958163 4.54530612,10.2722449 C4.30010204,9.72642857 4.4794898,9.43438776 5.08163265,9.42306122 C6.08204082,9.40377551 7.08244898,9.40622449 8.08285714,9.42214286 C8.49,9.42857143 8.75938776,9.66153061 8.91581633,10.0457143 C9.45642857,11.3758163 10.1191837,12.6413265 10.9496939,13.815 C11.1710204,14.127551 11.3969388,14.4391837 11.7186735,14.659898 C12.0737755,14.9035714 12.3443878,14.8230612 12.5118367,14.4266327 C12.6189796,14.1746939 12.6652041,13.9053061 12.6884694,13.6353061 C12.7680612,12.7105102 12.777551,11.7860204 12.6397959,10.864898 C12.5540816,10.2884694 12.229898,9.91622449 11.6553061,9.8072449 C11.3626531,9.75183673 11.4055102,9.64346939 11.5478571,9.47632653 C11.794898,9.18734694 12.0263265,9.00857143 12.4888776,9.00857143 L15.9520408,9.00795918 C16.4978571,9.11510204 16.6203061,9.36 16.6943878,9.90979592 L16.697449,13.7583673 C16.6910204,13.9711224 16.8042857,14.6017347 17.1863265,14.7410204 C17.492449,14.8420408 17.6944898,14.5965306 17.877551,14.4027551 C18.7080612,13.5214286 19.2997959,12.4812245 19.8296939,11.4045918 C20.0635714,10.9297959 20.2653061,10.4384694 20.4612245,9.94622449 C20.6069388,9.5822449 20.8334694,9.40316327 21.2442857,9.40928571 L24.5791837,9.41326531 C24.677449,9.41326531 24.7772449,9.41418367 24.8745918,9.43102041 C25.4366327,9.52714286 25.5906122,9.76897959 25.4167347,10.3172449 C25.1430612,11.1786735 24.6113265,11.8962245 24.0915306,12.6156122 C23.5343878,13.3858163 22.9402041,14.1290816 22.3885714,14.9026531 C21.8816327,15.6097959 21.9217347,15.9658163 22.5511224,16.579898 L22.5511224,16.579898 Z" id="Shape"></path>
                </g>
                <g id="Capa_1-Copy" fill="#D33C2D">
                    <path d="M14.9617347,0 C6.69887755,0 0,6.69857143 0,14.9617347 C0,23.224898 6.69887755,29.9234694 14.9617347,29.9234694 C23.2245918,29.9234694 29.9234694,23.224898 29.9234694,14.9617347 C29.9234694,6.69857143 23.2245918,0 14.9617347,0 L14.9617347,0 Z M22.5511224,16.579898 C23.2484694,17.2610204 23.9862245,17.9020408 24.6122449,18.6535714 C24.8895918,18.9860204 25.1510204,19.3297959 25.35,19.7164286 C25.6340816,20.2677551 25.377551,20.8723469 24.8840816,20.905102 L21.8188776,20.9044898 C21.0272449,20.97 20.3972449,20.6507143 19.8661224,20.1094898 C19.4421429,19.6781633 19.0487755,19.217449 18.6404082,18.7714286 C18.4735714,18.5883673 18.2978571,18.4160204 18.0884694,18.2804082 C17.6706122,18.0085714 17.307551,18.0918367 17.0681633,18.5283673 C16.8241837,18.972551 16.7684694,19.4647959 16.7452041,19.9591837 C16.7118367,20.6819388 16.4938776,20.8708163 15.7686735,20.9047959 C14.2190816,20.9773469 12.7487755,20.7422449 11.3822449,19.9610204 C10.1767347,19.2719388 9.24367347,18.2993878 8.43061224,17.1982653 C6.84734694,15.0517347 5.63479592,12.6958163 4.54530612,10.2722449 C4.30010204,9.72642857 4.4794898,9.43438776 5.08163265,9.42306122 C6.08204082,9.40377551 7.08244898,9.40622449 8.08285714,9.42214286 C8.49,9.42857143 8.75938776,9.66153061 8.91581633,10.0457143 C9.45642857,11.3758163 10.1191837,12.6413265 10.9496939,13.815 C11.1710204,14.127551 11.3969388,14.4391837 11.7186735,14.659898 C12.0737755,14.9035714 12.3443878,14.8230612 12.5118367,14.4266327 C12.6189796,14.1746939 12.6652041,13.9053061 12.6884694,13.6353061 C12.7680612,12.7105102 12.777551,11.7860204 12.6397959,10.864898 C12.5540816,10.2884694 12.229898,9.91622449 11.6553061,9.8072449 C11.3626531,9.75183673 11.4055102,9.64346939 11.5478571,9.47632653 C11.794898,9.18734694 12.0263265,9.00857143 12.4888776,9.00857143 L15.9520408,9.00795918 C16.4978571,9.11510204 16.6203061,9.36 16.6943878,9.90979592 L16.697449,13.7583673 C16.6910204,13.9711224 16.8042857,14.6017347 17.1863265,14.7410204 C17.492449,14.8420408 17.6944898,14.5965306 17.877551,14.4027551 C18.7080612,13.5214286 19.2997959,12.4812245 19.8296939,11.4045918 C20.0635714,10.9297959 20.2653061,10.4384694 20.4612245,9.94622449 C20.6069388,9.5822449 20.8334694,9.40316327 21.2442857,9.40928571 L24.5791837,9.41326531 C24.677449,9.41326531 24.7772449,9.41418367 24.8745918,9.43102041 C25.4366327,9.52714286 25.5906122,9.76897959 25.4167347,10.3172449 C25.1430612,11.1786735 24.6113265,11.8962245 24.0915306,12.6156122 C23.5343878,13.3858163 22.9402041,14.1290816 22.3885714,14.9026531 C21.8816327,15.6097959 21.9217347,15.9658163 22.5511224,16.579898 L22.5511224,16.579898 Z" id="Shape"></path>
                </g>
            </g>
        </g>
    </g>
</svg>